%
M48
M72
T01C0.02000
T02C0.02756
T03C0.03200
T04C0.03937
T05C0.04000
T06C0.04400
T07C0.11811
%
T01
X237354Y67882
T02
X237000Y78000
X227000Y78000
X226921Y103000
X217079Y103000
T03
X187000Y133000
X177000Y133000
X167000Y133000
X157000Y133000
X147000Y133000
X137000Y133000
X127000Y133000
X117000Y133000
X102000Y133000
X92000Y133000
X82000Y133000
X72000Y133000
X62000Y133000
X52000Y133000
X42000Y133000
X32000Y133000
X32000Y163000
X42000Y163000
X52000Y163000
X62000Y163000
X72000Y163000
X82000Y163000
X92000Y163000
X102000Y163000
X117000Y163000
X127000Y163000
X137000Y163000
X147000Y163000
X157000Y163000
X167000Y163000
X177000Y163000
X187000Y163000
X227000Y48000
X237000Y48000
X227000Y23000
X187000Y23000
T04
X187000Y53000
X177000Y53000
X167000Y53000
X157000Y53000
X147000Y53000
X137000Y53000
X127000Y53000
X117000Y53000
X107000Y53000
X97000Y53000
X87000Y53000
X77000Y53000
X67000Y53000
X57000Y53000
X47000Y53000
X47000Y113000
X57000Y113000
X67000Y113000
X77000Y113000
X87000Y113000
X97000Y113000
X107000Y113000
X117000Y113000
X127000Y113000
X137000Y113000
X147000Y113000
X157000Y113000
X167000Y113000
X177000Y113000
X187000Y113000
T05
X212000Y133000
X222000Y133000
X222000Y143000
X212000Y143000
X212000Y153000
X222000Y153000
X222000Y163000
X212000Y163000
X212000Y188000
X222000Y188000
X202000Y188000
X192000Y188000
X182000Y188000
X147000Y188000
X137000Y188000
X127000Y188000
X117000Y188000
X107000Y188000
X72000Y188000
X62000Y188000
X52000Y188000
X42000Y188000
X32000Y188000
X52000Y33000
X52000Y23000
X52000Y13000
X77000Y13000
X87000Y13000
X97000Y13000
X107000Y13000
X117000Y13000
X127000Y13000
X127000Y23000
X117000Y23000
X117000Y33000
X127000Y33000
X107000Y33000
X107000Y23000
X97000Y23000
X87000Y23000
X87000Y33000
X97000Y33000
X77000Y33000
X77000Y23000
X252000Y118000
X252000Y128000
T06
X212000Y78000
X212000Y38000
T07
X17000Y18000
X17000Y208000
X247000Y208000
X247000Y18000
M30
