G75*
%MOIN*%
%OFA0B0*%
%FSLAX25Y25*%
%IPPOS*%
%LPD*%
%AMOC8*
5,1,8,0,0,1.08239X$1,22.5*
%
%ADD10C,0.00000*%
D10*
X0002000Y0003000D02*
X0002000Y0221701D01*
X0266921Y0221701D01*
X0266921Y0003000D01*
X0002000Y0003000D01*
X0011094Y0018000D02*
X0011096Y0018153D01*
X0011102Y0018307D01*
X0011112Y0018460D01*
X0011126Y0018612D01*
X0011144Y0018765D01*
X0011166Y0018916D01*
X0011191Y0019067D01*
X0011221Y0019218D01*
X0011255Y0019368D01*
X0011292Y0019516D01*
X0011333Y0019664D01*
X0011378Y0019810D01*
X0011427Y0019956D01*
X0011480Y0020100D01*
X0011536Y0020242D01*
X0011596Y0020383D01*
X0011660Y0020523D01*
X0011727Y0020661D01*
X0011798Y0020797D01*
X0011873Y0020931D01*
X0011950Y0021063D01*
X0012032Y0021193D01*
X0012116Y0021321D01*
X0012204Y0021447D01*
X0012295Y0021570D01*
X0012389Y0021691D01*
X0012487Y0021809D01*
X0012587Y0021925D01*
X0012691Y0022038D01*
X0012797Y0022149D01*
X0012906Y0022257D01*
X0013018Y0022362D01*
X0013132Y0022463D01*
X0013250Y0022562D01*
X0013369Y0022658D01*
X0013491Y0022751D01*
X0013616Y0022840D01*
X0013743Y0022927D01*
X0013872Y0023009D01*
X0014003Y0023089D01*
X0014136Y0023165D01*
X0014271Y0023238D01*
X0014408Y0023307D01*
X0014547Y0023372D01*
X0014687Y0023434D01*
X0014829Y0023492D01*
X0014972Y0023547D01*
X0015117Y0023598D01*
X0015263Y0023645D01*
X0015410Y0023688D01*
X0015558Y0023727D01*
X0015707Y0023763D01*
X0015857Y0023794D01*
X0016008Y0023822D01*
X0016159Y0023846D01*
X0016312Y0023866D01*
X0016464Y0023882D01*
X0016617Y0023894D01*
X0016770Y0023902D01*
X0016923Y0023906D01*
X0017077Y0023906D01*
X0017230Y0023902D01*
X0017383Y0023894D01*
X0017536Y0023882D01*
X0017688Y0023866D01*
X0017841Y0023846D01*
X0017992Y0023822D01*
X0018143Y0023794D01*
X0018293Y0023763D01*
X0018442Y0023727D01*
X0018590Y0023688D01*
X0018737Y0023645D01*
X0018883Y0023598D01*
X0019028Y0023547D01*
X0019171Y0023492D01*
X0019313Y0023434D01*
X0019453Y0023372D01*
X0019592Y0023307D01*
X0019729Y0023238D01*
X0019864Y0023165D01*
X0019997Y0023089D01*
X0020128Y0023009D01*
X0020257Y0022927D01*
X0020384Y0022840D01*
X0020509Y0022751D01*
X0020631Y0022658D01*
X0020750Y0022562D01*
X0020868Y0022463D01*
X0020982Y0022362D01*
X0021094Y0022257D01*
X0021203Y0022149D01*
X0021309Y0022038D01*
X0021413Y0021925D01*
X0021513Y0021809D01*
X0021611Y0021691D01*
X0021705Y0021570D01*
X0021796Y0021447D01*
X0021884Y0021321D01*
X0021968Y0021193D01*
X0022050Y0021063D01*
X0022127Y0020931D01*
X0022202Y0020797D01*
X0022273Y0020661D01*
X0022340Y0020523D01*
X0022404Y0020383D01*
X0022464Y0020242D01*
X0022520Y0020100D01*
X0022573Y0019956D01*
X0022622Y0019810D01*
X0022667Y0019664D01*
X0022708Y0019516D01*
X0022745Y0019368D01*
X0022779Y0019218D01*
X0022809Y0019067D01*
X0022834Y0018916D01*
X0022856Y0018765D01*
X0022874Y0018612D01*
X0022888Y0018460D01*
X0022898Y0018307D01*
X0022904Y0018153D01*
X0022906Y0018000D01*
X0022904Y0017847D01*
X0022898Y0017693D01*
X0022888Y0017540D01*
X0022874Y0017388D01*
X0022856Y0017235D01*
X0022834Y0017084D01*
X0022809Y0016933D01*
X0022779Y0016782D01*
X0022745Y0016632D01*
X0022708Y0016484D01*
X0022667Y0016336D01*
X0022622Y0016190D01*
X0022573Y0016044D01*
X0022520Y0015900D01*
X0022464Y0015758D01*
X0022404Y0015617D01*
X0022340Y0015477D01*
X0022273Y0015339D01*
X0022202Y0015203D01*
X0022127Y0015069D01*
X0022050Y0014937D01*
X0021968Y0014807D01*
X0021884Y0014679D01*
X0021796Y0014553D01*
X0021705Y0014430D01*
X0021611Y0014309D01*
X0021513Y0014191D01*
X0021413Y0014075D01*
X0021309Y0013962D01*
X0021203Y0013851D01*
X0021094Y0013743D01*
X0020982Y0013638D01*
X0020868Y0013537D01*
X0020750Y0013438D01*
X0020631Y0013342D01*
X0020509Y0013249D01*
X0020384Y0013160D01*
X0020257Y0013073D01*
X0020128Y0012991D01*
X0019997Y0012911D01*
X0019864Y0012835D01*
X0019729Y0012762D01*
X0019592Y0012693D01*
X0019453Y0012628D01*
X0019313Y0012566D01*
X0019171Y0012508D01*
X0019028Y0012453D01*
X0018883Y0012402D01*
X0018737Y0012355D01*
X0018590Y0012312D01*
X0018442Y0012273D01*
X0018293Y0012237D01*
X0018143Y0012206D01*
X0017992Y0012178D01*
X0017841Y0012154D01*
X0017688Y0012134D01*
X0017536Y0012118D01*
X0017383Y0012106D01*
X0017230Y0012098D01*
X0017077Y0012094D01*
X0016923Y0012094D01*
X0016770Y0012098D01*
X0016617Y0012106D01*
X0016464Y0012118D01*
X0016312Y0012134D01*
X0016159Y0012154D01*
X0016008Y0012178D01*
X0015857Y0012206D01*
X0015707Y0012237D01*
X0015558Y0012273D01*
X0015410Y0012312D01*
X0015263Y0012355D01*
X0015117Y0012402D01*
X0014972Y0012453D01*
X0014829Y0012508D01*
X0014687Y0012566D01*
X0014547Y0012628D01*
X0014408Y0012693D01*
X0014271Y0012762D01*
X0014136Y0012835D01*
X0014003Y0012911D01*
X0013872Y0012991D01*
X0013743Y0013073D01*
X0013616Y0013160D01*
X0013491Y0013249D01*
X0013369Y0013342D01*
X0013250Y0013438D01*
X0013132Y0013537D01*
X0013018Y0013638D01*
X0012906Y0013743D01*
X0012797Y0013851D01*
X0012691Y0013962D01*
X0012587Y0014075D01*
X0012487Y0014191D01*
X0012389Y0014309D01*
X0012295Y0014430D01*
X0012204Y0014553D01*
X0012116Y0014679D01*
X0012032Y0014807D01*
X0011950Y0014937D01*
X0011873Y0015069D01*
X0011798Y0015203D01*
X0011727Y0015339D01*
X0011660Y0015477D01*
X0011596Y0015617D01*
X0011536Y0015758D01*
X0011480Y0015900D01*
X0011427Y0016044D01*
X0011378Y0016190D01*
X0011333Y0016336D01*
X0011292Y0016484D01*
X0011255Y0016632D01*
X0011221Y0016782D01*
X0011191Y0016933D01*
X0011166Y0017084D01*
X0011144Y0017235D01*
X0011126Y0017388D01*
X0011112Y0017540D01*
X0011102Y0017693D01*
X0011096Y0017847D01*
X0011094Y0018000D01*
X0241094Y0018000D02*
X0241096Y0018153D01*
X0241102Y0018307D01*
X0241112Y0018460D01*
X0241126Y0018612D01*
X0241144Y0018765D01*
X0241166Y0018916D01*
X0241191Y0019067D01*
X0241221Y0019218D01*
X0241255Y0019368D01*
X0241292Y0019516D01*
X0241333Y0019664D01*
X0241378Y0019810D01*
X0241427Y0019956D01*
X0241480Y0020100D01*
X0241536Y0020242D01*
X0241596Y0020383D01*
X0241660Y0020523D01*
X0241727Y0020661D01*
X0241798Y0020797D01*
X0241873Y0020931D01*
X0241950Y0021063D01*
X0242032Y0021193D01*
X0242116Y0021321D01*
X0242204Y0021447D01*
X0242295Y0021570D01*
X0242389Y0021691D01*
X0242487Y0021809D01*
X0242587Y0021925D01*
X0242691Y0022038D01*
X0242797Y0022149D01*
X0242906Y0022257D01*
X0243018Y0022362D01*
X0243132Y0022463D01*
X0243250Y0022562D01*
X0243369Y0022658D01*
X0243491Y0022751D01*
X0243616Y0022840D01*
X0243743Y0022927D01*
X0243872Y0023009D01*
X0244003Y0023089D01*
X0244136Y0023165D01*
X0244271Y0023238D01*
X0244408Y0023307D01*
X0244547Y0023372D01*
X0244687Y0023434D01*
X0244829Y0023492D01*
X0244972Y0023547D01*
X0245117Y0023598D01*
X0245263Y0023645D01*
X0245410Y0023688D01*
X0245558Y0023727D01*
X0245707Y0023763D01*
X0245857Y0023794D01*
X0246008Y0023822D01*
X0246159Y0023846D01*
X0246312Y0023866D01*
X0246464Y0023882D01*
X0246617Y0023894D01*
X0246770Y0023902D01*
X0246923Y0023906D01*
X0247077Y0023906D01*
X0247230Y0023902D01*
X0247383Y0023894D01*
X0247536Y0023882D01*
X0247688Y0023866D01*
X0247841Y0023846D01*
X0247992Y0023822D01*
X0248143Y0023794D01*
X0248293Y0023763D01*
X0248442Y0023727D01*
X0248590Y0023688D01*
X0248737Y0023645D01*
X0248883Y0023598D01*
X0249028Y0023547D01*
X0249171Y0023492D01*
X0249313Y0023434D01*
X0249453Y0023372D01*
X0249592Y0023307D01*
X0249729Y0023238D01*
X0249864Y0023165D01*
X0249997Y0023089D01*
X0250128Y0023009D01*
X0250257Y0022927D01*
X0250384Y0022840D01*
X0250509Y0022751D01*
X0250631Y0022658D01*
X0250750Y0022562D01*
X0250868Y0022463D01*
X0250982Y0022362D01*
X0251094Y0022257D01*
X0251203Y0022149D01*
X0251309Y0022038D01*
X0251413Y0021925D01*
X0251513Y0021809D01*
X0251611Y0021691D01*
X0251705Y0021570D01*
X0251796Y0021447D01*
X0251884Y0021321D01*
X0251968Y0021193D01*
X0252050Y0021063D01*
X0252127Y0020931D01*
X0252202Y0020797D01*
X0252273Y0020661D01*
X0252340Y0020523D01*
X0252404Y0020383D01*
X0252464Y0020242D01*
X0252520Y0020100D01*
X0252573Y0019956D01*
X0252622Y0019810D01*
X0252667Y0019664D01*
X0252708Y0019516D01*
X0252745Y0019368D01*
X0252779Y0019218D01*
X0252809Y0019067D01*
X0252834Y0018916D01*
X0252856Y0018765D01*
X0252874Y0018612D01*
X0252888Y0018460D01*
X0252898Y0018307D01*
X0252904Y0018153D01*
X0252906Y0018000D01*
X0252904Y0017847D01*
X0252898Y0017693D01*
X0252888Y0017540D01*
X0252874Y0017388D01*
X0252856Y0017235D01*
X0252834Y0017084D01*
X0252809Y0016933D01*
X0252779Y0016782D01*
X0252745Y0016632D01*
X0252708Y0016484D01*
X0252667Y0016336D01*
X0252622Y0016190D01*
X0252573Y0016044D01*
X0252520Y0015900D01*
X0252464Y0015758D01*
X0252404Y0015617D01*
X0252340Y0015477D01*
X0252273Y0015339D01*
X0252202Y0015203D01*
X0252127Y0015069D01*
X0252050Y0014937D01*
X0251968Y0014807D01*
X0251884Y0014679D01*
X0251796Y0014553D01*
X0251705Y0014430D01*
X0251611Y0014309D01*
X0251513Y0014191D01*
X0251413Y0014075D01*
X0251309Y0013962D01*
X0251203Y0013851D01*
X0251094Y0013743D01*
X0250982Y0013638D01*
X0250868Y0013537D01*
X0250750Y0013438D01*
X0250631Y0013342D01*
X0250509Y0013249D01*
X0250384Y0013160D01*
X0250257Y0013073D01*
X0250128Y0012991D01*
X0249997Y0012911D01*
X0249864Y0012835D01*
X0249729Y0012762D01*
X0249592Y0012693D01*
X0249453Y0012628D01*
X0249313Y0012566D01*
X0249171Y0012508D01*
X0249028Y0012453D01*
X0248883Y0012402D01*
X0248737Y0012355D01*
X0248590Y0012312D01*
X0248442Y0012273D01*
X0248293Y0012237D01*
X0248143Y0012206D01*
X0247992Y0012178D01*
X0247841Y0012154D01*
X0247688Y0012134D01*
X0247536Y0012118D01*
X0247383Y0012106D01*
X0247230Y0012098D01*
X0247077Y0012094D01*
X0246923Y0012094D01*
X0246770Y0012098D01*
X0246617Y0012106D01*
X0246464Y0012118D01*
X0246312Y0012134D01*
X0246159Y0012154D01*
X0246008Y0012178D01*
X0245857Y0012206D01*
X0245707Y0012237D01*
X0245558Y0012273D01*
X0245410Y0012312D01*
X0245263Y0012355D01*
X0245117Y0012402D01*
X0244972Y0012453D01*
X0244829Y0012508D01*
X0244687Y0012566D01*
X0244547Y0012628D01*
X0244408Y0012693D01*
X0244271Y0012762D01*
X0244136Y0012835D01*
X0244003Y0012911D01*
X0243872Y0012991D01*
X0243743Y0013073D01*
X0243616Y0013160D01*
X0243491Y0013249D01*
X0243369Y0013342D01*
X0243250Y0013438D01*
X0243132Y0013537D01*
X0243018Y0013638D01*
X0242906Y0013743D01*
X0242797Y0013851D01*
X0242691Y0013962D01*
X0242587Y0014075D01*
X0242487Y0014191D01*
X0242389Y0014309D01*
X0242295Y0014430D01*
X0242204Y0014553D01*
X0242116Y0014679D01*
X0242032Y0014807D01*
X0241950Y0014937D01*
X0241873Y0015069D01*
X0241798Y0015203D01*
X0241727Y0015339D01*
X0241660Y0015477D01*
X0241596Y0015617D01*
X0241536Y0015758D01*
X0241480Y0015900D01*
X0241427Y0016044D01*
X0241378Y0016190D01*
X0241333Y0016336D01*
X0241292Y0016484D01*
X0241255Y0016632D01*
X0241221Y0016782D01*
X0241191Y0016933D01*
X0241166Y0017084D01*
X0241144Y0017235D01*
X0241126Y0017388D01*
X0241112Y0017540D01*
X0241102Y0017693D01*
X0241096Y0017847D01*
X0241094Y0018000D01*
X0241094Y0208000D02*
X0241096Y0208153D01*
X0241102Y0208307D01*
X0241112Y0208460D01*
X0241126Y0208612D01*
X0241144Y0208765D01*
X0241166Y0208916D01*
X0241191Y0209067D01*
X0241221Y0209218D01*
X0241255Y0209368D01*
X0241292Y0209516D01*
X0241333Y0209664D01*
X0241378Y0209810D01*
X0241427Y0209956D01*
X0241480Y0210100D01*
X0241536Y0210242D01*
X0241596Y0210383D01*
X0241660Y0210523D01*
X0241727Y0210661D01*
X0241798Y0210797D01*
X0241873Y0210931D01*
X0241950Y0211063D01*
X0242032Y0211193D01*
X0242116Y0211321D01*
X0242204Y0211447D01*
X0242295Y0211570D01*
X0242389Y0211691D01*
X0242487Y0211809D01*
X0242587Y0211925D01*
X0242691Y0212038D01*
X0242797Y0212149D01*
X0242906Y0212257D01*
X0243018Y0212362D01*
X0243132Y0212463D01*
X0243250Y0212562D01*
X0243369Y0212658D01*
X0243491Y0212751D01*
X0243616Y0212840D01*
X0243743Y0212927D01*
X0243872Y0213009D01*
X0244003Y0213089D01*
X0244136Y0213165D01*
X0244271Y0213238D01*
X0244408Y0213307D01*
X0244547Y0213372D01*
X0244687Y0213434D01*
X0244829Y0213492D01*
X0244972Y0213547D01*
X0245117Y0213598D01*
X0245263Y0213645D01*
X0245410Y0213688D01*
X0245558Y0213727D01*
X0245707Y0213763D01*
X0245857Y0213794D01*
X0246008Y0213822D01*
X0246159Y0213846D01*
X0246312Y0213866D01*
X0246464Y0213882D01*
X0246617Y0213894D01*
X0246770Y0213902D01*
X0246923Y0213906D01*
X0247077Y0213906D01*
X0247230Y0213902D01*
X0247383Y0213894D01*
X0247536Y0213882D01*
X0247688Y0213866D01*
X0247841Y0213846D01*
X0247992Y0213822D01*
X0248143Y0213794D01*
X0248293Y0213763D01*
X0248442Y0213727D01*
X0248590Y0213688D01*
X0248737Y0213645D01*
X0248883Y0213598D01*
X0249028Y0213547D01*
X0249171Y0213492D01*
X0249313Y0213434D01*
X0249453Y0213372D01*
X0249592Y0213307D01*
X0249729Y0213238D01*
X0249864Y0213165D01*
X0249997Y0213089D01*
X0250128Y0213009D01*
X0250257Y0212927D01*
X0250384Y0212840D01*
X0250509Y0212751D01*
X0250631Y0212658D01*
X0250750Y0212562D01*
X0250868Y0212463D01*
X0250982Y0212362D01*
X0251094Y0212257D01*
X0251203Y0212149D01*
X0251309Y0212038D01*
X0251413Y0211925D01*
X0251513Y0211809D01*
X0251611Y0211691D01*
X0251705Y0211570D01*
X0251796Y0211447D01*
X0251884Y0211321D01*
X0251968Y0211193D01*
X0252050Y0211063D01*
X0252127Y0210931D01*
X0252202Y0210797D01*
X0252273Y0210661D01*
X0252340Y0210523D01*
X0252404Y0210383D01*
X0252464Y0210242D01*
X0252520Y0210100D01*
X0252573Y0209956D01*
X0252622Y0209810D01*
X0252667Y0209664D01*
X0252708Y0209516D01*
X0252745Y0209368D01*
X0252779Y0209218D01*
X0252809Y0209067D01*
X0252834Y0208916D01*
X0252856Y0208765D01*
X0252874Y0208612D01*
X0252888Y0208460D01*
X0252898Y0208307D01*
X0252904Y0208153D01*
X0252906Y0208000D01*
X0252904Y0207847D01*
X0252898Y0207693D01*
X0252888Y0207540D01*
X0252874Y0207388D01*
X0252856Y0207235D01*
X0252834Y0207084D01*
X0252809Y0206933D01*
X0252779Y0206782D01*
X0252745Y0206632D01*
X0252708Y0206484D01*
X0252667Y0206336D01*
X0252622Y0206190D01*
X0252573Y0206044D01*
X0252520Y0205900D01*
X0252464Y0205758D01*
X0252404Y0205617D01*
X0252340Y0205477D01*
X0252273Y0205339D01*
X0252202Y0205203D01*
X0252127Y0205069D01*
X0252050Y0204937D01*
X0251968Y0204807D01*
X0251884Y0204679D01*
X0251796Y0204553D01*
X0251705Y0204430D01*
X0251611Y0204309D01*
X0251513Y0204191D01*
X0251413Y0204075D01*
X0251309Y0203962D01*
X0251203Y0203851D01*
X0251094Y0203743D01*
X0250982Y0203638D01*
X0250868Y0203537D01*
X0250750Y0203438D01*
X0250631Y0203342D01*
X0250509Y0203249D01*
X0250384Y0203160D01*
X0250257Y0203073D01*
X0250128Y0202991D01*
X0249997Y0202911D01*
X0249864Y0202835D01*
X0249729Y0202762D01*
X0249592Y0202693D01*
X0249453Y0202628D01*
X0249313Y0202566D01*
X0249171Y0202508D01*
X0249028Y0202453D01*
X0248883Y0202402D01*
X0248737Y0202355D01*
X0248590Y0202312D01*
X0248442Y0202273D01*
X0248293Y0202237D01*
X0248143Y0202206D01*
X0247992Y0202178D01*
X0247841Y0202154D01*
X0247688Y0202134D01*
X0247536Y0202118D01*
X0247383Y0202106D01*
X0247230Y0202098D01*
X0247077Y0202094D01*
X0246923Y0202094D01*
X0246770Y0202098D01*
X0246617Y0202106D01*
X0246464Y0202118D01*
X0246312Y0202134D01*
X0246159Y0202154D01*
X0246008Y0202178D01*
X0245857Y0202206D01*
X0245707Y0202237D01*
X0245558Y0202273D01*
X0245410Y0202312D01*
X0245263Y0202355D01*
X0245117Y0202402D01*
X0244972Y0202453D01*
X0244829Y0202508D01*
X0244687Y0202566D01*
X0244547Y0202628D01*
X0244408Y0202693D01*
X0244271Y0202762D01*
X0244136Y0202835D01*
X0244003Y0202911D01*
X0243872Y0202991D01*
X0243743Y0203073D01*
X0243616Y0203160D01*
X0243491Y0203249D01*
X0243369Y0203342D01*
X0243250Y0203438D01*
X0243132Y0203537D01*
X0243018Y0203638D01*
X0242906Y0203743D01*
X0242797Y0203851D01*
X0242691Y0203962D01*
X0242587Y0204075D01*
X0242487Y0204191D01*
X0242389Y0204309D01*
X0242295Y0204430D01*
X0242204Y0204553D01*
X0242116Y0204679D01*
X0242032Y0204807D01*
X0241950Y0204937D01*
X0241873Y0205069D01*
X0241798Y0205203D01*
X0241727Y0205339D01*
X0241660Y0205477D01*
X0241596Y0205617D01*
X0241536Y0205758D01*
X0241480Y0205900D01*
X0241427Y0206044D01*
X0241378Y0206190D01*
X0241333Y0206336D01*
X0241292Y0206484D01*
X0241255Y0206632D01*
X0241221Y0206782D01*
X0241191Y0206933D01*
X0241166Y0207084D01*
X0241144Y0207235D01*
X0241126Y0207388D01*
X0241112Y0207540D01*
X0241102Y0207693D01*
X0241096Y0207847D01*
X0241094Y0208000D01*
X0011094Y0208000D02*
X0011096Y0208153D01*
X0011102Y0208307D01*
X0011112Y0208460D01*
X0011126Y0208612D01*
X0011144Y0208765D01*
X0011166Y0208916D01*
X0011191Y0209067D01*
X0011221Y0209218D01*
X0011255Y0209368D01*
X0011292Y0209516D01*
X0011333Y0209664D01*
X0011378Y0209810D01*
X0011427Y0209956D01*
X0011480Y0210100D01*
X0011536Y0210242D01*
X0011596Y0210383D01*
X0011660Y0210523D01*
X0011727Y0210661D01*
X0011798Y0210797D01*
X0011873Y0210931D01*
X0011950Y0211063D01*
X0012032Y0211193D01*
X0012116Y0211321D01*
X0012204Y0211447D01*
X0012295Y0211570D01*
X0012389Y0211691D01*
X0012487Y0211809D01*
X0012587Y0211925D01*
X0012691Y0212038D01*
X0012797Y0212149D01*
X0012906Y0212257D01*
X0013018Y0212362D01*
X0013132Y0212463D01*
X0013250Y0212562D01*
X0013369Y0212658D01*
X0013491Y0212751D01*
X0013616Y0212840D01*
X0013743Y0212927D01*
X0013872Y0213009D01*
X0014003Y0213089D01*
X0014136Y0213165D01*
X0014271Y0213238D01*
X0014408Y0213307D01*
X0014547Y0213372D01*
X0014687Y0213434D01*
X0014829Y0213492D01*
X0014972Y0213547D01*
X0015117Y0213598D01*
X0015263Y0213645D01*
X0015410Y0213688D01*
X0015558Y0213727D01*
X0015707Y0213763D01*
X0015857Y0213794D01*
X0016008Y0213822D01*
X0016159Y0213846D01*
X0016312Y0213866D01*
X0016464Y0213882D01*
X0016617Y0213894D01*
X0016770Y0213902D01*
X0016923Y0213906D01*
X0017077Y0213906D01*
X0017230Y0213902D01*
X0017383Y0213894D01*
X0017536Y0213882D01*
X0017688Y0213866D01*
X0017841Y0213846D01*
X0017992Y0213822D01*
X0018143Y0213794D01*
X0018293Y0213763D01*
X0018442Y0213727D01*
X0018590Y0213688D01*
X0018737Y0213645D01*
X0018883Y0213598D01*
X0019028Y0213547D01*
X0019171Y0213492D01*
X0019313Y0213434D01*
X0019453Y0213372D01*
X0019592Y0213307D01*
X0019729Y0213238D01*
X0019864Y0213165D01*
X0019997Y0213089D01*
X0020128Y0213009D01*
X0020257Y0212927D01*
X0020384Y0212840D01*
X0020509Y0212751D01*
X0020631Y0212658D01*
X0020750Y0212562D01*
X0020868Y0212463D01*
X0020982Y0212362D01*
X0021094Y0212257D01*
X0021203Y0212149D01*
X0021309Y0212038D01*
X0021413Y0211925D01*
X0021513Y0211809D01*
X0021611Y0211691D01*
X0021705Y0211570D01*
X0021796Y0211447D01*
X0021884Y0211321D01*
X0021968Y0211193D01*
X0022050Y0211063D01*
X0022127Y0210931D01*
X0022202Y0210797D01*
X0022273Y0210661D01*
X0022340Y0210523D01*
X0022404Y0210383D01*
X0022464Y0210242D01*
X0022520Y0210100D01*
X0022573Y0209956D01*
X0022622Y0209810D01*
X0022667Y0209664D01*
X0022708Y0209516D01*
X0022745Y0209368D01*
X0022779Y0209218D01*
X0022809Y0209067D01*
X0022834Y0208916D01*
X0022856Y0208765D01*
X0022874Y0208612D01*
X0022888Y0208460D01*
X0022898Y0208307D01*
X0022904Y0208153D01*
X0022906Y0208000D01*
X0022904Y0207847D01*
X0022898Y0207693D01*
X0022888Y0207540D01*
X0022874Y0207388D01*
X0022856Y0207235D01*
X0022834Y0207084D01*
X0022809Y0206933D01*
X0022779Y0206782D01*
X0022745Y0206632D01*
X0022708Y0206484D01*
X0022667Y0206336D01*
X0022622Y0206190D01*
X0022573Y0206044D01*
X0022520Y0205900D01*
X0022464Y0205758D01*
X0022404Y0205617D01*
X0022340Y0205477D01*
X0022273Y0205339D01*
X0022202Y0205203D01*
X0022127Y0205069D01*
X0022050Y0204937D01*
X0021968Y0204807D01*
X0021884Y0204679D01*
X0021796Y0204553D01*
X0021705Y0204430D01*
X0021611Y0204309D01*
X0021513Y0204191D01*
X0021413Y0204075D01*
X0021309Y0203962D01*
X0021203Y0203851D01*
X0021094Y0203743D01*
X0020982Y0203638D01*
X0020868Y0203537D01*
X0020750Y0203438D01*
X0020631Y0203342D01*
X0020509Y0203249D01*
X0020384Y0203160D01*
X0020257Y0203073D01*
X0020128Y0202991D01*
X0019997Y0202911D01*
X0019864Y0202835D01*
X0019729Y0202762D01*
X0019592Y0202693D01*
X0019453Y0202628D01*
X0019313Y0202566D01*
X0019171Y0202508D01*
X0019028Y0202453D01*
X0018883Y0202402D01*
X0018737Y0202355D01*
X0018590Y0202312D01*
X0018442Y0202273D01*
X0018293Y0202237D01*
X0018143Y0202206D01*
X0017992Y0202178D01*
X0017841Y0202154D01*
X0017688Y0202134D01*
X0017536Y0202118D01*
X0017383Y0202106D01*
X0017230Y0202098D01*
X0017077Y0202094D01*
X0016923Y0202094D01*
X0016770Y0202098D01*
X0016617Y0202106D01*
X0016464Y0202118D01*
X0016312Y0202134D01*
X0016159Y0202154D01*
X0016008Y0202178D01*
X0015857Y0202206D01*
X0015707Y0202237D01*
X0015558Y0202273D01*
X0015410Y0202312D01*
X0015263Y0202355D01*
X0015117Y0202402D01*
X0014972Y0202453D01*
X0014829Y0202508D01*
X0014687Y0202566D01*
X0014547Y0202628D01*
X0014408Y0202693D01*
X0014271Y0202762D01*
X0014136Y0202835D01*
X0014003Y0202911D01*
X0013872Y0202991D01*
X0013743Y0203073D01*
X0013616Y0203160D01*
X0013491Y0203249D01*
X0013369Y0203342D01*
X0013250Y0203438D01*
X0013132Y0203537D01*
X0013018Y0203638D01*
X0012906Y0203743D01*
X0012797Y0203851D01*
X0012691Y0203962D01*
X0012587Y0204075D01*
X0012487Y0204191D01*
X0012389Y0204309D01*
X0012295Y0204430D01*
X0012204Y0204553D01*
X0012116Y0204679D01*
X0012032Y0204807D01*
X0011950Y0204937D01*
X0011873Y0205069D01*
X0011798Y0205203D01*
X0011727Y0205339D01*
X0011660Y0205477D01*
X0011596Y0205617D01*
X0011536Y0205758D01*
X0011480Y0205900D01*
X0011427Y0206044D01*
X0011378Y0206190D01*
X0011333Y0206336D01*
X0011292Y0206484D01*
X0011255Y0206632D01*
X0011221Y0206782D01*
X0011191Y0206933D01*
X0011166Y0207084D01*
X0011144Y0207235D01*
X0011126Y0207388D01*
X0011112Y0207540D01*
X0011102Y0207693D01*
X0011096Y0207847D01*
X0011094Y0208000D01*
M02*
