G75*
%MOIN*%
%OFA0B0*%
%FSLAX25Y25*%
%IPPOS*%
%LPD*%
%AMOC8*
5,1,8,0,0,1.08239X$1,22.5*
%
%ADD10C,0.01100*%
%ADD11C,0.07400*%
%ADD12C,0.06200*%
%ADD13C,0.06500*%
%ADD14R,0.06500X0.06500*%
%ADD15C,0.06600*%
%ADD16C,0.05200*%
%ADD17R,0.05315X0.01575*%
%ADD18R,0.07087X0.07087*%
%ADD19R,0.05118X0.09055*%
%ADD20R,0.06299X0.06299*%
%ADD21C,0.06000*%
%ADD22R,0.06000X0.06000*%
%ADD23OC8,0.05200*%
%ADD24OC8,0.06000*%
%ADD25C,0.01000*%
%ADD26C,0.01600*%
%ADD27C,0.02000*%
%ADD28C,0.03600*%
D10*
X0015190Y0106975D02*
X0014206Y0107959D01*
X0014206Y0110912D01*
X0016175Y0109928D02*
X0016175Y0107959D01*
X0015190Y0106975D01*
X0018143Y0106975D02*
X0018143Y0109928D01*
X0017159Y0110912D01*
X0016175Y0109928D01*
X0017159Y0113421D02*
X0016175Y0114405D01*
X0016175Y0117357D01*
X0015190Y0117357D02*
X0018143Y0117357D01*
X0018143Y0114405D01*
X0017159Y0113421D01*
X0014206Y0114405D02*
X0014206Y0116373D01*
X0015190Y0117357D01*
X0014206Y0119866D02*
X0014206Y0122819D01*
X0015190Y0123803D01*
X0018143Y0123803D01*
X0017159Y0126312D02*
X0018143Y0127296D01*
X0018143Y0130248D01*
X0019127Y0130248D02*
X0014206Y0130248D01*
X0014206Y0127296D01*
X0015190Y0126312D01*
X0017159Y0126312D01*
X0020111Y0128280D02*
X0020111Y0129264D01*
X0019127Y0130248D01*
X0017159Y0132757D02*
X0016175Y0133741D01*
X0016175Y0136694D01*
X0015190Y0136694D02*
X0018143Y0136694D01*
X0018143Y0133741D01*
X0017159Y0132757D01*
X0014206Y0133741D02*
X0014206Y0135710D01*
X0015190Y0136694D01*
X0014206Y0139203D02*
X0014206Y0142155D01*
X0015190Y0143139D01*
X0017159Y0143139D01*
X0018143Y0142155D01*
X0018143Y0139203D01*
X0012238Y0139203D01*
X0015190Y0145648D02*
X0017159Y0145648D01*
X0018143Y0146632D01*
X0018143Y0148601D01*
X0017159Y0149585D01*
X0015190Y0149585D01*
X0014206Y0148601D01*
X0014206Y0146632D01*
X0015190Y0145648D01*
X0017159Y0152094D02*
X0016175Y0153078D01*
X0016175Y0156030D01*
X0015190Y0156030D02*
X0018143Y0156030D01*
X0018143Y0153078D01*
X0017159Y0152094D01*
X0014206Y0153078D02*
X0014206Y0155046D01*
X0015190Y0156030D01*
X0014206Y0158539D02*
X0018143Y0158539D01*
X0016175Y0158539D02*
X0014206Y0160508D01*
X0014206Y0161492D01*
X0015190Y0163910D02*
X0014206Y0164895D01*
X0014206Y0167847D01*
X0012238Y0167847D02*
X0018143Y0167847D01*
X0018143Y0164895D01*
X0017159Y0163910D01*
X0015190Y0163910D01*
X0019127Y0170356D02*
X0019127Y0174293D01*
X0018143Y0178770D02*
X0014206Y0180738D01*
X0013222Y0183247D02*
X0012238Y0184231D01*
X0012238Y0186199D01*
X0013222Y0187184D01*
X0017159Y0183247D01*
X0018143Y0184231D01*
X0018143Y0186199D01*
X0017159Y0187184D01*
X0013222Y0187184D01*
X0017159Y0189692D02*
X0017159Y0190677D01*
X0018143Y0190677D01*
X0018143Y0189692D01*
X0017159Y0189692D01*
X0018143Y0192915D02*
X0014206Y0196852D01*
X0013222Y0196852D01*
X0012238Y0195868D01*
X0012238Y0193899D01*
X0013222Y0192915D01*
X0018143Y0192915D02*
X0018143Y0196852D01*
X0017159Y0183247D02*
X0013222Y0183247D01*
X0014206Y0176801D02*
X0018143Y0178770D01*
X0018143Y0119866D02*
X0014206Y0119866D01*
X0154125Y0015046D02*
X0154125Y0012093D01*
X0155109Y0011109D01*
X0156093Y0012093D01*
X0157077Y0011109D01*
X0158061Y0012093D01*
X0158061Y0015046D01*
X0160570Y0015046D02*
X0160570Y0012093D01*
X0161554Y0011109D01*
X0162539Y0012093D01*
X0163523Y0011109D01*
X0164507Y0012093D01*
X0164507Y0015046D01*
X0167016Y0015046D02*
X0167016Y0012093D01*
X0168000Y0011109D01*
X0168984Y0012093D01*
X0169968Y0011109D01*
X0170952Y0012093D01*
X0170952Y0015046D01*
X0173461Y0012093D02*
X0174445Y0012093D01*
X0174445Y0011109D01*
X0173461Y0011109D01*
X0173461Y0012093D01*
X0176684Y0011109D02*
X0179637Y0011109D01*
X0180621Y0012093D01*
X0179637Y0013077D01*
X0177668Y0013077D01*
X0176684Y0014062D01*
X0177668Y0015046D01*
X0180621Y0015046D01*
X0183130Y0015046D02*
X0185098Y0015046D01*
X0184114Y0016030D02*
X0184114Y0012093D01*
X0185098Y0011109D01*
X0187427Y0011109D02*
X0189395Y0011109D01*
X0188411Y0011109D02*
X0188411Y0015046D01*
X0187427Y0015046D01*
X0188411Y0017014D02*
X0188411Y0017998D01*
X0191724Y0014062D02*
X0191724Y0012093D01*
X0192708Y0011109D01*
X0195660Y0011109D01*
X0198169Y0012093D02*
X0199153Y0013077D01*
X0202106Y0013077D01*
X0202106Y0014062D02*
X0201122Y0015046D01*
X0199153Y0015046D01*
X0198169Y0012093D02*
X0199153Y0011109D01*
X0202106Y0011109D01*
X0202106Y0014062D01*
X0204615Y0015046D02*
X0207567Y0015046D01*
X0208551Y0014062D01*
X0208551Y0012093D01*
X0207567Y0011109D01*
X0204615Y0011109D01*
X0204615Y0017014D01*
X0211060Y0012093D02*
X0211060Y0011109D01*
X0212044Y0011109D01*
X0212044Y0012093D01*
X0211060Y0012093D01*
X0214283Y0012093D02*
X0215267Y0011109D01*
X0218219Y0011109D01*
X0220728Y0012093D02*
X0221712Y0011109D01*
X0223681Y0011109D01*
X0224665Y0012093D01*
X0224665Y0014062D01*
X0223681Y0015046D01*
X0221712Y0015046D01*
X0220728Y0014062D01*
X0220728Y0012093D01*
X0218219Y0015046D02*
X0215267Y0015046D01*
X0214283Y0014062D01*
X0214283Y0012093D01*
X0227174Y0012093D02*
X0227174Y0011109D01*
X0228158Y0011109D01*
X0228158Y0012093D01*
X0227174Y0012093D01*
X0231381Y0012093D02*
X0232365Y0011109D01*
X0231381Y0012093D02*
X0231381Y0016030D01*
X0230397Y0015046D02*
X0232365Y0015046D01*
X0234694Y0015046D02*
X0238630Y0015046D01*
X0234694Y0011109D01*
X0238630Y0011109D01*
X0195660Y0015046D02*
X0192708Y0015046D01*
X0191724Y0014062D01*
D11*
X0227000Y0048000D03*
X0237000Y0048000D03*
X0127000Y0033000D03*
X0117000Y0033000D03*
X0107000Y0033000D03*
X0107000Y0023000D03*
X0117000Y0023000D03*
X0127000Y0023000D03*
X0127000Y0013000D03*
X0117000Y0013000D03*
X0107000Y0013000D03*
X0097000Y0013000D03*
X0087000Y0013000D03*
X0077000Y0013000D03*
X0077000Y0023000D03*
X0077000Y0033000D03*
X0087000Y0033000D03*
X0097000Y0033000D03*
X0097000Y0023000D03*
X0087000Y0023000D03*
X0052000Y0023000D03*
X0052000Y0033000D03*
X0052000Y0013000D03*
D12*
X0047000Y0049900D02*
X0047000Y0056100D01*
X0057000Y0056100D02*
X0057000Y0049900D01*
X0067000Y0049900D02*
X0067000Y0056100D01*
X0077000Y0056100D02*
X0077000Y0049900D01*
X0087000Y0049900D02*
X0087000Y0056100D01*
X0097000Y0056100D02*
X0097000Y0049900D01*
X0107000Y0049900D02*
X0107000Y0056100D01*
X0117000Y0056100D02*
X0117000Y0049900D01*
X0127000Y0049900D02*
X0127000Y0056100D01*
X0137000Y0056100D02*
X0137000Y0049900D01*
X0147000Y0049900D02*
X0147000Y0056100D01*
X0157000Y0056100D02*
X0157000Y0049900D01*
X0167000Y0049900D02*
X0167000Y0056100D01*
X0177000Y0056100D02*
X0177000Y0049900D01*
X0187000Y0049900D02*
X0187000Y0056100D01*
X0187000Y0109900D02*
X0187000Y0116100D01*
X0177000Y0116100D02*
X0177000Y0109900D01*
X0167000Y0109900D02*
X0167000Y0116100D01*
X0157000Y0116100D02*
X0157000Y0109900D01*
X0147000Y0109900D02*
X0147000Y0116100D01*
X0137000Y0116100D02*
X0137000Y0109900D01*
X0127000Y0109900D02*
X0127000Y0116100D01*
X0117000Y0116100D02*
X0117000Y0109900D01*
X0107000Y0109900D02*
X0107000Y0116100D01*
X0097000Y0116100D02*
X0097000Y0109900D01*
X0087000Y0109900D02*
X0087000Y0116100D01*
X0077000Y0116100D02*
X0077000Y0109900D01*
X0067000Y0109900D02*
X0067000Y0116100D01*
X0057000Y0116100D02*
X0057000Y0109900D01*
X0047000Y0109900D02*
X0047000Y0116100D01*
D13*
X0217079Y0103000D03*
X0227000Y0078000D03*
X0237000Y0078000D03*
D14*
X0226921Y0103000D03*
D15*
X0212000Y0078000D03*
X0212000Y0038000D03*
D16*
X0187000Y0130400D02*
X0187000Y0135600D01*
X0177000Y0135600D02*
X0177000Y0130400D01*
X0167000Y0130400D02*
X0167000Y0135600D01*
X0157000Y0135600D02*
X0157000Y0130400D01*
X0147000Y0130400D02*
X0147000Y0135600D01*
X0137000Y0135600D02*
X0137000Y0130400D01*
X0127000Y0130400D02*
X0127000Y0135600D01*
X0117000Y0135600D02*
X0117000Y0130400D01*
X0102000Y0130400D02*
X0102000Y0135600D01*
X0092000Y0135600D02*
X0092000Y0130400D01*
X0082000Y0130400D02*
X0082000Y0135600D01*
X0072000Y0135600D02*
X0072000Y0130400D01*
X0062000Y0130400D02*
X0062000Y0135600D01*
X0052000Y0135600D02*
X0052000Y0130400D01*
X0042000Y0130400D02*
X0042000Y0135600D01*
X0032000Y0135600D02*
X0032000Y0130400D01*
X0032000Y0160400D02*
X0032000Y0165600D01*
X0042000Y0165600D02*
X0042000Y0160400D01*
X0052000Y0160400D02*
X0052000Y0165600D01*
X0062000Y0165600D02*
X0062000Y0160400D01*
X0072000Y0160400D02*
X0072000Y0165600D01*
X0082000Y0165600D02*
X0082000Y0160400D01*
X0092000Y0160400D02*
X0092000Y0165600D01*
X0102000Y0165600D02*
X0102000Y0160400D01*
X0117000Y0160400D02*
X0117000Y0165600D01*
X0127000Y0165600D02*
X0127000Y0160400D01*
X0137000Y0160400D02*
X0137000Y0165600D01*
X0147000Y0165600D02*
X0147000Y0160400D01*
X0157000Y0160400D02*
X0157000Y0165600D01*
X0167000Y0165600D02*
X0167000Y0160400D01*
X0177000Y0160400D02*
X0177000Y0165600D01*
X0187000Y0165600D02*
X0187000Y0160400D01*
D17*
X0245858Y0078118D03*
X0245858Y0075559D03*
X0245858Y0073000D03*
X0245858Y0070441D03*
X0245858Y0067882D03*
D18*
X0256291Y0068472D03*
X0256291Y0077528D03*
D19*
X0256291Y0087764D03*
X0256291Y0058236D03*
D20*
X0246705Y0060402D03*
X0246705Y0085598D03*
D21*
X0222000Y0185000D02*
X0222000Y0191000D01*
X0212000Y0191000D02*
X0212000Y0185000D01*
X0202000Y0185000D02*
X0202000Y0191000D01*
X0192000Y0191000D02*
X0192000Y0185000D01*
X0182000Y0185000D02*
X0182000Y0191000D01*
X0147000Y0191000D02*
X0147000Y0185000D01*
X0137000Y0185000D02*
X0137000Y0191000D01*
X0127000Y0191000D02*
X0127000Y0185000D01*
X0117000Y0185000D02*
X0117000Y0191000D01*
X0107000Y0191000D02*
X0107000Y0185000D01*
X0072000Y0185000D02*
X0072000Y0191000D01*
X0062000Y0191000D02*
X0062000Y0185000D01*
X0052000Y0185000D02*
X0052000Y0191000D01*
X0042000Y0191000D02*
X0042000Y0185000D01*
X0032000Y0185000D02*
X0032000Y0191000D01*
D22*
X0252000Y0128000D03*
X0252000Y0118000D03*
D23*
X0227000Y0023000D03*
X0187000Y0023000D03*
D24*
X0212000Y0133000D03*
X0222000Y0133000D03*
X0222000Y0143000D03*
X0212000Y0143000D03*
X0212000Y0153000D03*
X0222000Y0153000D03*
X0222000Y0163000D03*
X0212000Y0163000D03*
D25*
X0234412Y0007500D02*
X0029515Y0007500D01*
X0030633Y0008705D01*
X0030633Y0008705D01*
X0032767Y0013137D01*
X0033500Y0018000D01*
X0032767Y0022863D01*
X0032767Y0022863D01*
X0030633Y0027295D01*
X0027288Y0030900D01*
X0027288Y0030900D01*
X0023028Y0033359D01*
X0018233Y0034454D01*
X0013328Y0034086D01*
X0008750Y0032289D01*
X0006500Y0030495D01*
X0006500Y0195505D01*
X0008750Y0193711D01*
X0010961Y0192843D01*
X0011554Y0192249D01*
X0012539Y0191265D01*
X0013905Y0191265D01*
X0014469Y0191828D01*
X0015872Y0191723D01*
X0015509Y0191360D01*
X0015509Y0189009D01*
X0015684Y0188834D01*
X0012539Y0188834D01*
X0012482Y0188777D01*
X0011572Y0187867D01*
X0011554Y0187849D01*
X0010588Y0186883D01*
X0010588Y0183548D01*
X0011554Y0182581D01*
X0011554Y0182581D01*
X0011577Y0182558D01*
X0012539Y0181597D01*
X0012791Y0181597D01*
X0012425Y0180865D01*
X0012857Y0179568D01*
X0014453Y0178770D01*
X0012857Y0177972D01*
X0012425Y0176675D01*
X0013036Y0175452D01*
X0014333Y0175020D01*
X0018776Y0177242D01*
X0019313Y0177421D01*
X0019373Y0177540D01*
X0019492Y0177600D01*
X0019671Y0178137D01*
X0019924Y0178643D01*
X0019882Y0178770D01*
X0019924Y0178896D01*
X0019671Y0179403D01*
X0019492Y0179940D01*
X0019373Y0180000D01*
X0019313Y0180119D01*
X0018776Y0180298D01*
X0016178Y0181597D01*
X0017842Y0181597D01*
X0018809Y0182563D01*
X0018809Y0182563D01*
X0019793Y0183548D01*
X0019793Y0186883D01*
X0018826Y0187849D01*
X0018633Y0188042D01*
X0018826Y0188042D01*
X0019793Y0189009D01*
X0019793Y0191360D01*
X0019357Y0191796D01*
X0019366Y0191805D01*
X0023028Y0192641D01*
X0027288Y0195100D01*
X0030633Y0198705D01*
X0030633Y0198705D01*
X0032767Y0203137D01*
X0033500Y0208000D01*
X0032767Y0212863D01*
X0030678Y0217201D01*
X0233526Y0217201D01*
X0232134Y0215159D01*
X0230684Y0210459D01*
X0230684Y0205541D01*
X0232134Y0200841D01*
X0232134Y0200841D01*
X0234905Y0196777D01*
X0238750Y0193711D01*
X0243328Y0191914D01*
X0243328Y0191914D01*
X0248233Y0191546D01*
X0253028Y0192641D01*
X0257288Y0195100D01*
X0260633Y0198705D01*
X0260633Y0198705D01*
X0262421Y0202419D01*
X0262421Y0023581D01*
X0260633Y0027295D01*
X0257288Y0030900D01*
X0257288Y0030900D01*
X0253028Y0033359D01*
X0248233Y0034454D01*
X0243328Y0034086D01*
X0238750Y0032289D01*
X0234905Y0029223D01*
X0232134Y0025159D01*
X0230684Y0020459D01*
X0230684Y0017667D01*
X0229731Y0016713D01*
X0229731Y0016696D01*
X0229713Y0016696D01*
X0228747Y0015729D01*
X0228747Y0014362D01*
X0229713Y0013396D01*
X0229731Y0013396D01*
X0229731Y0012854D01*
X0228841Y0013743D01*
X0226490Y0013743D01*
X0226315Y0013568D01*
X0226315Y0014745D01*
X0225331Y0015729D01*
X0224364Y0016696D01*
X0221029Y0016696D01*
X0220045Y0015712D01*
X0219869Y0015536D01*
X0219869Y0015729D01*
X0218903Y0016696D01*
X0214583Y0016696D01*
X0213599Y0015712D01*
X0212633Y0014745D01*
X0212633Y0013743D01*
X0210377Y0013743D01*
X0210201Y0013568D01*
X0210201Y0014745D01*
X0209217Y0015729D01*
X0208251Y0016696D01*
X0206265Y0016696D01*
X0206265Y0017698D01*
X0205298Y0018664D01*
X0203931Y0018664D01*
X0202965Y0017698D01*
X0202965Y0015536D01*
X0202789Y0015712D01*
X0201805Y0016696D01*
X0198470Y0016696D01*
X0197503Y0015729D01*
X0197503Y0014362D01*
X0197804Y0014062D01*
X0197503Y0013761D01*
X0197480Y0013738D01*
X0196519Y0012777D01*
X0196519Y0012584D01*
X0196344Y0012759D01*
X0193391Y0012759D01*
X0193374Y0012777D01*
X0193374Y0013378D01*
X0193391Y0013396D01*
X0196344Y0013396D01*
X0197310Y0014362D01*
X0197310Y0015729D01*
X0196344Y0016696D01*
X0192024Y0016696D01*
X0191040Y0015712D01*
X0190074Y0014745D01*
X0190074Y0012759D01*
X0190061Y0012759D01*
X0190061Y0015729D01*
X0189760Y0016030D01*
X0190061Y0016331D01*
X0190061Y0018682D01*
X0189094Y0019648D01*
X0188881Y0019648D01*
X0190700Y0021467D01*
X0190700Y0024533D01*
X0188533Y0026700D01*
X0185467Y0026700D01*
X0183300Y0024533D01*
X0183300Y0021467D01*
X0185467Y0019300D01*
X0187379Y0019300D01*
X0186761Y0018682D01*
X0186761Y0016696D01*
X0186743Y0016696D01*
X0186262Y0016215D01*
X0185781Y0016696D01*
X0185764Y0016696D01*
X0185764Y0016713D01*
X0184797Y0017680D01*
X0183430Y0017680D01*
X0182464Y0016713D01*
X0182464Y0016696D01*
X0182446Y0016696D01*
X0181875Y0016125D01*
X0181304Y0016696D01*
X0176985Y0016696D01*
X0176018Y0015729D01*
X0175034Y0014745D01*
X0175034Y0013743D01*
X0172778Y0013743D01*
X0172602Y0013568D01*
X0172602Y0015729D01*
X0171636Y0016696D01*
X0170269Y0016696D01*
X0169302Y0015729D01*
X0169302Y0013743D01*
X0168666Y0013743D01*
X0168666Y0015729D01*
X0167699Y0016696D01*
X0166332Y0016696D01*
X0165761Y0016125D01*
X0165190Y0016696D01*
X0163824Y0016696D01*
X0162857Y0015729D01*
X0162857Y0013743D01*
X0162220Y0013743D01*
X0162220Y0015729D01*
X0161254Y0016696D01*
X0159887Y0016696D01*
X0159316Y0016125D01*
X0158745Y0016696D01*
X0157378Y0016696D01*
X0156411Y0015729D01*
X0156411Y0013743D01*
X0155775Y0013743D01*
X0155775Y0015729D01*
X0154808Y0016696D01*
X0153441Y0016696D01*
X0152475Y0015729D01*
X0152475Y0011410D01*
X0154411Y0009473D01*
X0154426Y0009459D01*
X0155792Y0009459D01*
X0156093Y0009760D01*
X0156394Y0009459D01*
X0157761Y0009459D01*
X0158745Y0010443D01*
X0159316Y0011014D01*
X0160857Y0009473D01*
X0160871Y0009459D01*
X0162238Y0009459D01*
X0162539Y0009760D01*
X0162839Y0009459D01*
X0164206Y0009459D01*
X0165190Y0010443D01*
X0165761Y0011014D01*
X0167302Y0009473D01*
X0167316Y0009459D01*
X0168683Y0009459D01*
X0168984Y0009760D01*
X0169285Y0009459D01*
X0170652Y0009459D01*
X0171636Y0010443D01*
X0171811Y0010619D01*
X0171811Y0010426D01*
X0172778Y0009459D01*
X0175129Y0009459D01*
X0175565Y0009895D01*
X0176001Y0009459D01*
X0180320Y0009459D01*
X0182257Y0011396D01*
X0182271Y0011410D01*
X0182271Y0012777D01*
X0181478Y0013569D01*
X0181875Y0013967D01*
X0182446Y0013396D01*
X0182464Y0013396D01*
X0182464Y0011410D01*
X0182478Y0011396D01*
X0183430Y0010443D01*
X0183430Y0010443D01*
X0184414Y0009459D01*
X0185781Y0009459D01*
X0186262Y0009940D01*
X0186743Y0009459D01*
X0190078Y0009459D01*
X0191045Y0010426D01*
X0191045Y0010438D01*
X0191058Y0010426D01*
X0192024Y0009459D01*
X0196344Y0009459D01*
X0197310Y0010426D01*
X0197310Y0010619D01*
X0198470Y0009459D01*
X0202789Y0009459D01*
X0203360Y0010030D01*
X0203931Y0009459D01*
X0208251Y0009459D01*
X0209235Y0010443D01*
X0209410Y0010619D01*
X0209410Y0010426D01*
X0210377Y0009459D01*
X0212728Y0009459D01*
X0213656Y0010387D01*
X0214583Y0009459D01*
X0218903Y0009459D01*
X0219869Y0010426D01*
X0219869Y0010619D01*
X0221029Y0009459D01*
X0224364Y0009459D01*
X0225348Y0010443D01*
X0225524Y0010619D01*
X0225524Y0010426D01*
X0226490Y0009459D01*
X0228841Y0009459D01*
X0229808Y0010426D01*
X0229808Y0011333D01*
X0230697Y0010443D01*
X0230697Y0010443D01*
X0231681Y0009459D01*
X0233048Y0009459D01*
X0233065Y0009476D01*
X0234412Y0007500D01*
X0234081Y0007985D02*
X0029965Y0007985D01*
X0030767Y0008984D02*
X0049228Y0008984D01*
X0049281Y0008931D02*
X0051045Y0008200D01*
X0052955Y0008200D01*
X0054719Y0008931D01*
X0056069Y0010281D01*
X0056800Y0012045D01*
X0056800Y0013955D01*
X0056069Y0015719D01*
X0054719Y0017069D01*
X0052955Y0017800D01*
X0051045Y0017800D01*
X0049281Y0017069D01*
X0047931Y0015719D01*
X0047200Y0013955D01*
X0047200Y0012045D01*
X0047931Y0010281D01*
X0049281Y0008931D01*
X0048230Y0009982D02*
X0031248Y0009982D01*
X0031729Y0010981D02*
X0047641Y0010981D01*
X0047227Y0011979D02*
X0032210Y0011979D01*
X0032690Y0012978D02*
X0047200Y0012978D01*
X0047209Y0013976D02*
X0032893Y0013976D01*
X0032767Y0013137D02*
X0032767Y0013137D01*
X0033044Y0014975D02*
X0047622Y0014975D01*
X0048185Y0015973D02*
X0033194Y0015973D01*
X0033345Y0016972D02*
X0049184Y0016972D01*
X0049281Y0018931D02*
X0051045Y0018200D01*
X0052955Y0018200D01*
X0054719Y0018931D01*
X0056069Y0020281D01*
X0056800Y0022045D01*
X0056800Y0023955D01*
X0056069Y0025719D01*
X0054719Y0027069D01*
X0052955Y0027800D01*
X0051045Y0027800D01*
X0049281Y0027069D01*
X0047931Y0025719D01*
X0047592Y0024900D01*
X0042787Y0024900D01*
X0028900Y0038787D01*
X0028900Y0087213D01*
X0037787Y0096100D01*
X0172787Y0096100D01*
X0173900Y0097213D01*
X0178900Y0102213D01*
X0178900Y0106141D01*
X0179379Y0106339D01*
X0180561Y0107521D01*
X0181200Y0109065D01*
X0181200Y0116935D01*
X0180561Y0118479D01*
X0179379Y0119661D01*
X0177835Y0120300D01*
X0176165Y0120300D01*
X0174621Y0119661D01*
X0173439Y0118479D01*
X0172800Y0116935D01*
X0172800Y0109065D01*
X0173439Y0107521D01*
X0174621Y0106339D01*
X0175100Y0106141D01*
X0175100Y0103787D01*
X0171213Y0099900D01*
X0036213Y0099900D01*
X0026213Y0089900D01*
X0025100Y0088787D01*
X0025100Y0037213D01*
X0026213Y0036100D01*
X0040100Y0022213D01*
X0041213Y0021100D01*
X0047592Y0021100D01*
X0047931Y0020281D01*
X0049281Y0018931D01*
X0049243Y0018969D02*
X0033354Y0018969D01*
X0033495Y0017970D02*
X0186761Y0017970D01*
X0186761Y0016972D02*
X0185505Y0016972D01*
X0187048Y0018969D02*
X0129757Y0018969D01*
X0129719Y0018931D02*
X0131069Y0020281D01*
X0131800Y0022045D01*
X0131800Y0023955D01*
X0131069Y0025719D01*
X0129719Y0027069D01*
X0127955Y0027800D01*
X0126045Y0027800D01*
X0124281Y0027069D01*
X0122931Y0025719D01*
X0122200Y0023955D01*
X0122200Y0022045D01*
X0122931Y0020281D01*
X0124281Y0018931D01*
X0126045Y0018200D01*
X0127955Y0018200D01*
X0129719Y0018931D01*
X0130755Y0019967D02*
X0184800Y0019967D01*
X0183802Y0020966D02*
X0131353Y0020966D01*
X0131766Y0021964D02*
X0183300Y0021964D01*
X0183300Y0022963D02*
X0131800Y0022963D01*
X0131797Y0023961D02*
X0183300Y0023961D01*
X0183727Y0024960D02*
X0131384Y0024960D01*
X0130830Y0025958D02*
X0184726Y0025958D01*
X0189274Y0025958D02*
X0224726Y0025958D01*
X0225467Y0026700D02*
X0223300Y0024533D01*
X0223300Y0021467D01*
X0225467Y0019300D01*
X0228533Y0019300D01*
X0230700Y0021467D01*
X0230700Y0024533D01*
X0228533Y0026700D01*
X0225467Y0026700D01*
X0223727Y0024960D02*
X0190273Y0024960D01*
X0190700Y0023961D02*
X0223300Y0023961D01*
X0223300Y0022963D02*
X0190700Y0022963D01*
X0190700Y0021964D02*
X0223300Y0021964D01*
X0223802Y0020966D02*
X0190198Y0020966D01*
X0189200Y0019967D02*
X0224800Y0019967D01*
X0225087Y0015973D02*
X0228991Y0015973D01*
X0228747Y0014975D02*
X0226085Y0014975D01*
X0226315Y0013976D02*
X0229133Y0013976D01*
X0229607Y0012978D02*
X0229731Y0012978D01*
X0229808Y0010981D02*
X0230160Y0010981D01*
X0229364Y0009982D02*
X0231158Y0009982D01*
X0233400Y0008984D02*
X0129772Y0008984D01*
X0129719Y0008931D02*
X0131069Y0010281D01*
X0131800Y0012045D01*
X0131800Y0013955D01*
X0131069Y0015719D01*
X0129719Y0017069D01*
X0127955Y0017800D01*
X0126045Y0017800D01*
X0124281Y0017069D01*
X0122931Y0015719D01*
X0122200Y0013955D01*
X0122200Y0012045D01*
X0122931Y0010281D01*
X0124281Y0008931D01*
X0126045Y0008200D01*
X0127955Y0008200D01*
X0129719Y0008931D01*
X0130770Y0009982D02*
X0153902Y0009982D01*
X0152904Y0010981D02*
X0131359Y0010981D01*
X0131773Y0011979D02*
X0152475Y0011979D01*
X0152475Y0012978D02*
X0131800Y0012978D01*
X0131791Y0013976D02*
X0152475Y0013976D01*
X0152475Y0014975D02*
X0131378Y0014975D01*
X0130815Y0015973D02*
X0152719Y0015973D01*
X0155531Y0015973D02*
X0156655Y0015973D01*
X0156411Y0014975D02*
X0155775Y0014975D01*
X0155775Y0013976D02*
X0156411Y0013976D01*
X0159282Y0010981D02*
X0159349Y0010981D01*
X0160348Y0009982D02*
X0158284Y0009982D01*
X0162220Y0013976D02*
X0162857Y0013976D01*
X0162857Y0014975D02*
X0162220Y0014975D01*
X0161976Y0015973D02*
X0163101Y0015973D01*
X0168422Y0015973D02*
X0169546Y0015973D01*
X0169302Y0014975D02*
X0168666Y0014975D01*
X0168666Y0013976D02*
X0169302Y0013976D01*
X0172602Y0013976D02*
X0175034Y0013976D01*
X0175264Y0014975D02*
X0172602Y0014975D01*
X0172358Y0015973D02*
X0176262Y0015973D01*
X0182070Y0012978D02*
X0182464Y0012978D01*
X0182464Y0011979D02*
X0182271Y0011979D01*
X0181842Y0010981D02*
X0182893Y0010981D01*
X0183891Y0009982D02*
X0180843Y0009982D01*
X0185764Y0012777D02*
X0186262Y0012278D01*
X0186743Y0012759D01*
X0186761Y0012759D01*
X0186761Y0013396D01*
X0186743Y0013396D01*
X0186262Y0013877D01*
X0185781Y0013396D01*
X0185764Y0013396D01*
X0185764Y0012777D01*
X0185764Y0012978D02*
X0186761Y0012978D01*
X0190061Y0012978D02*
X0190074Y0012978D01*
X0190061Y0013976D02*
X0190074Y0013976D01*
X0190061Y0014975D02*
X0190303Y0014975D01*
X0189817Y0015973D02*
X0191302Y0015973D01*
X0190061Y0016972D02*
X0202965Y0016972D01*
X0202965Y0015973D02*
X0202528Y0015973D01*
X0203237Y0017970D02*
X0190061Y0017970D01*
X0189774Y0018969D02*
X0230684Y0018969D01*
X0230684Y0019967D02*
X0229200Y0019967D01*
X0230198Y0020966D02*
X0230841Y0020966D01*
X0230700Y0021964D02*
X0231149Y0021964D01*
X0231457Y0022963D02*
X0230700Y0022963D01*
X0230700Y0023961D02*
X0231765Y0023961D01*
X0232073Y0024960D02*
X0230273Y0024960D01*
X0229274Y0025958D02*
X0232679Y0025958D01*
X0232134Y0025159D02*
X0232134Y0025159D01*
X0233360Y0026957D02*
X0129831Y0026957D01*
X0129719Y0028931D02*
X0131069Y0030281D01*
X0131800Y0032045D01*
X0131800Y0033955D01*
X0131069Y0035719D01*
X0129719Y0037069D01*
X0127955Y0037800D01*
X0126045Y0037800D01*
X0124281Y0037069D01*
X0122931Y0035719D01*
X0122200Y0033955D01*
X0122200Y0032045D01*
X0122931Y0030281D01*
X0124281Y0028931D01*
X0126045Y0028200D01*
X0127955Y0028200D01*
X0129719Y0028931D01*
X0129742Y0028954D02*
X0234721Y0028954D01*
X0234905Y0029223D02*
X0234905Y0029223D01*
X0235819Y0029952D02*
X0130741Y0029952D01*
X0131347Y0030951D02*
X0237072Y0030951D01*
X0238324Y0031949D02*
X0131760Y0031949D01*
X0131800Y0032948D02*
X0240428Y0032948D01*
X0238750Y0032289D02*
X0238750Y0032289D01*
X0242972Y0033946D02*
X0213712Y0033946D01*
X0214492Y0034270D02*
X0215730Y0035508D01*
X0216400Y0037125D01*
X0216400Y0038875D01*
X0215730Y0040492D01*
X0214492Y0041730D01*
X0212875Y0042400D01*
X0211125Y0042400D01*
X0210732Y0042237D01*
X0209100Y0043870D01*
X0209100Y0063870D01*
X0207870Y0065100D01*
X0204100Y0068870D01*
X0204100Y0077130D01*
X0209100Y0082130D01*
X0209100Y0112130D01*
X0217870Y0120900D01*
X0227870Y0120900D01*
X0229100Y0122130D01*
X0234100Y0127130D01*
X0234100Y0138870D01*
X0232870Y0140100D01*
X0229970Y0143000D01*
X0234100Y0147130D01*
X0234100Y0168870D01*
X0232870Y0170100D01*
X0229100Y0173870D01*
X0227870Y0175100D01*
X0222070Y0175100D01*
X0222870Y0175900D01*
X0224100Y0177130D01*
X0224100Y0181432D01*
X0224322Y0181524D01*
X0225476Y0182678D01*
X0226100Y0184184D01*
X0226100Y0191816D01*
X0225476Y0193322D01*
X0224322Y0194476D01*
X0224100Y0194568D01*
X0224100Y0198870D01*
X0222870Y0200100D01*
X0217870Y0205100D01*
X0151130Y0205100D01*
X0149900Y0203870D01*
X0147000Y0200970D01*
X0142870Y0205100D01*
X0076130Y0205100D01*
X0074900Y0203870D01*
X0069900Y0198870D01*
X0069900Y0194568D01*
X0069678Y0194476D01*
X0068524Y0193322D01*
X0067900Y0191816D01*
X0067900Y0184184D01*
X0068524Y0182678D01*
X0069678Y0181524D01*
X0071092Y0180938D01*
X0074900Y0177130D01*
X0076130Y0175900D01*
X0096130Y0175900D01*
X0099900Y0172130D01*
X0099900Y0168733D01*
X0098863Y0167696D01*
X0098300Y0166336D01*
X0098300Y0159664D01*
X0098863Y0158304D01*
X0099904Y0157263D01*
X0101264Y0156700D01*
X0102736Y0156700D01*
X0104096Y0157263D01*
X0105137Y0158304D01*
X0105700Y0159664D01*
X0105700Y0166336D01*
X0105137Y0167696D01*
X0104100Y0168733D01*
X0104100Y0173870D01*
X0102870Y0175100D01*
X0097870Y0180100D01*
X0077870Y0180100D01*
X0075384Y0182586D01*
X0075476Y0182678D01*
X0076100Y0184184D01*
X0076100Y0191816D01*
X0075476Y0193322D01*
X0074322Y0194476D01*
X0074100Y0194568D01*
X0074100Y0197130D01*
X0077870Y0200900D01*
X0141130Y0200900D01*
X0144900Y0197130D01*
X0144900Y0194568D01*
X0144678Y0194476D01*
X0143524Y0193322D01*
X0142900Y0191816D01*
X0142900Y0184184D01*
X0143524Y0182678D01*
X0144678Y0181524D01*
X0146184Y0180900D01*
X0147816Y0180900D01*
X0149322Y0181524D01*
X0150476Y0182678D01*
X0151100Y0184184D01*
X0151100Y0191816D01*
X0150476Y0193322D01*
X0149322Y0194476D01*
X0149100Y0194568D01*
X0149100Y0197130D01*
X0152870Y0200900D01*
X0216130Y0200900D01*
X0219900Y0197130D01*
X0219900Y0194568D01*
X0219678Y0194476D01*
X0218524Y0193322D01*
X0217900Y0191816D01*
X0217900Y0184184D01*
X0218524Y0182678D01*
X0219678Y0181524D01*
X0219900Y0181432D01*
X0219900Y0178870D01*
X0216130Y0175100D01*
X0196130Y0175100D01*
X0194900Y0173870D01*
X0189431Y0168401D01*
X0189096Y0168737D01*
X0187736Y0169300D01*
X0186264Y0169300D01*
X0184904Y0168737D01*
X0183863Y0167696D01*
X0183300Y0166336D01*
X0183300Y0159664D01*
X0183863Y0158304D01*
X0184904Y0157263D01*
X0186264Y0156700D01*
X0187736Y0156700D01*
X0189096Y0157263D01*
X0190137Y0158304D01*
X0190700Y0159664D01*
X0190700Y0163730D01*
X0197870Y0170900D01*
X0226130Y0170900D01*
X0229900Y0167130D01*
X0229900Y0148870D01*
X0226130Y0145100D01*
X0225698Y0145100D01*
X0224100Y0146698D01*
X0224100Y0149302D01*
X0226100Y0151302D01*
X0226100Y0154698D01*
X0223698Y0157100D01*
X0220302Y0157100D01*
X0217900Y0154698D01*
X0217900Y0151302D01*
X0219900Y0149302D01*
X0219900Y0146698D01*
X0217900Y0144698D01*
X0217900Y0141302D01*
X0220302Y0138900D01*
X0223698Y0138900D01*
X0225698Y0140900D01*
X0226130Y0140900D01*
X0229900Y0137130D01*
X0229900Y0128870D01*
X0226130Y0125100D01*
X0216130Y0125100D01*
X0206130Y0115100D01*
X0204900Y0113870D01*
X0204900Y0083870D01*
X0201130Y0080100D01*
X0199900Y0078870D01*
X0199900Y0067130D01*
X0204900Y0062130D01*
X0204900Y0042130D01*
X0207763Y0039268D01*
X0207600Y0038875D01*
X0207600Y0037125D01*
X0208270Y0035508D01*
X0209508Y0034270D01*
X0211125Y0033600D01*
X0212875Y0033600D01*
X0214492Y0034270D01*
X0215167Y0034945D02*
X0262421Y0034945D01*
X0262421Y0035943D02*
X0215911Y0035943D01*
X0216324Y0036942D02*
X0262421Y0036942D01*
X0262421Y0037940D02*
X0216400Y0037940D01*
X0216374Y0038939D02*
X0262421Y0038939D01*
X0262421Y0039937D02*
X0215960Y0039937D01*
X0215287Y0040936D02*
X0262421Y0040936D01*
X0262421Y0041934D02*
X0213999Y0041934D01*
X0210037Y0042933D02*
X0262421Y0042933D01*
X0262421Y0043932D02*
X0239720Y0043932D01*
X0239719Y0043931D02*
X0241069Y0045281D01*
X0241800Y0047045D01*
X0241800Y0048955D01*
X0241069Y0050719D01*
X0239719Y0052069D01*
X0237955Y0052800D01*
X0236045Y0052800D01*
X0234281Y0052069D01*
X0232931Y0050719D01*
X0232200Y0048955D01*
X0232200Y0047045D01*
X0232931Y0045281D01*
X0234281Y0043931D01*
X0236045Y0043200D01*
X0237955Y0043200D01*
X0239719Y0043931D01*
X0240718Y0044930D02*
X0262421Y0044930D01*
X0262421Y0045929D02*
X0241337Y0045929D01*
X0241751Y0046927D02*
X0262421Y0046927D01*
X0262421Y0047926D02*
X0241800Y0047926D01*
X0241800Y0048924D02*
X0262421Y0048924D01*
X0262421Y0049923D02*
X0241399Y0049923D01*
X0240867Y0050921D02*
X0262421Y0050921D01*
X0262421Y0051920D02*
X0239869Y0051920D01*
X0242398Y0054552D02*
X0252632Y0054552D01*
X0252632Y0053253D01*
X0253277Y0052609D01*
X0259306Y0052609D01*
X0259950Y0053253D01*
X0259950Y0063219D01*
X0259341Y0063829D01*
X0260290Y0063829D01*
X0260935Y0064473D01*
X0260935Y0072471D01*
X0260406Y0073000D01*
X0260935Y0073529D01*
X0260935Y0081527D01*
X0260290Y0082171D01*
X0259341Y0082171D01*
X0259950Y0082781D01*
X0259950Y0092747D01*
X0259306Y0093391D01*
X0253277Y0093391D01*
X0252632Y0092747D01*
X0252632Y0082781D01*
X0253242Y0082171D01*
X0252292Y0082171D01*
X0251648Y0081527D01*
X0251648Y0073529D01*
X0252177Y0073000D01*
X0251648Y0072471D01*
X0251648Y0064473D01*
X0252292Y0063829D01*
X0253242Y0063829D01*
X0252632Y0063219D01*
X0252632Y0057752D01*
X0250954Y0057752D01*
X0250954Y0064007D01*
X0250310Y0064651D01*
X0243099Y0064651D01*
X0242455Y0064007D01*
X0242455Y0059020D01*
X0238883Y0062592D01*
X0234946Y0062592D01*
X0231946Y0065592D01*
X0231946Y0070684D01*
X0235271Y0074008D01*
X0236135Y0073650D01*
X0237865Y0073650D01*
X0239464Y0074312D01*
X0240688Y0075536D01*
X0241095Y0076518D01*
X0242101Y0076518D01*
X0242101Y0074316D01*
X0242137Y0074280D01*
X0242101Y0074243D01*
X0242101Y0071757D01*
X0242137Y0071720D01*
X0242101Y0071684D01*
X0242101Y0069982D01*
X0239356Y0069982D01*
X0238997Y0070340D01*
X0237931Y0070782D01*
X0236777Y0070782D01*
X0235712Y0070340D01*
X0234896Y0069525D01*
X0234454Y0068459D01*
X0234454Y0067305D01*
X0234896Y0066239D01*
X0235712Y0065423D01*
X0236777Y0064982D01*
X0237931Y0064982D01*
X0238997Y0065423D01*
X0239356Y0065782D01*
X0246728Y0065782D01*
X0246941Y0065994D01*
X0248971Y0065994D01*
X0249616Y0066639D01*
X0249616Y0069125D01*
X0249579Y0069161D01*
X0249616Y0069198D01*
X0249616Y0071684D01*
X0249579Y0071720D01*
X0249616Y0071757D01*
X0249616Y0074243D01*
X0249579Y0074280D01*
X0249616Y0074316D01*
X0249616Y0076802D01*
X0249579Y0076839D01*
X0249616Y0076875D01*
X0249616Y0079361D01*
X0248971Y0080005D01*
X0242745Y0080005D01*
X0242458Y0079718D01*
X0240997Y0079718D01*
X0240688Y0080464D01*
X0239464Y0081688D01*
X0237865Y0082350D01*
X0236135Y0082350D01*
X0234536Y0081688D01*
X0233312Y0080464D01*
X0232650Y0078865D01*
X0232650Y0077135D01*
X0233008Y0076271D01*
X0229684Y0072946D01*
X0229684Y0072946D01*
X0228746Y0072009D01*
X0228746Y0064266D01*
X0232683Y0060329D01*
X0233621Y0059392D01*
X0237558Y0059392D01*
X0242398Y0054552D01*
X0242035Y0054915D02*
X0209100Y0054915D01*
X0209100Y0053917D02*
X0252632Y0053917D01*
X0252967Y0052918D02*
X0209100Y0052918D01*
X0209100Y0051920D02*
X0224131Y0051920D01*
X0224281Y0052069D02*
X0222931Y0050719D01*
X0222200Y0048955D01*
X0222200Y0047045D01*
X0222931Y0045281D01*
X0224281Y0043931D01*
X0226045Y0043200D01*
X0227955Y0043200D01*
X0229719Y0043931D01*
X0231069Y0045281D01*
X0231800Y0047045D01*
X0231800Y0048955D01*
X0231069Y0050719D01*
X0229719Y0052069D01*
X0227955Y0052800D01*
X0226045Y0052800D01*
X0224281Y0052069D01*
X0223133Y0050921D02*
X0209100Y0050921D01*
X0209100Y0049923D02*
X0222601Y0049923D01*
X0222200Y0048924D02*
X0209100Y0048924D01*
X0209100Y0047926D02*
X0222200Y0047926D01*
X0222249Y0046927D02*
X0209100Y0046927D01*
X0209100Y0045929D02*
X0222663Y0045929D01*
X0223282Y0044930D02*
X0209100Y0044930D01*
X0209100Y0043932D02*
X0224280Y0043932D01*
X0229720Y0043932D02*
X0234280Y0043932D01*
X0233282Y0044930D02*
X0230718Y0044930D01*
X0231337Y0045929D02*
X0232663Y0045929D01*
X0232249Y0046927D02*
X0231751Y0046927D01*
X0231800Y0047926D02*
X0232200Y0047926D01*
X0232200Y0048924D02*
X0231800Y0048924D01*
X0231399Y0049923D02*
X0232601Y0049923D01*
X0233133Y0050921D02*
X0230867Y0050921D01*
X0229869Y0051920D02*
X0234131Y0051920D01*
X0240038Y0056912D02*
X0209100Y0056912D01*
X0209100Y0055914D02*
X0241036Y0055914D01*
X0243061Y0056152D02*
X0238220Y0060992D01*
X0234283Y0060992D01*
X0230346Y0064929D01*
X0230346Y0071346D01*
X0237000Y0078000D01*
X0237118Y0078118D01*
X0245858Y0078118D01*
X0242618Y0079878D02*
X0240931Y0079878D01*
X0240275Y0080876D02*
X0251648Y0080876D01*
X0251648Y0079878D02*
X0249099Y0079878D01*
X0249616Y0078879D02*
X0251648Y0078879D01*
X0251648Y0077881D02*
X0249616Y0077881D01*
X0249616Y0076882D02*
X0251648Y0076882D01*
X0251648Y0075884D02*
X0249616Y0075884D01*
X0249616Y0074885D02*
X0251648Y0074885D01*
X0251648Y0073887D02*
X0249616Y0073887D01*
X0249616Y0072888D02*
X0252065Y0072888D01*
X0251648Y0071890D02*
X0249616Y0071890D01*
X0249616Y0070891D02*
X0251648Y0070891D01*
X0251648Y0069893D02*
X0249616Y0069893D01*
X0249616Y0068894D02*
X0251648Y0068894D01*
X0251648Y0067896D02*
X0249616Y0067896D01*
X0249616Y0066897D02*
X0251648Y0066897D01*
X0251648Y0065899D02*
X0246845Y0065899D01*
X0250954Y0063902D02*
X0252220Y0063902D01*
X0252632Y0062903D02*
X0250954Y0062903D01*
X0250954Y0061905D02*
X0252632Y0061905D01*
X0252632Y0060906D02*
X0250954Y0060906D01*
X0250954Y0059908D02*
X0252632Y0059908D01*
X0252632Y0058909D02*
X0250954Y0058909D01*
X0250954Y0057911D02*
X0252632Y0057911D01*
X0254207Y0056152D02*
X0256291Y0058236D01*
X0254207Y0056152D02*
X0243061Y0056152D01*
X0239039Y0057911D02*
X0209100Y0057911D01*
X0209100Y0058909D02*
X0238041Y0058909D01*
X0240569Y0060906D02*
X0242455Y0060906D01*
X0242455Y0059908D02*
X0241568Y0059908D01*
X0242455Y0061905D02*
X0239571Y0061905D01*
X0242455Y0062903D02*
X0234635Y0062903D01*
X0233637Y0063902D02*
X0242455Y0063902D01*
X0235236Y0065899D02*
X0231946Y0065899D01*
X0231946Y0066897D02*
X0234623Y0066897D01*
X0234454Y0067896D02*
X0231946Y0067896D01*
X0231946Y0068894D02*
X0234635Y0068894D01*
X0235264Y0069893D02*
X0231946Y0069893D01*
X0232154Y0070891D02*
X0242101Y0070891D01*
X0242101Y0071890D02*
X0233153Y0071890D01*
X0234151Y0072888D02*
X0242101Y0072888D01*
X0242101Y0073887D02*
X0238437Y0073887D01*
X0240037Y0074885D02*
X0242101Y0074885D01*
X0242101Y0075884D02*
X0240832Y0075884D01*
X0235563Y0073887D02*
X0235150Y0073887D01*
X0232621Y0075884D02*
X0230832Y0075884D01*
X0230688Y0075536D02*
X0231350Y0077135D01*
X0231350Y0078865D01*
X0230688Y0080464D01*
X0229464Y0081688D01*
X0227865Y0082350D01*
X0226135Y0082350D01*
X0224536Y0081688D01*
X0223312Y0080464D01*
X0222650Y0078865D01*
X0222650Y0077135D01*
X0223312Y0075536D01*
X0224536Y0074312D01*
X0226135Y0073650D01*
X0227865Y0073650D01*
X0229464Y0074312D01*
X0230688Y0075536D01*
X0230037Y0074885D02*
X0231623Y0074885D01*
X0230624Y0073887D02*
X0228437Y0073887D01*
X0229626Y0072888D02*
X0204100Y0072888D01*
X0204100Y0071890D02*
X0228746Y0071890D01*
X0228746Y0070891D02*
X0204100Y0070891D01*
X0204100Y0069893D02*
X0228746Y0069893D01*
X0228746Y0068894D02*
X0204100Y0068894D01*
X0205074Y0067896D02*
X0228746Y0067896D01*
X0228746Y0066897D02*
X0206073Y0066897D01*
X0207071Y0065899D02*
X0228746Y0065899D01*
X0228746Y0064900D02*
X0208070Y0064900D01*
X0209068Y0063902D02*
X0229111Y0063902D01*
X0230110Y0062903D02*
X0209100Y0062903D01*
X0209100Y0061905D02*
X0231108Y0061905D01*
X0232107Y0060906D02*
X0209100Y0060906D01*
X0209100Y0059908D02*
X0233105Y0059908D01*
X0232638Y0064900D02*
X0251648Y0064900D01*
X0259950Y0062903D02*
X0262421Y0062903D01*
X0262421Y0061905D02*
X0259950Y0061905D01*
X0259950Y0060906D02*
X0262421Y0060906D01*
X0262421Y0059908D02*
X0259950Y0059908D01*
X0259950Y0058909D02*
X0262421Y0058909D01*
X0262421Y0057911D02*
X0259950Y0057911D01*
X0259950Y0056912D02*
X0262421Y0056912D01*
X0262421Y0055914D02*
X0259950Y0055914D01*
X0259950Y0054915D02*
X0262421Y0054915D01*
X0262421Y0053917D02*
X0259950Y0053917D01*
X0259615Y0052918D02*
X0262421Y0052918D01*
X0262421Y0063902D02*
X0260363Y0063902D01*
X0260935Y0064900D02*
X0262421Y0064900D01*
X0262421Y0065899D02*
X0260935Y0065899D01*
X0260935Y0066897D02*
X0262421Y0066897D01*
X0262421Y0067896D02*
X0260935Y0067896D01*
X0260935Y0068894D02*
X0262421Y0068894D01*
X0262421Y0069893D02*
X0260935Y0069893D01*
X0260935Y0070891D02*
X0262421Y0070891D01*
X0262421Y0071890D02*
X0260935Y0071890D01*
X0260518Y0072888D02*
X0262421Y0072888D01*
X0262421Y0073887D02*
X0260935Y0073887D01*
X0260935Y0074885D02*
X0262421Y0074885D01*
X0262421Y0075884D02*
X0260935Y0075884D01*
X0260935Y0076882D02*
X0262421Y0076882D01*
X0262421Y0077881D02*
X0260935Y0077881D01*
X0260935Y0078879D02*
X0262421Y0078879D01*
X0262421Y0079878D02*
X0260935Y0079878D01*
X0260935Y0080876D02*
X0262421Y0080876D01*
X0262421Y0081875D02*
X0260586Y0081875D01*
X0259950Y0082873D02*
X0262421Y0082873D01*
X0262421Y0083872D02*
X0259950Y0083872D01*
X0259950Y0084870D02*
X0262421Y0084870D01*
X0262421Y0085869D02*
X0259950Y0085869D01*
X0259950Y0086868D02*
X0262421Y0086868D01*
X0262421Y0087866D02*
X0259950Y0087866D01*
X0259950Y0088865D02*
X0262421Y0088865D01*
X0262421Y0089863D02*
X0259950Y0089863D01*
X0259950Y0090862D02*
X0262421Y0090862D01*
X0262421Y0091860D02*
X0259950Y0091860D01*
X0259839Y0092859D02*
X0262421Y0092859D01*
X0262421Y0093857D02*
X0209100Y0093857D01*
X0209100Y0092859D02*
X0252744Y0092859D01*
X0252632Y0091860D02*
X0209100Y0091860D01*
X0209100Y0090862D02*
X0252632Y0090862D01*
X0252632Y0089863D02*
X0209100Y0089863D01*
X0209100Y0088865D02*
X0242455Y0088865D01*
X0242455Y0089204D02*
X0242455Y0081993D01*
X0243099Y0081349D01*
X0250310Y0081349D01*
X0250954Y0081993D01*
X0250954Y0089204D01*
X0250310Y0089848D01*
X0243099Y0089848D01*
X0242455Y0089204D01*
X0242455Y0087866D02*
X0209100Y0087866D01*
X0209100Y0086868D02*
X0242455Y0086868D01*
X0242455Y0085869D02*
X0209100Y0085869D01*
X0209100Y0084870D02*
X0242455Y0084870D01*
X0242455Y0083872D02*
X0209100Y0083872D01*
X0209100Y0082873D02*
X0242455Y0082873D01*
X0242573Y0081875D02*
X0239012Y0081875D01*
X0234988Y0081875D02*
X0229012Y0081875D01*
X0230275Y0080876D02*
X0233725Y0080876D01*
X0233069Y0079878D02*
X0230931Y0079878D01*
X0231344Y0078879D02*
X0232656Y0078879D01*
X0232650Y0077881D02*
X0231350Y0077881D01*
X0231245Y0076882D02*
X0232755Y0076882D01*
X0225563Y0073887D02*
X0213568Y0073887D01*
X0212875Y0073600D02*
X0214492Y0074270D01*
X0215730Y0075508D01*
X0216400Y0077125D01*
X0216400Y0078875D01*
X0215730Y0080492D01*
X0214492Y0081730D01*
X0212875Y0082400D01*
X0211125Y0082400D01*
X0209508Y0081730D01*
X0208270Y0080492D01*
X0207600Y0078875D01*
X0207600Y0077125D01*
X0208270Y0075508D01*
X0209508Y0074270D01*
X0211125Y0073600D01*
X0212875Y0073600D01*
X0210432Y0073887D02*
X0204100Y0073887D01*
X0204100Y0074885D02*
X0208892Y0074885D01*
X0208114Y0075884D02*
X0204100Y0075884D01*
X0204100Y0076882D02*
X0207700Y0076882D01*
X0207600Y0077881D02*
X0204851Y0077881D01*
X0205849Y0078879D02*
X0207602Y0078879D01*
X0208015Y0079878D02*
X0206848Y0079878D01*
X0207846Y0080876D02*
X0208654Y0080876D01*
X0208845Y0081875D02*
X0209857Y0081875D01*
X0204900Y0083872D02*
X0200135Y0083872D01*
X0201133Y0084870D02*
X0204900Y0084870D01*
X0204900Y0085869D02*
X0202132Y0085869D01*
X0203130Y0086868D02*
X0204900Y0086868D01*
X0204900Y0087866D02*
X0203600Y0087866D01*
X0203600Y0087337D02*
X0203600Y0138663D01*
X0202663Y0139600D01*
X0197663Y0144600D01*
X0181337Y0144600D01*
X0180400Y0143663D01*
X0175877Y0139140D01*
X0174904Y0138737D01*
X0173863Y0137696D01*
X0173300Y0136336D01*
X0173300Y0129664D01*
X0173863Y0128304D01*
X0174904Y0127263D01*
X0176264Y0126700D01*
X0177736Y0126700D01*
X0179096Y0127263D01*
X0180137Y0128304D01*
X0180700Y0129664D01*
X0180700Y0136336D01*
X0180137Y0137696D01*
X0179548Y0138285D01*
X0182663Y0141400D01*
X0196337Y0141400D01*
X0200400Y0137337D01*
X0200400Y0088663D01*
X0181337Y0069600D01*
X0151337Y0069600D01*
X0146337Y0064600D01*
X0145400Y0063663D01*
X0145400Y0059983D01*
X0144621Y0059661D01*
X0143439Y0058479D01*
X0142800Y0056935D01*
X0142800Y0049065D01*
X0143439Y0047521D01*
X0144621Y0046339D01*
X0146165Y0045700D01*
X0147835Y0045700D01*
X0149379Y0046339D01*
X0150561Y0047521D01*
X0151200Y0049065D01*
X0151200Y0056935D01*
X0150561Y0058479D01*
X0149379Y0059661D01*
X0148600Y0059983D01*
X0148600Y0062337D01*
X0152663Y0066400D01*
X0182663Y0066400D01*
X0183600Y0067337D01*
X0203600Y0087337D01*
X0203600Y0088865D02*
X0204900Y0088865D01*
X0204900Y0089863D02*
X0203600Y0089863D01*
X0203600Y0090862D02*
X0204900Y0090862D01*
X0204900Y0091860D02*
X0203600Y0091860D01*
X0203600Y0092859D02*
X0204900Y0092859D01*
X0204900Y0093857D02*
X0203600Y0093857D01*
X0203600Y0094856D02*
X0204900Y0094856D01*
X0204900Y0095854D02*
X0203600Y0095854D01*
X0203600Y0096853D02*
X0204900Y0096853D01*
X0204900Y0097851D02*
X0203600Y0097851D01*
X0203600Y0098850D02*
X0204900Y0098850D01*
X0204900Y0099848D02*
X0203600Y0099848D01*
X0203600Y0100847D02*
X0204900Y0100847D01*
X0204900Y0101845D02*
X0203600Y0101845D01*
X0203600Y0102844D02*
X0204900Y0102844D01*
X0204900Y0103842D02*
X0203600Y0103842D01*
X0203600Y0104841D02*
X0204900Y0104841D01*
X0204900Y0105839D02*
X0203600Y0105839D01*
X0203600Y0106838D02*
X0204900Y0106838D01*
X0204900Y0107836D02*
X0203600Y0107836D01*
X0203600Y0108835D02*
X0204900Y0108835D01*
X0204900Y0109833D02*
X0203600Y0109833D01*
X0203600Y0110832D02*
X0204900Y0110832D01*
X0204900Y0111830D02*
X0203600Y0111830D01*
X0203600Y0112829D02*
X0204900Y0112829D01*
X0204900Y0113827D02*
X0203600Y0113827D01*
X0203600Y0114826D02*
X0205856Y0114826D01*
X0206854Y0115824D02*
X0203600Y0115824D01*
X0203600Y0116823D02*
X0207853Y0116823D01*
X0208852Y0117821D02*
X0203600Y0117821D01*
X0203600Y0118820D02*
X0209850Y0118820D01*
X0210849Y0119818D02*
X0203600Y0119818D01*
X0203600Y0120817D02*
X0211847Y0120817D01*
X0212846Y0121815D02*
X0203600Y0121815D01*
X0203600Y0122814D02*
X0213844Y0122814D01*
X0214843Y0123812D02*
X0203600Y0123812D01*
X0203600Y0124811D02*
X0215841Y0124811D01*
X0217787Y0120817D02*
X0247900Y0120817D01*
X0247900Y0121456D02*
X0247900Y0114544D01*
X0248544Y0113900D01*
X0255456Y0113900D01*
X0256100Y0114544D01*
X0256100Y0121456D01*
X0255456Y0122100D01*
X0248544Y0122100D01*
X0247900Y0121456D01*
X0248260Y0121815D02*
X0228785Y0121815D01*
X0229784Y0122814D02*
X0262421Y0122814D01*
X0262421Y0123812D02*
X0230782Y0123812D01*
X0231781Y0124811D02*
X0247900Y0124811D01*
X0247900Y0124544D02*
X0248544Y0123900D01*
X0255456Y0123900D01*
X0256100Y0124544D01*
X0256100Y0131456D01*
X0255456Y0132100D01*
X0248544Y0132100D01*
X0247900Y0131456D01*
X0247900Y0124544D01*
X0247900Y0125809D02*
X0232779Y0125809D01*
X0233778Y0126808D02*
X0247900Y0126808D01*
X0247900Y0127806D02*
X0234100Y0127806D01*
X0234100Y0128805D02*
X0247900Y0128805D01*
X0247900Y0129803D02*
X0234100Y0129803D01*
X0234100Y0130802D02*
X0247900Y0130802D01*
X0248245Y0131801D02*
X0234100Y0131801D01*
X0234100Y0132799D02*
X0262421Y0132799D01*
X0262421Y0131801D02*
X0255755Y0131801D01*
X0256100Y0130802D02*
X0262421Y0130802D01*
X0262421Y0129803D02*
X0256100Y0129803D01*
X0256100Y0128805D02*
X0262421Y0128805D01*
X0262421Y0127806D02*
X0256100Y0127806D01*
X0256100Y0126808D02*
X0262421Y0126808D01*
X0262421Y0125809D02*
X0256100Y0125809D01*
X0256100Y0124811D02*
X0262421Y0124811D01*
X0262421Y0121815D02*
X0255740Y0121815D01*
X0256100Y0120817D02*
X0262421Y0120817D01*
X0262421Y0119818D02*
X0256100Y0119818D01*
X0256100Y0118820D02*
X0262421Y0118820D01*
X0262421Y0117821D02*
X0256100Y0117821D01*
X0256100Y0116823D02*
X0262421Y0116823D01*
X0262421Y0115824D02*
X0256100Y0115824D01*
X0256100Y0114826D02*
X0262421Y0114826D01*
X0262421Y0113827D02*
X0210797Y0113827D01*
X0209799Y0112829D02*
X0262421Y0112829D01*
X0262421Y0111830D02*
X0209100Y0111830D01*
X0209100Y0110832D02*
X0262421Y0110832D01*
X0262421Y0109833D02*
X0209100Y0109833D01*
X0209100Y0108835D02*
X0262421Y0108835D01*
X0262421Y0107836D02*
X0209100Y0107836D01*
X0209100Y0106838D02*
X0214977Y0106838D01*
X0214615Y0106688D02*
X0213391Y0105464D01*
X0212729Y0103865D01*
X0212729Y0102135D01*
X0213391Y0100536D01*
X0214615Y0099312D01*
X0216213Y0098650D01*
X0217944Y0098650D01*
X0219543Y0099312D01*
X0220766Y0100536D01*
X0221429Y0102135D01*
X0221429Y0103865D01*
X0220766Y0105464D01*
X0219543Y0106688D01*
X0217944Y0107350D01*
X0216213Y0107350D01*
X0214615Y0106688D01*
X0213766Y0105839D02*
X0209100Y0105839D01*
X0209100Y0104841D02*
X0213133Y0104841D01*
X0212729Y0103842D02*
X0209100Y0103842D01*
X0209100Y0102844D02*
X0212729Y0102844D01*
X0212849Y0101845D02*
X0209100Y0101845D01*
X0209100Y0100847D02*
X0213262Y0100847D01*
X0214079Y0099848D02*
X0209100Y0099848D01*
X0209100Y0098850D02*
X0215731Y0098850D01*
X0218426Y0098850D02*
X0223016Y0098850D01*
X0223216Y0098650D02*
X0230627Y0098650D01*
X0231271Y0099294D01*
X0231271Y0106706D01*
X0230627Y0107350D01*
X0223216Y0107350D01*
X0222571Y0106706D01*
X0222571Y0099294D01*
X0223216Y0098650D01*
X0222571Y0099848D02*
X0220079Y0099848D01*
X0220895Y0100847D02*
X0222571Y0100847D01*
X0222571Y0101845D02*
X0221309Y0101845D01*
X0221429Y0102844D02*
X0222571Y0102844D01*
X0222571Y0103842D02*
X0221429Y0103842D01*
X0221025Y0104841D02*
X0222571Y0104841D01*
X0222571Y0105839D02*
X0220391Y0105839D01*
X0219181Y0106838D02*
X0222703Y0106838D01*
X0231139Y0106838D02*
X0262421Y0106838D01*
X0262421Y0105839D02*
X0231271Y0105839D01*
X0231271Y0104841D02*
X0262421Y0104841D01*
X0262421Y0103842D02*
X0231271Y0103842D01*
X0231271Y0102844D02*
X0262421Y0102844D01*
X0262421Y0101845D02*
X0231271Y0101845D01*
X0231271Y0100847D02*
X0262421Y0100847D01*
X0262421Y0099848D02*
X0231271Y0099848D01*
X0230827Y0098850D02*
X0262421Y0098850D01*
X0262421Y0097851D02*
X0209100Y0097851D01*
X0209100Y0096853D02*
X0262421Y0096853D01*
X0262421Y0095854D02*
X0209100Y0095854D01*
X0209100Y0094856D02*
X0262421Y0094856D01*
X0252632Y0088865D02*
X0250954Y0088865D01*
X0250954Y0087866D02*
X0252632Y0087866D01*
X0252632Y0086868D02*
X0250954Y0086868D01*
X0250954Y0085869D02*
X0252632Y0085869D01*
X0252632Y0084870D02*
X0250954Y0084870D01*
X0250954Y0083872D02*
X0252632Y0083872D01*
X0252632Y0082873D02*
X0250954Y0082873D01*
X0250836Y0081875D02*
X0251996Y0081875D01*
X0224988Y0081875D02*
X0214143Y0081875D01*
X0215346Y0080876D02*
X0223725Y0080876D01*
X0223069Y0079878D02*
X0215985Y0079878D01*
X0216398Y0078879D02*
X0222656Y0078879D01*
X0222650Y0077881D02*
X0216400Y0077881D01*
X0216300Y0076882D02*
X0222755Y0076882D01*
X0223168Y0075884D02*
X0215886Y0075884D01*
X0215108Y0074885D02*
X0223963Y0074885D01*
X0204900Y0061905D02*
X0148600Y0061905D01*
X0148600Y0060906D02*
X0204900Y0060906D01*
X0204900Y0059908D02*
X0188783Y0059908D01*
X0189379Y0059661D02*
X0187835Y0060300D01*
X0186165Y0060300D01*
X0184621Y0059661D01*
X0183439Y0058479D01*
X0182800Y0056935D01*
X0182800Y0049065D01*
X0183439Y0047521D01*
X0184621Y0046339D01*
X0186165Y0045700D01*
X0187835Y0045700D01*
X0189379Y0046339D01*
X0190561Y0047521D01*
X0191200Y0049065D01*
X0191200Y0056935D01*
X0190561Y0058479D01*
X0189379Y0059661D01*
X0190130Y0058909D02*
X0204900Y0058909D01*
X0204900Y0057911D02*
X0190796Y0057911D01*
X0191200Y0056912D02*
X0204900Y0056912D01*
X0204900Y0055914D02*
X0191200Y0055914D01*
X0191200Y0054915D02*
X0204900Y0054915D01*
X0204900Y0053917D02*
X0191200Y0053917D01*
X0191200Y0052918D02*
X0204900Y0052918D01*
X0204900Y0051920D02*
X0191200Y0051920D01*
X0191200Y0050921D02*
X0204900Y0050921D01*
X0204900Y0049923D02*
X0191200Y0049923D01*
X0191142Y0048924D02*
X0204900Y0048924D01*
X0204900Y0047926D02*
X0190728Y0047926D01*
X0189967Y0046927D02*
X0204900Y0046927D01*
X0204900Y0045929D02*
X0188387Y0045929D01*
X0185613Y0045929D02*
X0178387Y0045929D01*
X0177835Y0045700D02*
X0179379Y0046339D01*
X0180561Y0047521D01*
X0181200Y0049065D01*
X0181200Y0056935D01*
X0180561Y0058479D01*
X0179379Y0059661D01*
X0177835Y0060300D01*
X0176165Y0060300D01*
X0174621Y0059661D01*
X0173439Y0058479D01*
X0172800Y0056935D01*
X0172800Y0049065D01*
X0173439Y0047521D01*
X0174621Y0046339D01*
X0176165Y0045700D01*
X0177835Y0045700D01*
X0175613Y0045929D02*
X0168387Y0045929D01*
X0167835Y0045700D02*
X0169379Y0046339D01*
X0170561Y0047521D01*
X0171200Y0049065D01*
X0171200Y0056935D01*
X0170561Y0058479D01*
X0169379Y0059661D01*
X0167835Y0060300D01*
X0166165Y0060300D01*
X0164621Y0059661D01*
X0163439Y0058479D01*
X0162800Y0056935D01*
X0162800Y0049065D01*
X0163439Y0047521D01*
X0164621Y0046339D01*
X0166165Y0045700D01*
X0167835Y0045700D01*
X0165613Y0045929D02*
X0158387Y0045929D01*
X0157835Y0045700D02*
X0159379Y0046339D01*
X0160561Y0047521D01*
X0161200Y0049065D01*
X0161200Y0056935D01*
X0160561Y0058479D01*
X0159379Y0059661D01*
X0157835Y0060300D01*
X0156165Y0060300D01*
X0154621Y0059661D01*
X0153439Y0058479D01*
X0152800Y0056935D01*
X0152800Y0049065D01*
X0153439Y0047521D01*
X0154621Y0046339D01*
X0156165Y0045700D01*
X0157835Y0045700D01*
X0155613Y0045929D02*
X0148387Y0045929D01*
X0149967Y0046927D02*
X0154033Y0046927D01*
X0153272Y0047926D02*
X0150728Y0047926D01*
X0151142Y0048924D02*
X0152858Y0048924D01*
X0152800Y0049923D02*
X0151200Y0049923D01*
X0151200Y0050921D02*
X0152800Y0050921D01*
X0152800Y0051920D02*
X0151200Y0051920D01*
X0151200Y0052918D02*
X0152800Y0052918D01*
X0152800Y0053917D02*
X0151200Y0053917D01*
X0151200Y0054915D02*
X0152800Y0054915D01*
X0152800Y0055914D02*
X0151200Y0055914D01*
X0151200Y0056912D02*
X0152800Y0056912D01*
X0153204Y0057911D02*
X0150796Y0057911D01*
X0150130Y0058909D02*
X0153870Y0058909D01*
X0155217Y0059908D02*
X0148782Y0059908D01*
X0149166Y0062903D02*
X0204127Y0062903D01*
X0203128Y0063902D02*
X0150164Y0063902D01*
X0151163Y0064900D02*
X0202130Y0064900D01*
X0201131Y0065899D02*
X0152162Y0065899D01*
X0152000Y0068000D02*
X0147000Y0063000D01*
X0147000Y0053000D01*
X0142800Y0052918D02*
X0141200Y0052918D01*
X0141200Y0051920D02*
X0142800Y0051920D01*
X0142800Y0050921D02*
X0141200Y0050921D01*
X0141200Y0049923D02*
X0142800Y0049923D01*
X0142858Y0048924D02*
X0141142Y0048924D01*
X0141200Y0049065D02*
X0141200Y0056935D01*
X0140561Y0058479D01*
X0139379Y0059661D01*
X0138600Y0059983D01*
X0138600Y0062337D01*
X0147663Y0071400D01*
X0177663Y0071400D01*
X0178600Y0072337D01*
X0198600Y0092337D01*
X0198600Y0118663D01*
X0197663Y0119600D01*
X0192663Y0124600D01*
X0172663Y0124600D01*
X0169548Y0127715D01*
X0170137Y0128304D01*
X0170700Y0129664D01*
X0170700Y0136336D01*
X0170137Y0137696D01*
X0169096Y0138737D01*
X0167736Y0139300D01*
X0166264Y0139300D01*
X0164904Y0138737D01*
X0163863Y0137696D01*
X0163300Y0136336D01*
X0163300Y0129664D01*
X0163863Y0128304D01*
X0164904Y0127263D01*
X0165877Y0126860D01*
X0170400Y0122337D01*
X0171337Y0121400D01*
X0191337Y0121400D01*
X0195400Y0117337D01*
X0195400Y0093663D01*
X0176337Y0074600D01*
X0146337Y0074600D01*
X0136337Y0064600D01*
X0135400Y0063663D01*
X0135400Y0059983D01*
X0134621Y0059661D01*
X0133439Y0058479D01*
X0132800Y0056935D01*
X0132800Y0049065D01*
X0133439Y0047521D01*
X0134621Y0046339D01*
X0136165Y0045700D01*
X0137835Y0045700D01*
X0139379Y0046339D01*
X0140561Y0047521D01*
X0141200Y0049065D01*
X0140728Y0047926D02*
X0143272Y0047926D01*
X0144033Y0046927D02*
X0139967Y0046927D01*
X0138387Y0045929D02*
X0145613Y0045929D01*
X0142800Y0053917D02*
X0141200Y0053917D01*
X0141200Y0054915D02*
X0142800Y0054915D01*
X0142800Y0055914D02*
X0141200Y0055914D01*
X0141200Y0056912D02*
X0142800Y0056912D01*
X0143204Y0057911D02*
X0140796Y0057911D01*
X0140130Y0058909D02*
X0143870Y0058909D01*
X0145218Y0059908D02*
X0138782Y0059908D01*
X0138600Y0060906D02*
X0145400Y0060906D01*
X0145400Y0061905D02*
X0138600Y0061905D01*
X0139166Y0062903D02*
X0145400Y0062903D01*
X0145639Y0063902D02*
X0140164Y0063902D01*
X0141163Y0064900D02*
X0146638Y0064900D01*
X0147636Y0065899D02*
X0142162Y0065899D01*
X0143160Y0066897D02*
X0148635Y0066897D01*
X0149633Y0067896D02*
X0144159Y0067896D01*
X0145157Y0068894D02*
X0150632Y0068894D01*
X0152000Y0068000D02*
X0182000Y0068000D01*
X0202000Y0088000D01*
X0202000Y0138000D01*
X0197000Y0143000D01*
X0182000Y0143000D01*
X0177000Y0138000D01*
X0177000Y0133000D01*
X0180700Y0132799D02*
X0183300Y0132799D01*
X0183300Y0131801D02*
X0180700Y0131801D01*
X0180700Y0130802D02*
X0183300Y0130802D01*
X0183300Y0129803D02*
X0180700Y0129803D01*
X0180344Y0128805D02*
X0183656Y0128805D01*
X0183863Y0128304D02*
X0184904Y0127263D01*
X0186264Y0126700D01*
X0187736Y0126700D01*
X0189096Y0127263D01*
X0190137Y0128304D01*
X0190700Y0129664D01*
X0190700Y0136336D01*
X0190137Y0137696D01*
X0189096Y0138737D01*
X0187736Y0139300D01*
X0186264Y0139300D01*
X0184904Y0138737D01*
X0183863Y0137696D01*
X0183300Y0136336D01*
X0183300Y0129664D01*
X0183863Y0128304D01*
X0184361Y0127806D02*
X0179639Y0127806D01*
X0177997Y0126808D02*
X0186003Y0126808D01*
X0187997Y0126808D02*
X0200400Y0126808D01*
X0200400Y0127806D02*
X0189639Y0127806D01*
X0190344Y0128805D02*
X0200400Y0128805D01*
X0200400Y0129803D02*
X0190700Y0129803D01*
X0190700Y0130802D02*
X0200400Y0130802D01*
X0200400Y0131801D02*
X0190700Y0131801D01*
X0190700Y0132799D02*
X0200400Y0132799D01*
X0200400Y0133798D02*
X0190700Y0133798D01*
X0190700Y0134796D02*
X0200400Y0134796D01*
X0200400Y0135795D02*
X0190700Y0135795D01*
X0190511Y0136793D02*
X0200400Y0136793D01*
X0199946Y0137792D02*
X0190041Y0137792D01*
X0188967Y0138790D02*
X0198947Y0138790D01*
X0197949Y0139789D02*
X0181051Y0139789D01*
X0182050Y0140787D02*
X0196950Y0140787D01*
X0199479Y0142784D02*
X0207900Y0142784D01*
X0207900Y0141786D02*
X0200477Y0141786D01*
X0201476Y0140787D02*
X0208415Y0140787D01*
X0207900Y0141302D02*
X0210302Y0138900D01*
X0213698Y0138900D01*
X0216100Y0141302D01*
X0216100Y0144698D01*
X0213698Y0147100D01*
X0210302Y0147100D01*
X0210232Y0147030D01*
X0208600Y0148663D01*
X0207663Y0149600D01*
X0177663Y0149600D01*
X0169548Y0157715D01*
X0170137Y0158304D01*
X0170700Y0159664D01*
X0170700Y0166336D01*
X0170137Y0167696D01*
X0169096Y0168737D01*
X0167736Y0169300D01*
X0166264Y0169300D01*
X0164904Y0168737D01*
X0163863Y0167696D01*
X0163300Y0166336D01*
X0163300Y0159664D01*
X0163863Y0158304D01*
X0164904Y0157263D01*
X0165877Y0156860D01*
X0166337Y0156400D01*
X0175400Y0147337D01*
X0176337Y0146400D01*
X0206337Y0146400D01*
X0207970Y0144768D01*
X0207900Y0144698D01*
X0207900Y0141302D01*
X0209413Y0139789D02*
X0202474Y0139789D01*
X0203473Y0138790D02*
X0228240Y0138790D01*
X0229239Y0137792D02*
X0203600Y0137792D01*
X0203600Y0136793D02*
X0209995Y0136793D01*
X0210302Y0137100D02*
X0207900Y0134698D01*
X0207900Y0131302D01*
X0210302Y0128900D01*
X0213698Y0128900D01*
X0216100Y0131302D01*
X0216100Y0134698D01*
X0213698Y0137100D01*
X0210302Y0137100D01*
X0208996Y0135795D02*
X0203600Y0135795D01*
X0203600Y0134796D02*
X0207998Y0134796D01*
X0207900Y0133798D02*
X0203600Y0133798D01*
X0203600Y0132799D02*
X0207900Y0132799D01*
X0207900Y0131801D02*
X0203600Y0131801D01*
X0203600Y0130802D02*
X0208400Y0130802D01*
X0209398Y0129803D02*
X0203600Y0129803D01*
X0203600Y0128805D02*
X0229835Y0128805D01*
X0229900Y0129803D02*
X0224602Y0129803D01*
X0223698Y0128900D02*
X0226100Y0131302D01*
X0226100Y0134698D01*
X0223698Y0137100D01*
X0220302Y0137100D01*
X0217900Y0134698D01*
X0217900Y0131302D01*
X0220302Y0128900D01*
X0223698Y0128900D01*
X0225600Y0130802D02*
X0229900Y0130802D01*
X0229900Y0131801D02*
X0226100Y0131801D01*
X0226100Y0132799D02*
X0229900Y0132799D01*
X0229900Y0133798D02*
X0226100Y0133798D01*
X0226002Y0134796D02*
X0229900Y0134796D01*
X0229900Y0135795D02*
X0225004Y0135795D01*
X0224005Y0136793D02*
X0229900Y0136793D01*
X0234100Y0136793D02*
X0262421Y0136793D01*
X0262421Y0135795D02*
X0234100Y0135795D01*
X0234100Y0134796D02*
X0262421Y0134796D01*
X0262421Y0133798D02*
X0234100Y0133798D01*
X0234100Y0137792D02*
X0262421Y0137792D01*
X0262421Y0138790D02*
X0234100Y0138790D01*
X0233181Y0139789D02*
X0262421Y0139789D01*
X0262421Y0140787D02*
X0232183Y0140787D01*
X0231184Y0141786D02*
X0262421Y0141786D01*
X0262421Y0142784D02*
X0230186Y0142784D01*
X0230752Y0143783D02*
X0262421Y0143783D01*
X0262421Y0144781D02*
X0231751Y0144781D01*
X0232750Y0145780D02*
X0262421Y0145780D01*
X0262421Y0146778D02*
X0233748Y0146778D01*
X0234100Y0147777D02*
X0262421Y0147777D01*
X0262421Y0148775D02*
X0234100Y0148775D01*
X0234100Y0149774D02*
X0262421Y0149774D01*
X0262421Y0150772D02*
X0234100Y0150772D01*
X0234100Y0151771D02*
X0262421Y0151771D01*
X0262421Y0152769D02*
X0234100Y0152769D01*
X0234100Y0153768D02*
X0262421Y0153768D01*
X0262421Y0154766D02*
X0234100Y0154766D01*
X0234100Y0155765D02*
X0262421Y0155765D01*
X0262421Y0156763D02*
X0234100Y0156763D01*
X0234100Y0157762D02*
X0262421Y0157762D01*
X0262421Y0158760D02*
X0234100Y0158760D01*
X0234100Y0159759D02*
X0262421Y0159759D01*
X0262421Y0160757D02*
X0234100Y0160757D01*
X0234100Y0161756D02*
X0262421Y0161756D01*
X0262421Y0162754D02*
X0234100Y0162754D01*
X0234100Y0163753D02*
X0262421Y0163753D01*
X0262421Y0164751D02*
X0234100Y0164751D01*
X0234100Y0165750D02*
X0262421Y0165750D01*
X0262421Y0166748D02*
X0234100Y0166748D01*
X0234100Y0167747D02*
X0262421Y0167747D01*
X0262421Y0168745D02*
X0234100Y0168745D01*
X0233226Y0169744D02*
X0262421Y0169744D01*
X0262421Y0170742D02*
X0232227Y0170742D01*
X0231229Y0171741D02*
X0262421Y0171741D01*
X0262421Y0172739D02*
X0230230Y0172739D01*
X0229232Y0173738D02*
X0262421Y0173738D01*
X0262421Y0174737D02*
X0228233Y0174737D01*
X0223703Y0176734D02*
X0262421Y0176734D01*
X0262421Y0177732D02*
X0224100Y0177732D01*
X0224100Y0178731D02*
X0262421Y0178731D01*
X0262421Y0179729D02*
X0224100Y0179729D01*
X0224100Y0180728D02*
X0262421Y0180728D01*
X0262421Y0181726D02*
X0224524Y0181726D01*
X0225495Y0182725D02*
X0262421Y0182725D01*
X0262421Y0183723D02*
X0225909Y0183723D01*
X0226100Y0184722D02*
X0262421Y0184722D01*
X0262421Y0185720D02*
X0226100Y0185720D01*
X0226100Y0186719D02*
X0262421Y0186719D01*
X0262421Y0187717D02*
X0226100Y0187717D01*
X0226100Y0188716D02*
X0262421Y0188716D01*
X0262421Y0189714D02*
X0226100Y0189714D01*
X0226100Y0190713D02*
X0262421Y0190713D01*
X0262421Y0191711D02*
X0248956Y0191711D01*
X0248233Y0191546D02*
X0248233Y0191546D01*
X0246030Y0191711D02*
X0226100Y0191711D01*
X0225730Y0192710D02*
X0241300Y0192710D01*
X0238756Y0193708D02*
X0225090Y0193708D01*
X0224100Y0194707D02*
X0237501Y0194707D01*
X0238750Y0193711D02*
X0238750Y0193711D01*
X0236249Y0195705D02*
X0224100Y0195705D01*
X0224100Y0196704D02*
X0234997Y0196704D01*
X0234905Y0196777D02*
X0234905Y0196777D01*
X0234905Y0196777D01*
X0234274Y0197702D02*
X0224100Y0197702D01*
X0224100Y0198701D02*
X0233593Y0198701D01*
X0232912Y0199699D02*
X0223271Y0199699D01*
X0222272Y0200698D02*
X0232232Y0200698D01*
X0231870Y0201696D02*
X0221274Y0201696D01*
X0220275Y0202695D02*
X0231562Y0202695D01*
X0231254Y0203693D02*
X0219277Y0203693D01*
X0218278Y0204692D02*
X0230946Y0204692D01*
X0230684Y0205690D02*
X0033152Y0205690D01*
X0033001Y0204692D02*
X0075722Y0204692D01*
X0074723Y0203693D02*
X0032851Y0203693D01*
X0032767Y0203137D02*
X0032767Y0203137D01*
X0032554Y0202695D02*
X0073725Y0202695D01*
X0072726Y0201696D02*
X0032073Y0201696D01*
X0031593Y0200698D02*
X0071728Y0200698D01*
X0070729Y0199699D02*
X0031112Y0199699D01*
X0030629Y0198701D02*
X0069900Y0198701D01*
X0069900Y0197702D02*
X0029702Y0197702D01*
X0028776Y0196704D02*
X0069900Y0196704D01*
X0069900Y0195705D02*
X0027849Y0195705D01*
X0027288Y0195100D02*
X0027288Y0195100D01*
X0026607Y0194707D02*
X0030235Y0194707D01*
X0029678Y0194476D02*
X0028524Y0193322D01*
X0027900Y0191816D01*
X0027900Y0184184D01*
X0028524Y0182678D01*
X0029678Y0181524D01*
X0031184Y0180900D01*
X0032816Y0180900D01*
X0034322Y0181524D01*
X0035476Y0182678D01*
X0036100Y0184184D01*
X0036100Y0191816D01*
X0035476Y0193322D01*
X0034322Y0194476D01*
X0032816Y0195100D01*
X0031184Y0195100D01*
X0029678Y0194476D01*
X0028910Y0193708D02*
X0024877Y0193708D01*
X0023148Y0192710D02*
X0028270Y0192710D01*
X0027900Y0191711D02*
X0019442Y0191711D01*
X0019793Y0190713D02*
X0027900Y0190713D01*
X0027900Y0189714D02*
X0019793Y0189714D01*
X0019500Y0188716D02*
X0027900Y0188716D01*
X0027900Y0187717D02*
X0018959Y0187717D01*
X0019793Y0186719D02*
X0027900Y0186719D01*
X0027900Y0185720D02*
X0019793Y0185720D01*
X0019793Y0184722D02*
X0027900Y0184722D01*
X0028091Y0183723D02*
X0019793Y0183723D01*
X0018970Y0182725D02*
X0028505Y0182725D01*
X0029476Y0181726D02*
X0017971Y0181726D01*
X0017917Y0180728D02*
X0071303Y0180728D01*
X0072301Y0179729D02*
X0019562Y0179729D01*
X0019895Y0178731D02*
X0073300Y0178731D01*
X0074298Y0177732D02*
X0019536Y0177732D01*
X0019811Y0175943D02*
X0018444Y0175943D01*
X0017477Y0174976D01*
X0017477Y0169672D01*
X0017652Y0169497D01*
X0013523Y0169497D01*
X0011554Y0169497D01*
X0010588Y0168531D01*
X0010588Y0167164D01*
X0011554Y0166197D01*
X0012556Y0166197D01*
X0012556Y0164211D01*
X0013523Y0163245D01*
X0013626Y0163142D01*
X0013523Y0163142D01*
X0012556Y0162175D01*
X0012556Y0159824D01*
X0012857Y0159523D01*
X0012556Y0159223D01*
X0012556Y0157856D01*
X0013523Y0156889D01*
X0013716Y0156889D01*
X0013540Y0156714D01*
X0012556Y0155730D01*
X0012556Y0152394D01*
X0013523Y0151428D01*
X0014890Y0151428D01*
X0015190Y0151729D01*
X0015491Y0151428D01*
X0015491Y0151428D01*
X0015514Y0151405D01*
X0015684Y0151235D01*
X0014507Y0151235D01*
X0013523Y0150251D01*
X0012556Y0149284D01*
X0012556Y0145949D01*
X0013540Y0144965D01*
X0014111Y0144394D01*
X0013523Y0143805D01*
X0012556Y0142839D01*
X0012556Y0140853D01*
X0011554Y0140853D01*
X0010588Y0139886D01*
X0010588Y0138519D01*
X0011554Y0137553D01*
X0013716Y0137553D01*
X0013540Y0137377D01*
X0012556Y0136393D01*
X0012556Y0133058D01*
X0013523Y0132091D01*
X0014890Y0132091D01*
X0015190Y0132392D01*
X0015491Y0132091D01*
X0015514Y0132068D01*
X0015684Y0131898D01*
X0013523Y0131898D01*
X0012556Y0130932D01*
X0012556Y0126612D01*
X0013540Y0125628D01*
X0014111Y0125057D01*
X0013540Y0124486D01*
X0012556Y0123502D01*
X0012556Y0119183D01*
X0013523Y0118216D01*
X0013716Y0118216D01*
X0013540Y0118041D01*
X0012556Y0117057D01*
X0012556Y0113721D01*
X0013523Y0112755D01*
X0014890Y0112755D01*
X0015190Y0113056D01*
X0015491Y0112755D01*
X0015514Y0112732D01*
X0016080Y0112166D01*
X0015682Y0111769D01*
X0014890Y0112562D01*
X0013523Y0112562D01*
X0012556Y0111595D01*
X0012556Y0107276D01*
X0013523Y0106309D01*
X0014507Y0105325D01*
X0015874Y0105325D01*
X0016667Y0106118D01*
X0017459Y0105325D01*
X0018826Y0105325D01*
X0019793Y0106292D01*
X0019793Y0110611D01*
X0018238Y0112166D01*
X0019793Y0113721D01*
X0019793Y0118041D01*
X0019222Y0118612D01*
X0019793Y0119183D01*
X0019793Y0120550D01*
X0018826Y0121516D01*
X0015856Y0121516D01*
X0015856Y0122135D01*
X0015874Y0122153D01*
X0018826Y0122153D01*
X0019793Y0123119D01*
X0019793Y0124486D01*
X0018826Y0125453D01*
X0018633Y0125453D01*
X0018826Y0125646D01*
X0019793Y0126612D01*
X0019793Y0126630D01*
X0020795Y0126630D01*
X0021761Y0127597D01*
X0021761Y0129948D01*
X0021747Y0129962D01*
X0020795Y0130914D01*
X0020795Y0130914D01*
X0020777Y0130932D01*
X0019811Y0131898D01*
X0018633Y0131898D01*
X0019793Y0133058D01*
X0019793Y0137377D01*
X0019222Y0137948D01*
X0019793Y0138519D01*
X0019793Y0142839D01*
X0018809Y0143823D01*
X0018238Y0144394D01*
X0019793Y0145949D01*
X0019793Y0149284D01*
X0018809Y0150268D01*
X0018238Y0150839D01*
X0019793Y0152394D01*
X0019793Y0156714D01*
X0019222Y0157285D01*
X0019793Y0157856D01*
X0019793Y0159223D01*
X0018826Y0160189D01*
X0016858Y0160189D01*
X0015856Y0161191D01*
X0015856Y0162175D01*
X0015771Y0162260D01*
X0017842Y0162260D01*
X0018809Y0163227D01*
X0019793Y0164211D01*
X0019793Y0168531D01*
X0019618Y0168706D01*
X0019811Y0168706D01*
X0020777Y0169672D01*
X0020777Y0174976D01*
X0019811Y0175943D01*
X0020018Y0175735D02*
X0096295Y0175735D01*
X0097294Y0174737D02*
X0020777Y0174737D01*
X0020777Y0173738D02*
X0098292Y0173738D01*
X0099291Y0172739D02*
X0020777Y0172739D01*
X0020777Y0171741D02*
X0099900Y0171741D01*
X0099900Y0170742D02*
X0020777Y0170742D01*
X0020777Y0169744D02*
X0099900Y0169744D01*
X0099900Y0168745D02*
X0094075Y0168745D01*
X0094096Y0168737D02*
X0092736Y0169300D01*
X0091264Y0169300D01*
X0089904Y0168737D01*
X0088863Y0167696D01*
X0088300Y0166336D01*
X0088300Y0159664D01*
X0088863Y0158304D01*
X0089904Y0157263D01*
X0091264Y0156700D01*
X0092736Y0156700D01*
X0094096Y0157263D01*
X0095137Y0158304D01*
X0095700Y0159664D01*
X0095700Y0166336D01*
X0095137Y0167696D01*
X0094096Y0168737D01*
X0095086Y0167747D02*
X0098914Y0167747D01*
X0098471Y0166748D02*
X0095529Y0166748D01*
X0095700Y0165750D02*
X0098300Y0165750D01*
X0098300Y0164751D02*
X0095700Y0164751D01*
X0095700Y0163753D02*
X0098300Y0163753D01*
X0098300Y0162754D02*
X0095700Y0162754D01*
X0095700Y0161756D02*
X0098300Y0161756D01*
X0098300Y0160757D02*
X0095700Y0160757D01*
X0095700Y0159759D02*
X0098300Y0159759D01*
X0098674Y0158760D02*
X0095326Y0158760D01*
X0094594Y0157762D02*
X0099406Y0157762D01*
X0101111Y0156763D02*
X0092889Y0156763D01*
X0091111Y0156763D02*
X0082889Y0156763D01*
X0082736Y0156700D02*
X0084096Y0157263D01*
X0085137Y0158304D01*
X0085700Y0159664D01*
X0085700Y0166336D01*
X0085137Y0167696D01*
X0084096Y0168737D01*
X0082736Y0169300D01*
X0081264Y0169300D01*
X0079904Y0168737D01*
X0078863Y0167696D01*
X0078300Y0166336D01*
X0078300Y0159664D01*
X0078863Y0158304D01*
X0079904Y0157263D01*
X0081264Y0156700D01*
X0082736Y0156700D01*
X0081111Y0156763D02*
X0072889Y0156763D01*
X0072736Y0156700D02*
X0074096Y0157263D01*
X0075137Y0158304D01*
X0075700Y0159664D01*
X0075700Y0166336D01*
X0075137Y0167696D01*
X0074096Y0168737D01*
X0072736Y0169300D01*
X0071264Y0169300D01*
X0069904Y0168737D01*
X0068863Y0167696D01*
X0068300Y0166336D01*
X0068300Y0159664D01*
X0068863Y0158304D01*
X0069904Y0157263D01*
X0071264Y0156700D01*
X0072736Y0156700D01*
X0071111Y0156763D02*
X0062889Y0156763D01*
X0062736Y0156700D02*
X0064096Y0157263D01*
X0065137Y0158304D01*
X0065700Y0159664D01*
X0065700Y0166336D01*
X0065137Y0167696D01*
X0064096Y0168737D01*
X0062736Y0169300D01*
X0061264Y0169300D01*
X0059904Y0168737D01*
X0058863Y0167696D01*
X0058300Y0166336D01*
X0058300Y0159664D01*
X0058863Y0158304D01*
X0059904Y0157263D01*
X0061264Y0156700D01*
X0062736Y0156700D01*
X0061111Y0156763D02*
X0052889Y0156763D01*
X0052736Y0156700D02*
X0054096Y0157263D01*
X0055137Y0158304D01*
X0055700Y0159664D01*
X0055700Y0166336D01*
X0055137Y0167696D01*
X0054096Y0168737D01*
X0052736Y0169300D01*
X0051264Y0169300D01*
X0049904Y0168737D01*
X0048863Y0167696D01*
X0048300Y0166336D01*
X0048300Y0159664D01*
X0048863Y0158304D01*
X0049904Y0157263D01*
X0051264Y0156700D01*
X0052736Y0156700D01*
X0051111Y0156763D02*
X0042889Y0156763D01*
X0042736Y0156700D02*
X0044096Y0157263D01*
X0045137Y0158304D01*
X0045700Y0159664D01*
X0045700Y0166336D01*
X0045137Y0167696D01*
X0044096Y0168737D01*
X0042736Y0169300D01*
X0041264Y0169300D01*
X0039904Y0168737D01*
X0038863Y0167696D01*
X0038300Y0166336D01*
X0038300Y0159664D01*
X0038863Y0158304D01*
X0039904Y0157263D01*
X0041264Y0156700D01*
X0042736Y0156700D01*
X0041111Y0156763D02*
X0032889Y0156763D01*
X0032736Y0156700D02*
X0034096Y0157263D01*
X0035137Y0158304D01*
X0035700Y0159664D01*
X0035700Y0166336D01*
X0035137Y0167696D01*
X0034096Y0168737D01*
X0032736Y0169300D01*
X0031264Y0169300D01*
X0029904Y0168737D01*
X0028863Y0167696D01*
X0028300Y0166336D01*
X0028300Y0159664D01*
X0028863Y0158304D01*
X0029904Y0157263D01*
X0031264Y0156700D01*
X0032736Y0156700D01*
X0031111Y0156763D02*
X0019743Y0156763D01*
X0019793Y0155765D02*
X0166972Y0155765D01*
X0165974Y0156763D02*
X0157889Y0156763D01*
X0157736Y0156700D02*
X0159096Y0157263D01*
X0160137Y0158304D01*
X0160700Y0159664D01*
X0160700Y0166336D01*
X0160137Y0167696D01*
X0159096Y0168737D01*
X0157736Y0169300D01*
X0156264Y0169300D01*
X0154904Y0168737D01*
X0153863Y0167696D01*
X0153300Y0166336D01*
X0153300Y0159664D01*
X0153863Y0158304D01*
X0154904Y0157263D01*
X0156264Y0156700D01*
X0157736Y0156700D01*
X0156111Y0156763D02*
X0147889Y0156763D01*
X0147736Y0156700D02*
X0149096Y0157263D01*
X0150137Y0158304D01*
X0150700Y0159664D01*
X0150700Y0166336D01*
X0150137Y0167696D01*
X0149096Y0168737D01*
X0147736Y0169300D01*
X0146264Y0169300D01*
X0144904Y0168737D01*
X0143863Y0167696D01*
X0143300Y0166336D01*
X0143300Y0159664D01*
X0143863Y0158304D01*
X0144904Y0157263D01*
X0146264Y0156700D01*
X0147736Y0156700D01*
X0146111Y0156763D02*
X0137889Y0156763D01*
X0137736Y0156700D02*
X0139096Y0157263D01*
X0140137Y0158304D01*
X0140700Y0159664D01*
X0140700Y0166336D01*
X0140137Y0167696D01*
X0139548Y0168285D01*
X0142663Y0171400D01*
X0167663Y0171400D01*
X0168600Y0172337D01*
X0172663Y0176400D01*
X0187663Y0176400D01*
X0188600Y0177337D01*
X0192163Y0180900D01*
X0192816Y0180900D01*
X0194322Y0181524D01*
X0195476Y0182678D01*
X0196100Y0184184D01*
X0196100Y0191816D01*
X0195476Y0193322D01*
X0194322Y0194476D01*
X0192816Y0195100D01*
X0191184Y0195100D01*
X0189678Y0194476D01*
X0188524Y0193322D01*
X0187900Y0191816D01*
X0187900Y0184184D01*
X0188524Y0182678D01*
X0188970Y0182232D01*
X0186337Y0179600D01*
X0171337Y0179600D01*
X0166337Y0174600D01*
X0141337Y0174600D01*
X0140400Y0173663D01*
X0135877Y0169140D01*
X0134904Y0168737D01*
X0133863Y0167696D01*
X0133300Y0166336D01*
X0133300Y0159664D01*
X0133863Y0158304D01*
X0134904Y0157263D01*
X0136264Y0156700D01*
X0137736Y0156700D01*
X0136111Y0156763D02*
X0127889Y0156763D01*
X0127736Y0156700D02*
X0129096Y0157263D01*
X0130137Y0158304D01*
X0130700Y0159664D01*
X0130700Y0166336D01*
X0130137Y0167696D01*
X0129548Y0168285D01*
X0137663Y0176400D01*
X0162663Y0176400D01*
X0163600Y0177337D01*
X0163600Y0177337D01*
X0172663Y0186400D01*
X0177900Y0186400D01*
X0177900Y0184184D01*
X0178524Y0182678D01*
X0179678Y0181524D01*
X0181184Y0180900D01*
X0182816Y0180900D01*
X0184322Y0181524D01*
X0185476Y0182678D01*
X0186100Y0184184D01*
X0186100Y0191816D01*
X0185476Y0193322D01*
X0184322Y0194476D01*
X0182816Y0195100D01*
X0181184Y0195100D01*
X0179678Y0194476D01*
X0178524Y0193322D01*
X0177900Y0191816D01*
X0177900Y0189600D01*
X0171337Y0189600D01*
X0170400Y0188663D01*
X0170400Y0188663D01*
X0161337Y0179600D01*
X0136337Y0179600D01*
X0135400Y0178663D01*
X0125877Y0169140D01*
X0124904Y0168737D01*
X0123863Y0167696D01*
X0123300Y0166336D01*
X0123300Y0159664D01*
X0123863Y0158304D01*
X0124904Y0157263D01*
X0126264Y0156700D01*
X0127736Y0156700D01*
X0126111Y0156763D02*
X0117889Y0156763D01*
X0117736Y0156700D02*
X0119096Y0157263D01*
X0120137Y0158304D01*
X0120700Y0159664D01*
X0120700Y0166336D01*
X0120137Y0167696D01*
X0119096Y0168737D01*
X0117736Y0169300D01*
X0116264Y0169300D01*
X0114904Y0168737D01*
X0113863Y0167696D01*
X0113300Y0166336D01*
X0113300Y0159664D01*
X0113863Y0158304D01*
X0114904Y0157263D01*
X0116264Y0156700D01*
X0117736Y0156700D01*
X0116111Y0156763D02*
X0102889Y0156763D01*
X0104594Y0157762D02*
X0114406Y0157762D01*
X0113674Y0158760D02*
X0105326Y0158760D01*
X0105700Y0159759D02*
X0113300Y0159759D01*
X0113300Y0160757D02*
X0105700Y0160757D01*
X0105700Y0161756D02*
X0113300Y0161756D01*
X0113300Y0162754D02*
X0105700Y0162754D01*
X0105700Y0163753D02*
X0113300Y0163753D01*
X0113300Y0164751D02*
X0105700Y0164751D01*
X0105700Y0165750D02*
X0113300Y0165750D01*
X0113471Y0166748D02*
X0105529Y0166748D01*
X0105086Y0167747D02*
X0113914Y0167747D01*
X0114925Y0168745D02*
X0104100Y0168745D01*
X0104100Y0169744D02*
X0126481Y0169744D01*
X0127480Y0170742D02*
X0104100Y0170742D01*
X0104100Y0171741D02*
X0128478Y0171741D01*
X0129477Y0172739D02*
X0104100Y0172739D01*
X0104100Y0173738D02*
X0130475Y0173738D01*
X0131474Y0174737D02*
X0103233Y0174737D01*
X0102235Y0175735D02*
X0132472Y0175735D01*
X0133471Y0176734D02*
X0101236Y0176734D01*
X0100238Y0177732D02*
X0134469Y0177732D01*
X0135468Y0178731D02*
X0099239Y0178731D01*
X0098241Y0179729D02*
X0161466Y0179729D01*
X0162465Y0180728D02*
X0077242Y0180728D01*
X0076244Y0181726D02*
X0104476Y0181726D01*
X0104678Y0181524D02*
X0106184Y0180900D01*
X0107816Y0180900D01*
X0109322Y0181524D01*
X0110476Y0182678D01*
X0111100Y0184184D01*
X0111100Y0191816D01*
X0110476Y0193322D01*
X0109322Y0194476D01*
X0107816Y0195100D01*
X0106184Y0195100D01*
X0104678Y0194476D01*
X0103524Y0193322D01*
X0102900Y0191816D01*
X0102900Y0184184D01*
X0103524Y0182678D01*
X0104678Y0181524D01*
X0103505Y0182725D02*
X0075495Y0182725D01*
X0075909Y0183723D02*
X0103091Y0183723D01*
X0102900Y0184722D02*
X0076100Y0184722D01*
X0076100Y0185720D02*
X0102900Y0185720D01*
X0102900Y0186719D02*
X0076100Y0186719D01*
X0076100Y0187717D02*
X0102900Y0187717D01*
X0102900Y0188716D02*
X0076100Y0188716D01*
X0076100Y0189714D02*
X0102900Y0189714D01*
X0102900Y0190713D02*
X0076100Y0190713D01*
X0076100Y0191711D02*
X0102900Y0191711D01*
X0103270Y0192710D02*
X0075730Y0192710D01*
X0075090Y0193708D02*
X0103910Y0193708D01*
X0105235Y0194707D02*
X0074100Y0194707D01*
X0074100Y0195705D02*
X0144900Y0195705D01*
X0144900Y0194707D02*
X0138765Y0194707D01*
X0139322Y0194476D02*
X0137816Y0195100D01*
X0136184Y0195100D01*
X0134678Y0194476D01*
X0133524Y0193322D01*
X0132900Y0191816D01*
X0132900Y0184184D01*
X0133524Y0182678D01*
X0134678Y0181524D01*
X0136184Y0180900D01*
X0137816Y0180900D01*
X0139322Y0181524D01*
X0140476Y0182678D01*
X0141100Y0184184D01*
X0141100Y0191816D01*
X0140476Y0193322D01*
X0139322Y0194476D01*
X0140090Y0193708D02*
X0143910Y0193708D01*
X0143270Y0192710D02*
X0140730Y0192710D01*
X0141100Y0191711D02*
X0142900Y0191711D01*
X0142900Y0190713D02*
X0141100Y0190713D01*
X0141100Y0189714D02*
X0142900Y0189714D01*
X0142900Y0188716D02*
X0141100Y0188716D01*
X0141100Y0187717D02*
X0142900Y0187717D01*
X0142900Y0186719D02*
X0141100Y0186719D01*
X0141100Y0185720D02*
X0142900Y0185720D01*
X0142900Y0184722D02*
X0141100Y0184722D01*
X0140909Y0183723D02*
X0143091Y0183723D01*
X0143505Y0182725D02*
X0140495Y0182725D01*
X0139524Y0181726D02*
X0144476Y0181726D01*
X0149524Y0181726D02*
X0163463Y0181726D01*
X0164462Y0182725D02*
X0150495Y0182725D01*
X0150909Y0183723D02*
X0165460Y0183723D01*
X0166459Y0184722D02*
X0151100Y0184722D01*
X0151100Y0185720D02*
X0167457Y0185720D01*
X0168456Y0186719D02*
X0151100Y0186719D01*
X0151100Y0187717D02*
X0169454Y0187717D01*
X0170453Y0188716D02*
X0151100Y0188716D01*
X0151100Y0189714D02*
X0177900Y0189714D01*
X0177900Y0190713D02*
X0151100Y0190713D01*
X0151100Y0191711D02*
X0177900Y0191711D01*
X0178270Y0192710D02*
X0150730Y0192710D01*
X0150090Y0193708D02*
X0178910Y0193708D01*
X0180235Y0194707D02*
X0149100Y0194707D01*
X0149100Y0195705D02*
X0219900Y0195705D01*
X0219900Y0194707D02*
X0213765Y0194707D01*
X0214322Y0194476D02*
X0212816Y0195100D01*
X0211184Y0195100D01*
X0209678Y0194476D01*
X0208524Y0193322D01*
X0207900Y0191816D01*
X0207900Y0184184D01*
X0208524Y0182678D01*
X0209678Y0181524D01*
X0211184Y0180900D01*
X0212816Y0180900D01*
X0214322Y0181524D01*
X0215476Y0182678D01*
X0216100Y0184184D01*
X0216100Y0191816D01*
X0215476Y0193322D01*
X0214322Y0194476D01*
X0215090Y0193708D02*
X0218910Y0193708D01*
X0218270Y0192710D02*
X0215730Y0192710D01*
X0216100Y0191711D02*
X0217900Y0191711D01*
X0217900Y0190713D02*
X0216100Y0190713D01*
X0216100Y0189714D02*
X0217900Y0189714D01*
X0217900Y0188716D02*
X0216100Y0188716D01*
X0216100Y0187717D02*
X0217900Y0187717D01*
X0217900Y0186719D02*
X0216100Y0186719D01*
X0216100Y0185720D02*
X0217900Y0185720D01*
X0217900Y0184722D02*
X0216100Y0184722D01*
X0215909Y0183723D02*
X0218091Y0183723D01*
X0218505Y0182725D02*
X0215495Y0182725D01*
X0214524Y0181726D02*
X0219476Y0181726D01*
X0219900Y0180728D02*
X0191990Y0180728D01*
X0190992Y0179729D02*
X0219900Y0179729D01*
X0219761Y0178731D02*
X0189993Y0178731D01*
X0188995Y0177732D02*
X0218762Y0177732D01*
X0217764Y0176734D02*
X0187996Y0176734D01*
X0187000Y0178000D02*
X0172000Y0178000D01*
X0167000Y0173000D01*
X0142000Y0173000D01*
X0137000Y0168000D01*
X0137000Y0163000D01*
X0140700Y0162754D02*
X0143300Y0162754D01*
X0143300Y0161756D02*
X0140700Y0161756D01*
X0140700Y0160757D02*
X0143300Y0160757D01*
X0143300Y0159759D02*
X0140700Y0159759D01*
X0140326Y0158760D02*
X0143674Y0158760D01*
X0144406Y0157762D02*
X0139594Y0157762D01*
X0134406Y0157762D02*
X0129594Y0157762D01*
X0130326Y0158760D02*
X0133674Y0158760D01*
X0133300Y0159759D02*
X0130700Y0159759D01*
X0130700Y0160757D02*
X0133300Y0160757D01*
X0133300Y0161756D02*
X0130700Y0161756D01*
X0130700Y0162754D02*
X0133300Y0162754D01*
X0133300Y0163753D02*
X0130700Y0163753D01*
X0130700Y0164751D02*
X0133300Y0164751D01*
X0133300Y0165750D02*
X0130700Y0165750D01*
X0130529Y0166748D02*
X0133471Y0166748D01*
X0133914Y0167747D02*
X0130086Y0167747D01*
X0130008Y0168745D02*
X0134925Y0168745D01*
X0136481Y0169744D02*
X0131007Y0169744D01*
X0132005Y0170742D02*
X0137480Y0170742D01*
X0138478Y0171741D02*
X0133004Y0171741D01*
X0134002Y0172739D02*
X0139477Y0172739D01*
X0140475Y0173738D02*
X0135001Y0173738D01*
X0135999Y0174737D02*
X0166474Y0174737D01*
X0167472Y0175735D02*
X0136998Y0175735D01*
X0137000Y0178000D02*
X0162000Y0178000D01*
X0172000Y0188000D01*
X0182000Y0188000D01*
X0186100Y0187717D02*
X0187900Y0187717D01*
X0187900Y0186719D02*
X0186100Y0186719D01*
X0186100Y0185720D02*
X0187900Y0185720D01*
X0187900Y0184722D02*
X0186100Y0184722D01*
X0185909Y0183723D02*
X0188091Y0183723D01*
X0188505Y0182725D02*
X0185495Y0182725D01*
X0184524Y0181726D02*
X0188463Y0181726D01*
X0187465Y0180728D02*
X0166990Y0180728D01*
X0167989Y0181726D02*
X0179476Y0181726D01*
X0178505Y0182725D02*
X0168987Y0182725D01*
X0169986Y0183723D02*
X0178091Y0183723D01*
X0177900Y0184722D02*
X0170984Y0184722D01*
X0171983Y0185720D02*
X0177900Y0185720D01*
X0186100Y0188716D02*
X0187900Y0188716D01*
X0187900Y0189714D02*
X0186100Y0189714D01*
X0186100Y0190713D02*
X0187900Y0190713D01*
X0187900Y0191711D02*
X0186100Y0191711D01*
X0185730Y0192710D02*
X0188270Y0192710D01*
X0188910Y0193708D02*
X0185090Y0193708D01*
X0183765Y0194707D02*
X0190235Y0194707D01*
X0193765Y0194707D02*
X0200235Y0194707D01*
X0199678Y0194476D02*
X0198524Y0193322D01*
X0197900Y0191816D01*
X0197900Y0184184D01*
X0198524Y0182678D01*
X0199678Y0181524D01*
X0201184Y0180900D01*
X0202816Y0180900D01*
X0204322Y0181524D01*
X0205476Y0182678D01*
X0206100Y0184184D01*
X0206100Y0191816D01*
X0205476Y0193322D01*
X0204322Y0194476D01*
X0202816Y0195100D01*
X0201184Y0195100D01*
X0199678Y0194476D01*
X0198910Y0193708D02*
X0195090Y0193708D01*
X0195730Y0192710D02*
X0198270Y0192710D01*
X0197900Y0191711D02*
X0196100Y0191711D01*
X0196100Y0190713D02*
X0197900Y0190713D01*
X0197900Y0189714D02*
X0196100Y0189714D01*
X0196100Y0188716D02*
X0197900Y0188716D01*
X0197900Y0187717D02*
X0196100Y0187717D01*
X0196100Y0186719D02*
X0197900Y0186719D01*
X0197900Y0185720D02*
X0196100Y0185720D01*
X0196100Y0184722D02*
X0197900Y0184722D01*
X0198091Y0183723D02*
X0195909Y0183723D01*
X0195495Y0182725D02*
X0198505Y0182725D01*
X0199476Y0181726D02*
X0194524Y0181726D01*
X0192000Y0183000D02*
X0187000Y0178000D01*
X0186466Y0179729D02*
X0165992Y0179729D01*
X0164993Y0178731D02*
X0170468Y0178731D01*
X0169469Y0177732D02*
X0163995Y0177732D01*
X0162996Y0176734D02*
X0168471Y0176734D01*
X0170999Y0174737D02*
X0195767Y0174737D01*
X0194768Y0173738D02*
X0170001Y0173738D01*
X0169002Y0172739D02*
X0193770Y0172739D01*
X0192771Y0171741D02*
X0168004Y0171741D01*
X0169075Y0168745D02*
X0174925Y0168745D01*
X0174904Y0168737D02*
X0173863Y0167696D01*
X0173300Y0166336D01*
X0173300Y0159664D01*
X0173863Y0158304D01*
X0174904Y0157263D01*
X0175877Y0156860D01*
X0180400Y0152337D01*
X0181337Y0151400D01*
X0207900Y0151400D01*
X0207900Y0151302D01*
X0210302Y0148900D01*
X0213698Y0148900D01*
X0216100Y0151302D01*
X0216100Y0154698D01*
X0213698Y0157100D01*
X0210302Y0157100D01*
X0207900Y0154698D01*
X0207900Y0154600D01*
X0182663Y0154600D01*
X0179548Y0157715D01*
X0180137Y0158304D01*
X0180700Y0159664D01*
X0180700Y0166336D01*
X0180137Y0167696D01*
X0179096Y0168737D01*
X0177736Y0169300D01*
X0176264Y0169300D01*
X0174904Y0168737D01*
X0173914Y0167747D02*
X0170086Y0167747D01*
X0170529Y0166748D02*
X0173471Y0166748D01*
X0173300Y0165750D02*
X0170700Y0165750D01*
X0170700Y0164751D02*
X0173300Y0164751D01*
X0173300Y0163753D02*
X0170700Y0163753D01*
X0170700Y0162754D02*
X0173300Y0162754D01*
X0173300Y0161756D02*
X0170700Y0161756D01*
X0170700Y0160757D02*
X0173300Y0160757D01*
X0173300Y0159759D02*
X0170700Y0159759D01*
X0170326Y0158760D02*
X0173674Y0158760D01*
X0174406Y0157762D02*
X0169594Y0157762D01*
X0170499Y0156763D02*
X0175974Y0156763D01*
X0176972Y0155765D02*
X0171498Y0155765D01*
X0172496Y0154766D02*
X0177971Y0154766D01*
X0178969Y0153768D02*
X0173495Y0153768D01*
X0174493Y0152769D02*
X0179968Y0152769D01*
X0180967Y0151771D02*
X0175492Y0151771D01*
X0176490Y0150772D02*
X0208429Y0150772D01*
X0209428Y0149774D02*
X0177489Y0149774D01*
X0177000Y0148000D02*
X0207000Y0148000D01*
X0212000Y0143000D01*
X0215019Y0145780D02*
X0218981Y0145780D01*
X0219900Y0146778D02*
X0214020Y0146778D01*
X0216017Y0144781D02*
X0217983Y0144781D01*
X0217900Y0143783D02*
X0216100Y0143783D01*
X0216100Y0142784D02*
X0217900Y0142784D01*
X0217900Y0141786D02*
X0216100Y0141786D01*
X0215585Y0140787D02*
X0218415Y0140787D01*
X0219413Y0139789D02*
X0214587Y0139789D01*
X0214005Y0136793D02*
X0219995Y0136793D01*
X0218996Y0135795D02*
X0215004Y0135795D01*
X0216002Y0134796D02*
X0217998Y0134796D01*
X0217900Y0133798D02*
X0216100Y0133798D01*
X0216100Y0132799D02*
X0217900Y0132799D01*
X0217900Y0131801D02*
X0216100Y0131801D01*
X0215600Y0130802D02*
X0218400Y0130802D01*
X0219398Y0129803D02*
X0214602Y0129803D01*
X0216788Y0119818D02*
X0247900Y0119818D01*
X0247900Y0118820D02*
X0215790Y0118820D01*
X0214791Y0117821D02*
X0247900Y0117821D01*
X0247900Y0116823D02*
X0213793Y0116823D01*
X0212794Y0115824D02*
X0247900Y0115824D01*
X0247900Y0114826D02*
X0211796Y0114826D01*
X0200400Y0114826D02*
X0198600Y0114826D01*
X0198600Y0115824D02*
X0200400Y0115824D01*
X0200400Y0116823D02*
X0198600Y0116823D01*
X0198600Y0117821D02*
X0200400Y0117821D01*
X0200400Y0118820D02*
X0198443Y0118820D01*
X0197444Y0119818D02*
X0200400Y0119818D01*
X0200400Y0120817D02*
X0196446Y0120817D01*
X0195447Y0121815D02*
X0200400Y0121815D01*
X0200400Y0122814D02*
X0194449Y0122814D01*
X0193450Y0123812D02*
X0200400Y0123812D01*
X0200400Y0124811D02*
X0172452Y0124811D01*
X0171453Y0125809D02*
X0200400Y0125809D01*
X0203600Y0125809D02*
X0226840Y0125809D01*
X0227838Y0126808D02*
X0203600Y0126808D01*
X0203600Y0127806D02*
X0228837Y0127806D01*
X0227242Y0139789D02*
X0224587Y0139789D01*
X0225585Y0140787D02*
X0226243Y0140787D01*
X0226810Y0145780D02*
X0225019Y0145780D01*
X0224100Y0146778D02*
X0227808Y0146778D01*
X0228807Y0147777D02*
X0224100Y0147777D01*
X0224100Y0148775D02*
X0229805Y0148775D01*
X0229900Y0149774D02*
X0224572Y0149774D01*
X0225570Y0150772D02*
X0229900Y0150772D01*
X0229900Y0151771D02*
X0226100Y0151771D01*
X0226100Y0152769D02*
X0229900Y0152769D01*
X0229900Y0153768D02*
X0226100Y0153768D01*
X0226032Y0154766D02*
X0229900Y0154766D01*
X0229900Y0155765D02*
X0225033Y0155765D01*
X0224035Y0156763D02*
X0229900Y0156763D01*
X0229900Y0157762D02*
X0189594Y0157762D01*
X0190326Y0158760D02*
X0229900Y0158760D01*
X0229900Y0159759D02*
X0224557Y0159759D01*
X0223698Y0158900D02*
X0220302Y0158900D01*
X0217900Y0161302D01*
X0217900Y0164698D01*
X0220302Y0167100D01*
X0223698Y0167100D01*
X0226100Y0164698D01*
X0226100Y0161302D01*
X0223698Y0158900D01*
X0225556Y0160757D02*
X0229900Y0160757D01*
X0229900Y0161756D02*
X0226100Y0161756D01*
X0226100Y0162754D02*
X0229900Y0162754D01*
X0229900Y0163753D02*
X0226100Y0163753D01*
X0226047Y0164751D02*
X0229900Y0164751D01*
X0229900Y0165750D02*
X0225048Y0165750D01*
X0224050Y0166748D02*
X0229900Y0166748D01*
X0229283Y0167747D02*
X0194717Y0167747D01*
X0195715Y0168745D02*
X0228285Y0168745D01*
X0227286Y0169744D02*
X0196714Y0169744D01*
X0197712Y0170742D02*
X0226288Y0170742D01*
X0219950Y0166748D02*
X0214050Y0166748D01*
X0213698Y0167100D02*
X0210302Y0167100D01*
X0207900Y0164698D01*
X0207900Y0161302D01*
X0210302Y0158900D01*
X0213698Y0158900D01*
X0216100Y0161302D01*
X0216100Y0164698D01*
X0213698Y0167100D01*
X0215048Y0165750D02*
X0218952Y0165750D01*
X0217953Y0164751D02*
X0216047Y0164751D01*
X0216100Y0163753D02*
X0217900Y0163753D01*
X0217900Y0162754D02*
X0216100Y0162754D01*
X0216100Y0161756D02*
X0217900Y0161756D01*
X0218444Y0160757D02*
X0215556Y0160757D01*
X0214557Y0159759D02*
X0219443Y0159759D01*
X0219965Y0156763D02*
X0214035Y0156763D01*
X0215033Y0155765D02*
X0218967Y0155765D01*
X0217968Y0154766D02*
X0216032Y0154766D01*
X0216100Y0153768D02*
X0217900Y0153768D01*
X0217900Y0152769D02*
X0216100Y0152769D01*
X0216100Y0151771D02*
X0217900Y0151771D01*
X0218429Y0150772D02*
X0215570Y0150772D01*
X0214572Y0149774D02*
X0219428Y0149774D01*
X0219900Y0148775D02*
X0208488Y0148775D01*
X0209486Y0147777D02*
X0219900Y0147777D01*
X0212000Y0153000D02*
X0182000Y0153000D01*
X0177000Y0158000D01*
X0177000Y0163000D01*
X0180700Y0162754D02*
X0183300Y0162754D01*
X0183300Y0161756D02*
X0180700Y0161756D01*
X0180700Y0160757D02*
X0183300Y0160757D01*
X0183300Y0159759D02*
X0180700Y0159759D01*
X0180326Y0158760D02*
X0183674Y0158760D01*
X0184406Y0157762D02*
X0179594Y0157762D01*
X0180499Y0156763D02*
X0186111Y0156763D01*
X0187889Y0156763D02*
X0209965Y0156763D01*
X0208967Y0155765D02*
X0181498Y0155765D01*
X0182496Y0154766D02*
X0207968Y0154766D01*
X0209443Y0159759D02*
X0190700Y0159759D01*
X0190700Y0160757D02*
X0208444Y0160757D01*
X0207900Y0161756D02*
X0190700Y0161756D01*
X0190700Y0162754D02*
X0207900Y0162754D01*
X0207900Y0163753D02*
X0190723Y0163753D01*
X0191721Y0164751D02*
X0207953Y0164751D01*
X0208952Y0165750D02*
X0192720Y0165750D01*
X0193718Y0166748D02*
X0209950Y0166748D01*
X0216765Y0175735D02*
X0171998Y0175735D01*
X0164925Y0168745D02*
X0159075Y0168745D01*
X0160086Y0167747D02*
X0163914Y0167747D01*
X0163471Y0166748D02*
X0160529Y0166748D01*
X0160700Y0165750D02*
X0163300Y0165750D01*
X0163300Y0164751D02*
X0160700Y0164751D01*
X0160700Y0163753D02*
X0163300Y0163753D01*
X0163300Y0162754D02*
X0160700Y0162754D01*
X0160700Y0161756D02*
X0163300Y0161756D01*
X0163300Y0160757D02*
X0160700Y0160757D01*
X0160700Y0159759D02*
X0163300Y0159759D01*
X0163674Y0158760D02*
X0160326Y0158760D01*
X0159594Y0157762D02*
X0164406Y0157762D01*
X0167000Y0158000D02*
X0167000Y0163000D01*
X0167000Y0158000D02*
X0177000Y0148000D01*
X0175959Y0146778D02*
X0019793Y0146778D01*
X0019793Y0147777D02*
X0174961Y0147777D01*
X0173962Y0148775D02*
X0019793Y0148775D01*
X0019303Y0149774D02*
X0172964Y0149774D01*
X0171965Y0150772D02*
X0018305Y0150772D01*
X0019169Y0151771D02*
X0170967Y0151771D01*
X0169968Y0152769D02*
X0019793Y0152769D01*
X0019793Y0153768D02*
X0168969Y0153768D01*
X0167971Y0154766D02*
X0019793Y0154766D01*
X0019699Y0157762D02*
X0029406Y0157762D01*
X0028674Y0158760D02*
X0019793Y0158760D01*
X0019257Y0159759D02*
X0028300Y0159759D01*
X0028300Y0160757D02*
X0016290Y0160757D01*
X0015856Y0161756D02*
X0028300Y0161756D01*
X0028300Y0162754D02*
X0018336Y0162754D01*
X0019335Y0163753D02*
X0028300Y0163753D01*
X0028300Y0164751D02*
X0019793Y0164751D01*
X0019793Y0165750D02*
X0028300Y0165750D01*
X0028471Y0166748D02*
X0019793Y0166748D01*
X0019793Y0167747D02*
X0028914Y0167747D01*
X0029925Y0168745D02*
X0019850Y0168745D01*
X0017477Y0169744D02*
X0006500Y0169744D01*
X0006500Y0170742D02*
X0017477Y0170742D01*
X0017477Y0171741D02*
X0006500Y0171741D01*
X0006500Y0172739D02*
X0017477Y0172739D01*
X0017477Y0173738D02*
X0006500Y0173738D01*
X0006500Y0174737D02*
X0017477Y0174737D01*
X0018236Y0175735D02*
X0015763Y0175735D01*
X0017760Y0176734D02*
X0075297Y0176734D01*
X0069476Y0181726D02*
X0064524Y0181726D01*
X0064322Y0181524D02*
X0065476Y0182678D01*
X0066100Y0184184D01*
X0066100Y0191816D01*
X0065476Y0193322D01*
X0064322Y0194476D01*
X0062816Y0195100D01*
X0061184Y0195100D01*
X0059678Y0194476D01*
X0058524Y0193322D01*
X0057900Y0191816D01*
X0057900Y0184184D01*
X0058524Y0182678D01*
X0059678Y0181524D01*
X0061184Y0180900D01*
X0062816Y0180900D01*
X0064322Y0181524D01*
X0065495Y0182725D02*
X0068505Y0182725D01*
X0068091Y0183723D02*
X0065909Y0183723D01*
X0066100Y0184722D02*
X0067900Y0184722D01*
X0067900Y0185720D02*
X0066100Y0185720D01*
X0066100Y0186719D02*
X0067900Y0186719D01*
X0067900Y0187717D02*
X0066100Y0187717D01*
X0066100Y0188716D02*
X0067900Y0188716D01*
X0067900Y0189714D02*
X0066100Y0189714D01*
X0066100Y0190713D02*
X0067900Y0190713D01*
X0067900Y0191711D02*
X0066100Y0191711D01*
X0065730Y0192710D02*
X0068270Y0192710D01*
X0068910Y0193708D02*
X0065090Y0193708D01*
X0063765Y0194707D02*
X0069900Y0194707D01*
X0074100Y0196704D02*
X0144900Y0196704D01*
X0144328Y0197702D02*
X0074672Y0197702D01*
X0075671Y0198701D02*
X0143329Y0198701D01*
X0142331Y0199699D02*
X0076669Y0199699D01*
X0077668Y0200698D02*
X0141332Y0200698D01*
X0144277Y0203693D02*
X0149723Y0203693D01*
X0148725Y0202695D02*
X0145275Y0202695D01*
X0146274Y0201696D02*
X0147726Y0201696D01*
X0150671Y0198701D02*
X0218329Y0198701D01*
X0217331Y0199699D02*
X0151669Y0199699D01*
X0152668Y0200698D02*
X0216332Y0200698D01*
X0219328Y0197702D02*
X0149672Y0197702D01*
X0149100Y0196704D02*
X0219900Y0196704D01*
X0210235Y0194707D02*
X0203765Y0194707D01*
X0205090Y0193708D02*
X0208910Y0193708D01*
X0208270Y0192710D02*
X0205730Y0192710D01*
X0206100Y0191711D02*
X0207900Y0191711D01*
X0207900Y0190713D02*
X0206100Y0190713D01*
X0206100Y0189714D02*
X0207900Y0189714D01*
X0207900Y0188716D02*
X0206100Y0188716D01*
X0206100Y0187717D02*
X0207900Y0187717D01*
X0207900Y0186719D02*
X0206100Y0186719D01*
X0206100Y0185720D02*
X0207900Y0185720D01*
X0207900Y0184722D02*
X0206100Y0184722D01*
X0205909Y0183723D02*
X0208091Y0183723D01*
X0208505Y0182725D02*
X0205495Y0182725D01*
X0204524Y0181726D02*
X0209476Y0181726D01*
X0222705Y0175735D02*
X0262421Y0175735D01*
X0262421Y0192710D02*
X0253148Y0192710D01*
X0253028Y0192641D02*
X0253028Y0192641D01*
X0254877Y0193708D02*
X0262421Y0193708D01*
X0262421Y0194707D02*
X0256607Y0194707D01*
X0257288Y0195100D02*
X0257288Y0195100D01*
X0257288Y0195100D01*
X0257849Y0195705D02*
X0262421Y0195705D01*
X0262421Y0196704D02*
X0258776Y0196704D01*
X0259702Y0197702D02*
X0262421Y0197702D01*
X0262421Y0198701D02*
X0260629Y0198701D01*
X0261112Y0199699D02*
X0262421Y0199699D01*
X0262421Y0200698D02*
X0261592Y0200698D01*
X0262073Y0201696D02*
X0262421Y0201696D01*
X0262421Y0213581D02*
X0260678Y0217201D01*
X0262421Y0217201D01*
X0262421Y0213581D01*
X0262421Y0213678D02*
X0262374Y0213678D01*
X0262421Y0214677D02*
X0261894Y0214677D01*
X0261413Y0215675D02*
X0262421Y0215675D01*
X0262421Y0216674D02*
X0260932Y0216674D01*
X0233167Y0216674D02*
X0030932Y0216674D01*
X0031413Y0215675D02*
X0232486Y0215675D01*
X0232134Y0215159D02*
X0232134Y0215159D01*
X0231985Y0214677D02*
X0031894Y0214677D01*
X0032374Y0213678D02*
X0231677Y0213678D01*
X0231369Y0212680D02*
X0032795Y0212680D01*
X0032945Y0211681D02*
X0231061Y0211681D01*
X0230753Y0210683D02*
X0033096Y0210683D01*
X0033246Y0209684D02*
X0230684Y0209684D01*
X0230684Y0208686D02*
X0033397Y0208686D01*
X0033453Y0207687D02*
X0230684Y0207687D01*
X0230684Y0206689D02*
X0033302Y0206689D01*
X0033765Y0194707D02*
X0040235Y0194707D01*
X0039678Y0194476D02*
X0038524Y0193322D01*
X0037900Y0191816D01*
X0037900Y0184184D01*
X0038524Y0182678D01*
X0039678Y0181524D01*
X0041184Y0180900D01*
X0042816Y0180900D01*
X0044322Y0181524D01*
X0045476Y0182678D01*
X0046100Y0184184D01*
X0046100Y0191816D01*
X0045476Y0193322D01*
X0044322Y0194476D01*
X0042816Y0195100D01*
X0041184Y0195100D01*
X0039678Y0194476D01*
X0038910Y0193708D02*
X0035090Y0193708D01*
X0035730Y0192710D02*
X0038270Y0192710D01*
X0037900Y0191711D02*
X0036100Y0191711D01*
X0036100Y0190713D02*
X0037900Y0190713D01*
X0037900Y0189714D02*
X0036100Y0189714D01*
X0036100Y0188716D02*
X0037900Y0188716D01*
X0037900Y0187717D02*
X0036100Y0187717D01*
X0036100Y0186719D02*
X0037900Y0186719D01*
X0037900Y0185720D02*
X0036100Y0185720D01*
X0036100Y0184722D02*
X0037900Y0184722D01*
X0038091Y0183723D02*
X0035909Y0183723D01*
X0035495Y0182725D02*
X0038505Y0182725D01*
X0039476Y0181726D02*
X0034524Y0181726D01*
X0044524Y0181726D02*
X0049476Y0181726D01*
X0049678Y0181524D02*
X0051184Y0180900D01*
X0052816Y0180900D01*
X0054322Y0181524D01*
X0055476Y0182678D01*
X0056100Y0184184D01*
X0056100Y0191816D01*
X0055476Y0193322D01*
X0054322Y0194476D01*
X0052816Y0195100D01*
X0051184Y0195100D01*
X0049678Y0194476D01*
X0048524Y0193322D01*
X0047900Y0191816D01*
X0047900Y0184184D01*
X0048524Y0182678D01*
X0049678Y0181524D01*
X0048505Y0182725D02*
X0045495Y0182725D01*
X0045909Y0183723D02*
X0048091Y0183723D01*
X0047900Y0184722D02*
X0046100Y0184722D01*
X0046100Y0185720D02*
X0047900Y0185720D01*
X0047900Y0186719D02*
X0046100Y0186719D01*
X0046100Y0187717D02*
X0047900Y0187717D01*
X0047900Y0188716D02*
X0046100Y0188716D01*
X0046100Y0189714D02*
X0047900Y0189714D01*
X0047900Y0190713D02*
X0046100Y0190713D01*
X0046100Y0191711D02*
X0047900Y0191711D01*
X0048270Y0192710D02*
X0045730Y0192710D01*
X0045090Y0193708D02*
X0048910Y0193708D01*
X0050235Y0194707D02*
X0043765Y0194707D01*
X0053765Y0194707D02*
X0060235Y0194707D01*
X0058910Y0193708D02*
X0055090Y0193708D01*
X0055730Y0192710D02*
X0058270Y0192710D01*
X0057900Y0191711D02*
X0056100Y0191711D01*
X0056100Y0190713D02*
X0057900Y0190713D01*
X0057900Y0189714D02*
X0056100Y0189714D01*
X0056100Y0188716D02*
X0057900Y0188716D01*
X0057900Y0187717D02*
X0056100Y0187717D01*
X0056100Y0186719D02*
X0057900Y0186719D01*
X0057900Y0185720D02*
X0056100Y0185720D01*
X0056100Y0184722D02*
X0057900Y0184722D01*
X0058091Y0183723D02*
X0055909Y0183723D01*
X0055495Y0182725D02*
X0058505Y0182725D01*
X0059476Y0181726D02*
X0054524Y0181726D01*
X0054075Y0168745D02*
X0059925Y0168745D01*
X0058914Y0167747D02*
X0055086Y0167747D01*
X0055529Y0166748D02*
X0058471Y0166748D01*
X0058300Y0165750D02*
X0055700Y0165750D01*
X0055700Y0164751D02*
X0058300Y0164751D01*
X0058300Y0163753D02*
X0055700Y0163753D01*
X0055700Y0162754D02*
X0058300Y0162754D01*
X0058300Y0161756D02*
X0055700Y0161756D01*
X0055700Y0160757D02*
X0058300Y0160757D01*
X0058300Y0159759D02*
X0055700Y0159759D01*
X0055326Y0158760D02*
X0058674Y0158760D01*
X0059406Y0157762D02*
X0054594Y0157762D01*
X0049406Y0157762D02*
X0044594Y0157762D01*
X0045326Y0158760D02*
X0048674Y0158760D01*
X0048300Y0159759D02*
X0045700Y0159759D01*
X0045700Y0160757D02*
X0048300Y0160757D01*
X0048300Y0161756D02*
X0045700Y0161756D01*
X0045700Y0162754D02*
X0048300Y0162754D01*
X0048300Y0163753D02*
X0045700Y0163753D01*
X0045700Y0164751D02*
X0048300Y0164751D01*
X0048300Y0165750D02*
X0045700Y0165750D01*
X0045529Y0166748D02*
X0048471Y0166748D01*
X0048914Y0167747D02*
X0045086Y0167747D01*
X0044075Y0168745D02*
X0049925Y0168745D01*
X0039925Y0168745D02*
X0034075Y0168745D01*
X0035086Y0167747D02*
X0038914Y0167747D01*
X0038471Y0166748D02*
X0035529Y0166748D01*
X0035700Y0165750D02*
X0038300Y0165750D01*
X0038300Y0164751D02*
X0035700Y0164751D01*
X0035700Y0163753D02*
X0038300Y0163753D01*
X0038300Y0162754D02*
X0035700Y0162754D01*
X0035700Y0161756D02*
X0038300Y0161756D01*
X0038300Y0160757D02*
X0035700Y0160757D01*
X0035700Y0159759D02*
X0038300Y0159759D01*
X0038674Y0158760D02*
X0035326Y0158760D01*
X0034594Y0157762D02*
X0039406Y0157762D01*
X0019624Y0145780D02*
X0206958Y0145780D01*
X0207956Y0144781D02*
X0018625Y0144781D01*
X0018849Y0143783D02*
X0180520Y0143783D01*
X0179521Y0142784D02*
X0019793Y0142784D01*
X0019793Y0141786D02*
X0178523Y0141786D01*
X0177524Y0140787D02*
X0019793Y0140787D01*
X0019793Y0139789D02*
X0176526Y0139789D01*
X0175033Y0138790D02*
X0168967Y0138790D01*
X0170041Y0137792D02*
X0173959Y0137792D01*
X0173489Y0136793D02*
X0170511Y0136793D01*
X0170700Y0135795D02*
X0173300Y0135795D01*
X0173300Y0134796D02*
X0170700Y0134796D01*
X0170700Y0133798D02*
X0173300Y0133798D01*
X0173300Y0132799D02*
X0170700Y0132799D01*
X0170700Y0131801D02*
X0173300Y0131801D01*
X0173300Y0130802D02*
X0170700Y0130802D01*
X0170700Y0129803D02*
X0173300Y0129803D01*
X0173656Y0128805D02*
X0170344Y0128805D01*
X0169639Y0127806D02*
X0174361Y0127806D01*
X0176003Y0126808D02*
X0170455Y0126808D01*
X0167926Y0124811D02*
X0019468Y0124811D01*
X0019793Y0123812D02*
X0168925Y0123812D01*
X0169923Y0122814D02*
X0019487Y0122814D01*
X0019526Y0120817D02*
X0191920Y0120817D01*
X0192919Y0119818D02*
X0188998Y0119818D01*
X0189379Y0119661D02*
X0187835Y0120300D01*
X0186165Y0120300D01*
X0184621Y0119661D01*
X0183439Y0118479D01*
X0182800Y0116935D01*
X0182800Y0109065D01*
X0183439Y0107521D01*
X0184621Y0106339D01*
X0185100Y0106141D01*
X0185100Y0098787D01*
X0181213Y0094900D01*
X0041213Y0094900D01*
X0031213Y0084900D01*
X0030100Y0083787D01*
X0030100Y0042213D01*
X0040100Y0032213D01*
X0041213Y0031100D01*
X0047592Y0031100D01*
X0047931Y0030281D01*
X0049281Y0028931D01*
X0051045Y0028200D01*
X0052955Y0028200D01*
X0054719Y0028931D01*
X0056069Y0030281D01*
X0056800Y0032045D01*
X0056800Y0033955D01*
X0056069Y0035719D01*
X0054719Y0037069D01*
X0052955Y0037800D01*
X0051045Y0037800D01*
X0049281Y0037069D01*
X0047931Y0035719D01*
X0047592Y0034900D01*
X0042787Y0034900D01*
X0033900Y0043787D01*
X0033900Y0082213D01*
X0042787Y0091100D01*
X0182787Y0091100D01*
X0183900Y0092213D01*
X0188900Y0097213D01*
X0188900Y0106141D01*
X0189379Y0106339D01*
X0190561Y0107521D01*
X0191200Y0109065D01*
X0191200Y0116935D01*
X0190561Y0118479D01*
X0189379Y0119661D01*
X0190220Y0118820D02*
X0193917Y0118820D01*
X0194916Y0117821D02*
X0190833Y0117821D01*
X0191200Y0116823D02*
X0195400Y0116823D01*
X0195400Y0115824D02*
X0191200Y0115824D01*
X0191200Y0114826D02*
X0195400Y0114826D01*
X0195400Y0113827D02*
X0191200Y0113827D01*
X0191200Y0112829D02*
X0195400Y0112829D01*
X0195400Y0111830D02*
X0191200Y0111830D01*
X0191200Y0110832D02*
X0195400Y0110832D01*
X0195400Y0109833D02*
X0191200Y0109833D01*
X0191105Y0108835D02*
X0195400Y0108835D01*
X0195400Y0107836D02*
X0190691Y0107836D01*
X0189877Y0106838D02*
X0195400Y0106838D01*
X0195400Y0105839D02*
X0188900Y0105839D01*
X0188900Y0104841D02*
X0195400Y0104841D01*
X0195400Y0103842D02*
X0188900Y0103842D01*
X0188900Y0102844D02*
X0195400Y0102844D01*
X0195400Y0101845D02*
X0188900Y0101845D01*
X0188900Y0100847D02*
X0195400Y0100847D01*
X0195400Y0099848D02*
X0188900Y0099848D01*
X0188900Y0098850D02*
X0195400Y0098850D01*
X0195400Y0097851D02*
X0188900Y0097851D01*
X0188540Y0096853D02*
X0195400Y0096853D01*
X0195400Y0095854D02*
X0187541Y0095854D01*
X0186543Y0094856D02*
X0195400Y0094856D01*
X0195400Y0093857D02*
X0185544Y0093857D01*
X0184546Y0092859D02*
X0194596Y0092859D01*
X0193597Y0091860D02*
X0183547Y0091860D01*
X0182167Y0095854D02*
X0037541Y0095854D01*
X0036543Y0094856D02*
X0041169Y0094856D01*
X0040170Y0093857D02*
X0035544Y0093857D01*
X0034546Y0092859D02*
X0039172Y0092859D01*
X0038173Y0091860D02*
X0033547Y0091860D01*
X0032549Y0090862D02*
X0037175Y0090862D01*
X0036176Y0089863D02*
X0031550Y0089863D01*
X0030552Y0088865D02*
X0035178Y0088865D01*
X0034179Y0087866D02*
X0029553Y0087866D01*
X0028900Y0086868D02*
X0033181Y0086868D01*
X0032182Y0085869D02*
X0028900Y0085869D01*
X0028900Y0084870D02*
X0031183Y0084870D01*
X0030185Y0083872D02*
X0028900Y0083872D01*
X0028900Y0082873D02*
X0030100Y0082873D01*
X0030100Y0081875D02*
X0028900Y0081875D01*
X0028900Y0080876D02*
X0030100Y0080876D01*
X0030100Y0079878D02*
X0028900Y0079878D01*
X0028900Y0078879D02*
X0030100Y0078879D01*
X0030100Y0077881D02*
X0028900Y0077881D01*
X0028900Y0076882D02*
X0030100Y0076882D01*
X0030100Y0075884D02*
X0028900Y0075884D01*
X0028900Y0074885D02*
X0030100Y0074885D01*
X0030100Y0073887D02*
X0028900Y0073887D01*
X0028900Y0072888D02*
X0030100Y0072888D01*
X0030100Y0071890D02*
X0028900Y0071890D01*
X0028900Y0070891D02*
X0030100Y0070891D01*
X0030100Y0069893D02*
X0028900Y0069893D01*
X0028900Y0068894D02*
X0030100Y0068894D01*
X0030100Y0067896D02*
X0028900Y0067896D01*
X0028900Y0066897D02*
X0030100Y0066897D01*
X0030100Y0065899D02*
X0028900Y0065899D01*
X0028900Y0064900D02*
X0030100Y0064900D01*
X0030100Y0063902D02*
X0028900Y0063902D01*
X0028900Y0062903D02*
X0030100Y0062903D01*
X0030100Y0061905D02*
X0028900Y0061905D01*
X0028900Y0060906D02*
X0030100Y0060906D01*
X0030100Y0059908D02*
X0028900Y0059908D01*
X0028900Y0058909D02*
X0030100Y0058909D01*
X0030100Y0057911D02*
X0028900Y0057911D01*
X0028900Y0056912D02*
X0030100Y0056912D01*
X0030100Y0055914D02*
X0028900Y0055914D01*
X0028900Y0054915D02*
X0030100Y0054915D01*
X0030100Y0053917D02*
X0028900Y0053917D01*
X0028900Y0052918D02*
X0030100Y0052918D01*
X0030100Y0051920D02*
X0028900Y0051920D01*
X0028900Y0050921D02*
X0030100Y0050921D01*
X0030100Y0049923D02*
X0028900Y0049923D01*
X0028900Y0048924D02*
X0030100Y0048924D01*
X0030100Y0047926D02*
X0028900Y0047926D01*
X0028900Y0046927D02*
X0030100Y0046927D01*
X0030100Y0045929D02*
X0028900Y0045929D01*
X0028900Y0044930D02*
X0030100Y0044930D01*
X0030100Y0043932D02*
X0028900Y0043932D01*
X0028900Y0042933D02*
X0030100Y0042933D01*
X0030378Y0041934D02*
X0028900Y0041934D01*
X0028900Y0040936D02*
X0031377Y0040936D01*
X0032376Y0039937D02*
X0028900Y0039937D01*
X0028900Y0038939D02*
X0033374Y0038939D01*
X0034373Y0037940D02*
X0029747Y0037940D01*
X0030745Y0036942D02*
X0035371Y0036942D01*
X0036370Y0035943D02*
X0031744Y0035943D01*
X0032742Y0034945D02*
X0037368Y0034945D01*
X0038367Y0033946D02*
X0033741Y0033946D01*
X0034739Y0032948D02*
X0039365Y0032948D01*
X0040364Y0031949D02*
X0035738Y0031949D01*
X0036736Y0030951D02*
X0047653Y0030951D01*
X0048259Y0029952D02*
X0037735Y0029952D01*
X0038733Y0028954D02*
X0049258Y0028954D01*
X0049169Y0026957D02*
X0040730Y0026957D01*
X0039732Y0027955D02*
X0234040Y0027955D01*
X0243328Y0034086D02*
X0243328Y0034086D01*
X0248233Y0034454D02*
X0248233Y0034454D01*
X0250456Y0033946D02*
X0262421Y0033946D01*
X0262421Y0032948D02*
X0253741Y0032948D01*
X0253028Y0033359D02*
X0253028Y0033359D01*
X0255470Y0031949D02*
X0262421Y0031949D01*
X0262421Y0030951D02*
X0257200Y0030951D01*
X0258167Y0029952D02*
X0262421Y0029952D01*
X0262421Y0028954D02*
X0259094Y0028954D01*
X0260020Y0027955D02*
X0262421Y0027955D01*
X0262421Y0026957D02*
X0260796Y0026957D01*
X0260633Y0027295D02*
X0260633Y0027295D01*
X0261277Y0025958D02*
X0262421Y0025958D01*
X0262421Y0024960D02*
X0261757Y0024960D01*
X0262238Y0023961D02*
X0262421Y0023961D01*
X0262421Y0012419D02*
X0262421Y0007500D01*
X0259515Y0007500D01*
X0260633Y0008705D01*
X0260633Y0008705D01*
X0262421Y0012419D01*
X0262421Y0011979D02*
X0262210Y0011979D01*
X0262421Y0010981D02*
X0261729Y0010981D01*
X0261248Y0009982D02*
X0262421Y0009982D01*
X0262421Y0008984D02*
X0260767Y0008984D01*
X0259965Y0007985D02*
X0262421Y0007985D01*
X0230684Y0017970D02*
X0205992Y0017970D01*
X0206265Y0016972D02*
X0229989Y0016972D01*
X0223015Y0013378D02*
X0223015Y0012777D01*
X0222997Y0012759D01*
X0222396Y0012759D01*
X0222378Y0012777D01*
X0222378Y0013378D01*
X0222396Y0013396D01*
X0222997Y0013396D01*
X0223015Y0013378D01*
X0223015Y0012978D02*
X0222378Y0012978D01*
X0219078Y0012978D02*
X0215933Y0012978D01*
X0215933Y0012777D02*
X0215933Y0013378D01*
X0215950Y0013396D01*
X0218903Y0013396D01*
X0219078Y0013571D01*
X0219078Y0012584D01*
X0218903Y0012759D01*
X0215950Y0012759D01*
X0215933Y0012777D01*
X0214060Y0009982D02*
X0213251Y0009982D01*
X0209853Y0009982D02*
X0208774Y0009982D01*
X0206884Y0012759D02*
X0206265Y0012759D01*
X0206265Y0013396D01*
X0206884Y0013396D01*
X0206901Y0013378D01*
X0206901Y0012777D01*
X0206884Y0012759D01*
X0206901Y0012978D02*
X0206265Y0012978D01*
X0210201Y0013976D02*
X0212633Y0013976D01*
X0212862Y0014975D02*
X0209972Y0014975D01*
X0208973Y0015973D02*
X0213861Y0015973D01*
X0219625Y0015973D02*
X0220306Y0015973D01*
X0220506Y0009982D02*
X0219426Y0009982D01*
X0224887Y0009982D02*
X0225967Y0009982D01*
X0203408Y0009982D02*
X0203312Y0009982D01*
X0197947Y0009982D02*
X0196867Y0009982D01*
X0196720Y0012978D02*
X0193374Y0012978D01*
X0191501Y0009982D02*
X0190601Y0009982D01*
X0196924Y0013976D02*
X0197719Y0013976D01*
X0197503Y0013761D02*
X0197503Y0013761D01*
X0197503Y0014975D02*
X0197310Y0014975D01*
X0197066Y0015973D02*
X0197747Y0015973D01*
X0182722Y0016972D02*
X0129816Y0016972D01*
X0124184Y0016972D02*
X0119816Y0016972D01*
X0119719Y0017069D02*
X0117955Y0017800D01*
X0116045Y0017800D01*
X0114281Y0017069D01*
X0112931Y0015719D01*
X0112200Y0013955D01*
X0112200Y0012045D01*
X0112931Y0010281D01*
X0114281Y0008931D01*
X0116045Y0008200D01*
X0117955Y0008200D01*
X0119719Y0008931D01*
X0121069Y0010281D01*
X0121800Y0012045D01*
X0121800Y0013955D01*
X0121069Y0015719D01*
X0119719Y0017069D01*
X0120815Y0015973D02*
X0123185Y0015973D01*
X0122622Y0014975D02*
X0121378Y0014975D01*
X0121791Y0013976D02*
X0122209Y0013976D01*
X0122200Y0012978D02*
X0121800Y0012978D01*
X0121773Y0011979D02*
X0122227Y0011979D01*
X0122641Y0010981D02*
X0121359Y0010981D01*
X0120770Y0009982D02*
X0123230Y0009982D01*
X0124228Y0008984D02*
X0119772Y0008984D01*
X0114228Y0008984D02*
X0109772Y0008984D01*
X0109719Y0008931D02*
X0111069Y0010281D01*
X0111800Y0012045D01*
X0111800Y0013955D01*
X0111069Y0015719D01*
X0109719Y0017069D01*
X0107955Y0017800D01*
X0106045Y0017800D01*
X0104281Y0017069D01*
X0102931Y0015719D01*
X0102200Y0013955D01*
X0102200Y0012045D01*
X0102931Y0010281D01*
X0104281Y0008931D01*
X0106045Y0008200D01*
X0107955Y0008200D01*
X0109719Y0008931D01*
X0110770Y0009982D02*
X0113230Y0009982D01*
X0112641Y0010981D02*
X0111359Y0010981D01*
X0111773Y0011979D02*
X0112227Y0011979D01*
X0112200Y0012978D02*
X0111800Y0012978D01*
X0111791Y0013976D02*
X0112209Y0013976D01*
X0112622Y0014975D02*
X0111378Y0014975D01*
X0110815Y0015973D02*
X0113185Y0015973D01*
X0114184Y0016972D02*
X0109816Y0016972D01*
X0109719Y0018931D02*
X0111069Y0020281D01*
X0111800Y0022045D01*
X0111800Y0023955D01*
X0111069Y0025719D01*
X0109719Y0027069D01*
X0107955Y0027800D01*
X0106045Y0027800D01*
X0104281Y0027069D01*
X0102931Y0025719D01*
X0102200Y0023955D01*
X0102200Y0022045D01*
X0102931Y0020281D01*
X0104281Y0018931D01*
X0106045Y0018200D01*
X0107955Y0018200D01*
X0109719Y0018931D01*
X0109757Y0018969D02*
X0114243Y0018969D01*
X0114281Y0018931D02*
X0116045Y0018200D01*
X0117955Y0018200D01*
X0119719Y0018931D01*
X0121069Y0020281D01*
X0121800Y0022045D01*
X0121800Y0023955D01*
X0121069Y0025719D01*
X0119719Y0027069D01*
X0117955Y0027800D01*
X0116045Y0027800D01*
X0114281Y0027069D01*
X0112931Y0025719D01*
X0112200Y0023955D01*
X0112200Y0022045D01*
X0112931Y0020281D01*
X0114281Y0018931D01*
X0113245Y0019967D02*
X0110755Y0019967D01*
X0111353Y0020966D02*
X0112647Y0020966D01*
X0112234Y0021964D02*
X0111766Y0021964D01*
X0111800Y0022963D02*
X0112200Y0022963D01*
X0112203Y0023961D02*
X0111797Y0023961D01*
X0111384Y0024960D02*
X0112616Y0024960D01*
X0113170Y0025958D02*
X0110830Y0025958D01*
X0109831Y0026957D02*
X0114169Y0026957D01*
X0114281Y0028931D02*
X0116045Y0028200D01*
X0117955Y0028200D01*
X0119719Y0028931D01*
X0121069Y0030281D01*
X0121800Y0032045D01*
X0121800Y0033955D01*
X0121069Y0035719D01*
X0119719Y0037069D01*
X0117955Y0037800D01*
X0116045Y0037800D01*
X0114281Y0037069D01*
X0112931Y0035719D01*
X0112200Y0033955D01*
X0112200Y0032045D01*
X0112931Y0030281D01*
X0114281Y0028931D01*
X0114258Y0028954D02*
X0109742Y0028954D01*
X0109719Y0028931D02*
X0111069Y0030281D01*
X0111800Y0032045D01*
X0111800Y0033955D01*
X0111069Y0035719D01*
X0109719Y0037069D01*
X0107955Y0037800D01*
X0106045Y0037800D01*
X0104281Y0037069D01*
X0102931Y0035719D01*
X0102200Y0033955D01*
X0102200Y0032045D01*
X0102931Y0030281D01*
X0104281Y0028931D01*
X0106045Y0028200D01*
X0107955Y0028200D01*
X0109719Y0028931D01*
X0110741Y0029952D02*
X0113259Y0029952D01*
X0112653Y0030951D02*
X0111347Y0030951D01*
X0111760Y0031949D02*
X0112240Y0031949D01*
X0112200Y0032948D02*
X0111800Y0032948D01*
X0111800Y0033946D02*
X0112200Y0033946D01*
X0112610Y0034945D02*
X0111390Y0034945D01*
X0110845Y0035943D02*
X0113155Y0035943D01*
X0114154Y0036942D02*
X0109846Y0036942D01*
X0104154Y0036942D02*
X0099846Y0036942D01*
X0099719Y0037069D02*
X0097955Y0037800D01*
X0096045Y0037800D01*
X0094281Y0037069D01*
X0092931Y0035719D01*
X0092200Y0033955D01*
X0092200Y0032045D01*
X0092931Y0030281D01*
X0094281Y0028931D01*
X0096045Y0028200D01*
X0097955Y0028200D01*
X0099719Y0028931D01*
X0101069Y0030281D01*
X0101800Y0032045D01*
X0101800Y0033955D01*
X0101069Y0035719D01*
X0099719Y0037069D01*
X0100845Y0035943D02*
X0103155Y0035943D01*
X0102610Y0034945D02*
X0101390Y0034945D01*
X0101800Y0033946D02*
X0102200Y0033946D01*
X0102200Y0032948D02*
X0101800Y0032948D01*
X0101760Y0031949D02*
X0102240Y0031949D01*
X0102653Y0030951D02*
X0101347Y0030951D01*
X0100741Y0029952D02*
X0103259Y0029952D01*
X0104258Y0028954D02*
X0099742Y0028954D01*
X0099719Y0027069D02*
X0097955Y0027800D01*
X0096045Y0027800D01*
X0094281Y0027069D01*
X0092931Y0025719D01*
X0092200Y0023955D01*
X0092200Y0022045D01*
X0092931Y0020281D01*
X0094281Y0018931D01*
X0096045Y0018200D01*
X0097955Y0018200D01*
X0099719Y0018931D01*
X0101069Y0020281D01*
X0101800Y0022045D01*
X0101800Y0023955D01*
X0101069Y0025719D01*
X0099719Y0027069D01*
X0099831Y0026957D02*
X0104169Y0026957D01*
X0103170Y0025958D02*
X0100830Y0025958D01*
X0101384Y0024960D02*
X0102616Y0024960D01*
X0102203Y0023961D02*
X0101797Y0023961D01*
X0101800Y0022963D02*
X0102200Y0022963D01*
X0102234Y0021964D02*
X0101766Y0021964D01*
X0101353Y0020966D02*
X0102647Y0020966D01*
X0103245Y0019967D02*
X0100755Y0019967D01*
X0099757Y0018969D02*
X0104243Y0018969D01*
X0104184Y0016972D02*
X0099816Y0016972D01*
X0099719Y0017069D02*
X0097955Y0017800D01*
X0096045Y0017800D01*
X0094281Y0017069D01*
X0092931Y0015719D01*
X0092200Y0013955D01*
X0092200Y0012045D01*
X0092931Y0010281D01*
X0094281Y0008931D01*
X0096045Y0008200D01*
X0097955Y0008200D01*
X0099719Y0008931D01*
X0101069Y0010281D01*
X0101800Y0012045D01*
X0101800Y0013955D01*
X0101069Y0015719D01*
X0099719Y0017069D01*
X0100815Y0015973D02*
X0103185Y0015973D01*
X0102622Y0014975D02*
X0101378Y0014975D01*
X0101791Y0013976D02*
X0102209Y0013976D01*
X0102200Y0012978D02*
X0101800Y0012978D01*
X0101773Y0011979D02*
X0102227Y0011979D01*
X0102641Y0010981D02*
X0101359Y0010981D01*
X0100770Y0009982D02*
X0103230Y0009982D01*
X0104228Y0008984D02*
X0099772Y0008984D01*
X0094228Y0008984D02*
X0089772Y0008984D01*
X0089719Y0008931D02*
X0091069Y0010281D01*
X0091800Y0012045D01*
X0091800Y0013955D01*
X0091069Y0015719D01*
X0089719Y0017069D01*
X0087955Y0017800D01*
X0086045Y0017800D01*
X0084281Y0017069D01*
X0082931Y0015719D01*
X0082200Y0013955D01*
X0082200Y0012045D01*
X0082931Y0010281D01*
X0084281Y0008931D01*
X0086045Y0008200D01*
X0087955Y0008200D01*
X0089719Y0008931D01*
X0090770Y0009982D02*
X0093230Y0009982D01*
X0092641Y0010981D02*
X0091359Y0010981D01*
X0091773Y0011979D02*
X0092227Y0011979D01*
X0092200Y0012978D02*
X0091800Y0012978D01*
X0091791Y0013976D02*
X0092209Y0013976D01*
X0092622Y0014975D02*
X0091378Y0014975D01*
X0090815Y0015973D02*
X0093185Y0015973D01*
X0094184Y0016972D02*
X0089816Y0016972D01*
X0089719Y0018931D02*
X0087955Y0018200D01*
X0086045Y0018200D01*
X0084281Y0018931D01*
X0082931Y0020281D01*
X0082200Y0022045D01*
X0082200Y0023955D01*
X0082931Y0025719D01*
X0084281Y0027069D01*
X0086045Y0027800D01*
X0087955Y0027800D01*
X0089719Y0027069D01*
X0091069Y0025719D01*
X0091800Y0023955D01*
X0091800Y0022045D01*
X0091069Y0020281D01*
X0089719Y0018931D01*
X0089757Y0018969D02*
X0094243Y0018969D01*
X0093245Y0019967D02*
X0090755Y0019967D01*
X0091353Y0020966D02*
X0092647Y0020966D01*
X0092234Y0021964D02*
X0091766Y0021964D01*
X0091800Y0022963D02*
X0092200Y0022963D01*
X0092203Y0023961D02*
X0091797Y0023961D01*
X0091384Y0024960D02*
X0092616Y0024960D01*
X0093170Y0025958D02*
X0090830Y0025958D01*
X0089831Y0026957D02*
X0094169Y0026957D01*
X0094258Y0028954D02*
X0089742Y0028954D01*
X0089719Y0028931D02*
X0091069Y0030281D01*
X0091800Y0032045D01*
X0091800Y0033955D01*
X0091069Y0035719D01*
X0089719Y0037069D01*
X0087955Y0037800D01*
X0086045Y0037800D01*
X0084281Y0037069D01*
X0082931Y0035719D01*
X0082200Y0033955D01*
X0082200Y0032045D01*
X0082931Y0030281D01*
X0084281Y0028931D01*
X0086045Y0028200D01*
X0087955Y0028200D01*
X0089719Y0028931D01*
X0090741Y0029952D02*
X0093259Y0029952D01*
X0092653Y0030951D02*
X0091347Y0030951D01*
X0091760Y0031949D02*
X0092240Y0031949D01*
X0092200Y0032948D02*
X0091800Y0032948D01*
X0091800Y0033946D02*
X0092200Y0033946D01*
X0092610Y0034945D02*
X0091390Y0034945D01*
X0090845Y0035943D02*
X0093155Y0035943D01*
X0094154Y0036942D02*
X0089846Y0036942D01*
X0084154Y0036942D02*
X0079846Y0036942D01*
X0079719Y0037069D02*
X0077955Y0037800D01*
X0076045Y0037800D01*
X0074281Y0037069D01*
X0072931Y0035719D01*
X0072200Y0033955D01*
X0072200Y0032045D01*
X0072931Y0030281D01*
X0074281Y0028931D01*
X0076045Y0028200D01*
X0077955Y0028200D01*
X0079719Y0028931D01*
X0081069Y0030281D01*
X0081800Y0032045D01*
X0081800Y0033955D01*
X0081069Y0035719D01*
X0079719Y0037069D01*
X0080845Y0035943D02*
X0083155Y0035943D01*
X0082610Y0034945D02*
X0081390Y0034945D01*
X0081800Y0033946D02*
X0082200Y0033946D01*
X0082200Y0032948D02*
X0081800Y0032948D01*
X0081760Y0031949D02*
X0082240Y0031949D01*
X0082653Y0030951D02*
X0081347Y0030951D01*
X0080741Y0029952D02*
X0083259Y0029952D01*
X0084258Y0028954D02*
X0079742Y0028954D01*
X0079719Y0027069D02*
X0077955Y0027800D01*
X0076045Y0027800D01*
X0074281Y0027069D01*
X0072931Y0025719D01*
X0072200Y0023955D01*
X0072200Y0022045D01*
X0072931Y0020281D01*
X0074281Y0018931D01*
X0076045Y0018200D01*
X0077955Y0018200D01*
X0079719Y0018931D01*
X0081069Y0020281D01*
X0081800Y0022045D01*
X0081800Y0023955D01*
X0081069Y0025719D01*
X0079719Y0027069D01*
X0079831Y0026957D02*
X0084169Y0026957D01*
X0083170Y0025958D02*
X0080830Y0025958D01*
X0081384Y0024960D02*
X0082616Y0024960D01*
X0082203Y0023961D02*
X0081797Y0023961D01*
X0081800Y0022963D02*
X0082200Y0022963D01*
X0082234Y0021964D02*
X0081766Y0021964D01*
X0081353Y0020966D02*
X0082647Y0020966D01*
X0083245Y0019967D02*
X0080755Y0019967D01*
X0079757Y0018969D02*
X0084243Y0018969D01*
X0084184Y0016972D02*
X0079816Y0016972D01*
X0079719Y0017069D02*
X0077955Y0017800D01*
X0076045Y0017800D01*
X0074281Y0017069D01*
X0072931Y0015719D01*
X0072200Y0013955D01*
X0072200Y0012045D01*
X0072931Y0010281D01*
X0074281Y0008931D01*
X0076045Y0008200D01*
X0077955Y0008200D01*
X0079719Y0008931D01*
X0081069Y0010281D01*
X0081800Y0012045D01*
X0081800Y0013955D01*
X0081069Y0015719D01*
X0079719Y0017069D01*
X0080815Y0015973D02*
X0083185Y0015973D01*
X0082622Y0014975D02*
X0081378Y0014975D01*
X0081791Y0013976D02*
X0082209Y0013976D01*
X0082200Y0012978D02*
X0081800Y0012978D01*
X0081773Y0011979D02*
X0082227Y0011979D01*
X0082641Y0010981D02*
X0081359Y0010981D01*
X0080770Y0009982D02*
X0083230Y0009982D01*
X0084228Y0008984D02*
X0079772Y0008984D01*
X0074228Y0008984D02*
X0054772Y0008984D01*
X0055770Y0009982D02*
X0073230Y0009982D01*
X0072641Y0010981D02*
X0056359Y0010981D01*
X0056773Y0011979D02*
X0072227Y0011979D01*
X0072200Y0012978D02*
X0056800Y0012978D01*
X0056791Y0013976D02*
X0072209Y0013976D01*
X0072622Y0014975D02*
X0056378Y0014975D01*
X0055815Y0015973D02*
X0073185Y0015973D01*
X0074184Y0016972D02*
X0054816Y0016972D01*
X0054757Y0018969D02*
X0074243Y0018969D01*
X0073245Y0019967D02*
X0055755Y0019967D01*
X0056353Y0020966D02*
X0072647Y0020966D01*
X0072234Y0021964D02*
X0056766Y0021964D01*
X0056800Y0022963D02*
X0072200Y0022963D01*
X0072203Y0023961D02*
X0056797Y0023961D01*
X0056384Y0024960D02*
X0072616Y0024960D01*
X0073170Y0025958D02*
X0055830Y0025958D01*
X0054831Y0026957D02*
X0074169Y0026957D01*
X0074258Y0028954D02*
X0054742Y0028954D01*
X0055741Y0029952D02*
X0073259Y0029952D01*
X0072653Y0030951D02*
X0056347Y0030951D01*
X0056760Y0031949D02*
X0072240Y0031949D01*
X0072200Y0032948D02*
X0056800Y0032948D01*
X0056800Y0033946D02*
X0072200Y0033946D01*
X0072610Y0034945D02*
X0056390Y0034945D01*
X0055845Y0035943D02*
X0073155Y0035943D01*
X0074154Y0036942D02*
X0054846Y0036942D01*
X0049154Y0036942D02*
X0040745Y0036942D01*
X0039747Y0037940D02*
X0207600Y0037940D01*
X0207626Y0038939D02*
X0038748Y0038939D01*
X0037750Y0039937D02*
X0207093Y0039937D01*
X0206094Y0040936D02*
X0036751Y0040936D01*
X0035752Y0041934D02*
X0205096Y0041934D01*
X0204900Y0042933D02*
X0034754Y0042933D01*
X0033900Y0043932D02*
X0204900Y0043932D01*
X0204900Y0044930D02*
X0033900Y0044930D01*
X0033900Y0045929D02*
X0045613Y0045929D01*
X0046165Y0045700D02*
X0047835Y0045700D01*
X0049379Y0046339D01*
X0050561Y0047521D01*
X0051200Y0049065D01*
X0051200Y0056935D01*
X0050561Y0058479D01*
X0049379Y0059661D01*
X0047835Y0060300D01*
X0046165Y0060300D01*
X0044621Y0059661D01*
X0043439Y0058479D01*
X0042800Y0056935D01*
X0042800Y0049065D01*
X0043439Y0047521D01*
X0044621Y0046339D01*
X0046165Y0045700D01*
X0048387Y0045929D02*
X0055613Y0045929D01*
X0056165Y0045700D02*
X0057835Y0045700D01*
X0059379Y0046339D01*
X0060561Y0047521D01*
X0061200Y0049065D01*
X0061200Y0056935D01*
X0060561Y0058479D01*
X0059379Y0059661D01*
X0057835Y0060300D01*
X0056165Y0060300D01*
X0054621Y0059661D01*
X0053439Y0058479D01*
X0052800Y0056935D01*
X0052800Y0049065D01*
X0053439Y0047521D01*
X0054621Y0046339D01*
X0056165Y0045700D01*
X0058387Y0045929D02*
X0065613Y0045929D01*
X0066165Y0045700D02*
X0067835Y0045700D01*
X0069379Y0046339D01*
X0070561Y0047521D01*
X0071200Y0049065D01*
X0071200Y0056935D01*
X0070561Y0058479D01*
X0069379Y0059661D01*
X0067835Y0060300D01*
X0066165Y0060300D01*
X0064621Y0059661D01*
X0063439Y0058479D01*
X0062800Y0056935D01*
X0062800Y0049065D01*
X0063439Y0047521D01*
X0064621Y0046339D01*
X0066165Y0045700D01*
X0068387Y0045929D02*
X0075613Y0045929D01*
X0076165Y0045700D02*
X0077835Y0045700D01*
X0079379Y0046339D01*
X0080561Y0047521D01*
X0081200Y0049065D01*
X0081200Y0056935D01*
X0080561Y0058479D01*
X0079379Y0059661D01*
X0077835Y0060300D01*
X0076165Y0060300D01*
X0074621Y0059661D01*
X0073439Y0058479D01*
X0072800Y0056935D01*
X0072800Y0049065D01*
X0073439Y0047521D01*
X0074621Y0046339D01*
X0076165Y0045700D01*
X0078387Y0045929D02*
X0085613Y0045929D01*
X0086165Y0045700D02*
X0084621Y0046339D01*
X0083439Y0047521D01*
X0082800Y0049065D01*
X0082800Y0056935D01*
X0083439Y0058479D01*
X0084621Y0059661D01*
X0086165Y0060300D01*
X0087835Y0060300D01*
X0089379Y0059661D01*
X0090561Y0058479D01*
X0091200Y0056935D01*
X0091200Y0049065D01*
X0090561Y0047521D01*
X0089379Y0046339D01*
X0087835Y0045700D01*
X0086165Y0045700D01*
X0088387Y0045929D02*
X0095613Y0045929D01*
X0096165Y0045700D02*
X0097835Y0045700D01*
X0099379Y0046339D01*
X0100561Y0047521D01*
X0101200Y0049065D01*
X0101200Y0056935D01*
X0100561Y0058479D01*
X0099379Y0059661D01*
X0097835Y0060300D01*
X0096165Y0060300D01*
X0094621Y0059661D01*
X0093439Y0058479D01*
X0092800Y0056935D01*
X0092800Y0049065D01*
X0093439Y0047521D01*
X0094621Y0046339D01*
X0096165Y0045700D01*
X0098387Y0045929D02*
X0105613Y0045929D01*
X0106165Y0045700D02*
X0107835Y0045700D01*
X0109379Y0046339D01*
X0110561Y0047521D01*
X0111200Y0049065D01*
X0111200Y0056935D01*
X0110561Y0058479D01*
X0109379Y0059661D01*
X0107835Y0060300D01*
X0106165Y0060300D01*
X0104621Y0059661D01*
X0103439Y0058479D01*
X0102800Y0056935D01*
X0102800Y0049065D01*
X0103439Y0047521D01*
X0104621Y0046339D01*
X0106165Y0045700D01*
X0108387Y0045929D02*
X0115613Y0045929D01*
X0116165Y0045700D02*
X0114621Y0046339D01*
X0113439Y0047521D01*
X0112800Y0049065D01*
X0112800Y0056935D01*
X0113439Y0058479D01*
X0114621Y0059661D01*
X0116165Y0060300D01*
X0117835Y0060300D01*
X0119379Y0059661D01*
X0120561Y0058479D01*
X0121200Y0056935D01*
X0121200Y0049065D01*
X0120561Y0047521D01*
X0119379Y0046339D01*
X0117835Y0045700D01*
X0116165Y0045700D01*
X0118387Y0045929D02*
X0125613Y0045929D01*
X0126165Y0045700D02*
X0127835Y0045700D01*
X0129379Y0046339D01*
X0130561Y0047521D01*
X0131200Y0049065D01*
X0131200Y0056935D01*
X0130561Y0058479D01*
X0129379Y0059661D01*
X0127835Y0060300D01*
X0126165Y0060300D01*
X0124621Y0059661D01*
X0123439Y0058479D01*
X0122800Y0056935D01*
X0122800Y0049065D01*
X0123439Y0047521D01*
X0124621Y0046339D01*
X0126165Y0045700D01*
X0128387Y0045929D02*
X0135613Y0045929D01*
X0134033Y0046927D02*
X0129967Y0046927D01*
X0130728Y0047926D02*
X0133272Y0047926D01*
X0132858Y0048924D02*
X0131142Y0048924D01*
X0131200Y0049923D02*
X0132800Y0049923D01*
X0132800Y0050921D02*
X0131200Y0050921D01*
X0131200Y0051920D02*
X0132800Y0051920D01*
X0132800Y0052918D02*
X0131200Y0052918D01*
X0131200Y0053917D02*
X0132800Y0053917D01*
X0132800Y0054915D02*
X0131200Y0054915D01*
X0131200Y0055914D02*
X0132800Y0055914D01*
X0132800Y0056912D02*
X0131200Y0056912D01*
X0130796Y0057911D02*
X0133204Y0057911D01*
X0133870Y0058909D02*
X0130130Y0058909D01*
X0128783Y0059908D02*
X0135218Y0059908D01*
X0135400Y0060906D02*
X0033900Y0060906D01*
X0033900Y0059908D02*
X0045217Y0059908D01*
X0043870Y0058909D02*
X0033900Y0058909D01*
X0033900Y0057911D02*
X0043204Y0057911D01*
X0042800Y0056912D02*
X0033900Y0056912D01*
X0033900Y0055914D02*
X0042800Y0055914D01*
X0042800Y0054915D02*
X0033900Y0054915D01*
X0033900Y0053917D02*
X0042800Y0053917D01*
X0042800Y0052918D02*
X0033900Y0052918D01*
X0033900Y0051920D02*
X0042800Y0051920D01*
X0042800Y0050921D02*
X0033900Y0050921D01*
X0033900Y0049923D02*
X0042800Y0049923D01*
X0042858Y0048924D02*
X0033900Y0048924D01*
X0033900Y0047926D02*
X0043272Y0047926D01*
X0044033Y0046927D02*
X0033900Y0046927D01*
X0025100Y0046927D02*
X0006500Y0046927D01*
X0006500Y0045929D02*
X0025100Y0045929D01*
X0025100Y0044930D02*
X0006500Y0044930D01*
X0006500Y0043932D02*
X0025100Y0043932D01*
X0025100Y0042933D02*
X0006500Y0042933D01*
X0006500Y0041934D02*
X0025100Y0041934D01*
X0025100Y0040936D02*
X0006500Y0040936D01*
X0006500Y0039937D02*
X0025100Y0039937D01*
X0025100Y0038939D02*
X0006500Y0038939D01*
X0006500Y0037940D02*
X0025100Y0037940D01*
X0025371Y0036942D02*
X0006500Y0036942D01*
X0006500Y0035943D02*
X0026370Y0035943D01*
X0027368Y0034945D02*
X0006500Y0034945D01*
X0006500Y0033946D02*
X0012972Y0033946D01*
X0013328Y0034086D02*
X0013328Y0034086D01*
X0010428Y0032948D02*
X0006500Y0032948D01*
X0006500Y0031949D02*
X0008324Y0031949D01*
X0008750Y0032289D02*
X0008750Y0032289D01*
X0007072Y0030951D02*
X0006500Y0030951D01*
X0018233Y0034454D02*
X0018233Y0034454D01*
X0020456Y0033946D02*
X0028367Y0033946D01*
X0029365Y0032948D02*
X0023741Y0032948D01*
X0023028Y0033359D02*
X0023028Y0033359D01*
X0025470Y0031949D02*
X0030364Y0031949D01*
X0031362Y0030951D02*
X0027200Y0030951D01*
X0028167Y0029952D02*
X0032361Y0029952D01*
X0033359Y0028954D02*
X0029094Y0028954D01*
X0030020Y0027955D02*
X0034358Y0027955D01*
X0035356Y0026957D02*
X0030796Y0026957D01*
X0030633Y0027295D02*
X0030633Y0027295D01*
X0031277Y0025958D02*
X0036355Y0025958D01*
X0037353Y0024960D02*
X0031757Y0024960D01*
X0032238Y0023961D02*
X0038352Y0023961D01*
X0039350Y0022963D02*
X0032719Y0022963D01*
X0032902Y0021964D02*
X0040349Y0021964D01*
X0042727Y0024960D02*
X0047616Y0024960D01*
X0048170Y0025958D02*
X0041729Y0025958D01*
X0047647Y0020966D02*
X0033053Y0020966D01*
X0033203Y0019967D02*
X0048245Y0019967D01*
X0047610Y0034945D02*
X0042742Y0034945D01*
X0041744Y0035943D02*
X0048155Y0035943D01*
X0049967Y0046927D02*
X0054033Y0046927D01*
X0053272Y0047926D02*
X0050728Y0047926D01*
X0051142Y0048924D02*
X0052858Y0048924D01*
X0052800Y0049923D02*
X0051200Y0049923D01*
X0051200Y0050921D02*
X0052800Y0050921D01*
X0052800Y0051920D02*
X0051200Y0051920D01*
X0051200Y0052918D02*
X0052800Y0052918D01*
X0052800Y0053917D02*
X0051200Y0053917D01*
X0051200Y0054915D02*
X0052800Y0054915D01*
X0052800Y0055914D02*
X0051200Y0055914D01*
X0051200Y0056912D02*
X0052800Y0056912D01*
X0053204Y0057911D02*
X0050796Y0057911D01*
X0050130Y0058909D02*
X0053870Y0058909D01*
X0055217Y0059908D02*
X0048783Y0059908D01*
X0058783Y0059908D02*
X0065217Y0059908D01*
X0063870Y0058909D02*
X0060130Y0058909D01*
X0060796Y0057911D02*
X0063204Y0057911D01*
X0062800Y0056912D02*
X0061200Y0056912D01*
X0061200Y0055914D02*
X0062800Y0055914D01*
X0062800Y0054915D02*
X0061200Y0054915D01*
X0061200Y0053917D02*
X0062800Y0053917D01*
X0062800Y0052918D02*
X0061200Y0052918D01*
X0061200Y0051920D02*
X0062800Y0051920D01*
X0062800Y0050921D02*
X0061200Y0050921D01*
X0061200Y0049923D02*
X0062800Y0049923D01*
X0062858Y0048924D02*
X0061142Y0048924D01*
X0060728Y0047926D02*
X0063272Y0047926D01*
X0064033Y0046927D02*
X0059967Y0046927D01*
X0069967Y0046927D02*
X0074033Y0046927D01*
X0073272Y0047926D02*
X0070728Y0047926D01*
X0071142Y0048924D02*
X0072858Y0048924D01*
X0072800Y0049923D02*
X0071200Y0049923D01*
X0071200Y0050921D02*
X0072800Y0050921D01*
X0072800Y0051920D02*
X0071200Y0051920D01*
X0071200Y0052918D02*
X0072800Y0052918D01*
X0072800Y0053917D02*
X0071200Y0053917D01*
X0071200Y0054915D02*
X0072800Y0054915D01*
X0072800Y0055914D02*
X0071200Y0055914D01*
X0071200Y0056912D02*
X0072800Y0056912D01*
X0073204Y0057911D02*
X0070796Y0057911D01*
X0070130Y0058909D02*
X0073870Y0058909D01*
X0075217Y0059908D02*
X0068783Y0059908D01*
X0078783Y0059908D02*
X0085217Y0059908D01*
X0083870Y0058909D02*
X0080130Y0058909D01*
X0080796Y0057911D02*
X0083204Y0057911D01*
X0082800Y0056912D02*
X0081200Y0056912D01*
X0081200Y0055914D02*
X0082800Y0055914D01*
X0082800Y0054915D02*
X0081200Y0054915D01*
X0081200Y0053917D02*
X0082800Y0053917D01*
X0082800Y0052918D02*
X0081200Y0052918D01*
X0081200Y0051920D02*
X0082800Y0051920D01*
X0082800Y0050921D02*
X0081200Y0050921D01*
X0081200Y0049923D02*
X0082800Y0049923D01*
X0082858Y0048924D02*
X0081142Y0048924D01*
X0080728Y0047926D02*
X0083272Y0047926D01*
X0084033Y0046927D02*
X0079967Y0046927D01*
X0089967Y0046927D02*
X0094033Y0046927D01*
X0093272Y0047926D02*
X0090728Y0047926D01*
X0091142Y0048924D02*
X0092858Y0048924D01*
X0092800Y0049923D02*
X0091200Y0049923D01*
X0091200Y0050921D02*
X0092800Y0050921D01*
X0092800Y0051920D02*
X0091200Y0051920D01*
X0091200Y0052918D02*
X0092800Y0052918D01*
X0092800Y0053917D02*
X0091200Y0053917D01*
X0091200Y0054915D02*
X0092800Y0054915D01*
X0092800Y0055914D02*
X0091200Y0055914D01*
X0091200Y0056912D02*
X0092800Y0056912D01*
X0093204Y0057911D02*
X0090796Y0057911D01*
X0090130Y0058909D02*
X0093870Y0058909D01*
X0095217Y0059908D02*
X0088783Y0059908D01*
X0098783Y0059908D02*
X0105217Y0059908D01*
X0103870Y0058909D02*
X0100130Y0058909D01*
X0100796Y0057911D02*
X0103204Y0057911D01*
X0102800Y0056912D02*
X0101200Y0056912D01*
X0101200Y0055914D02*
X0102800Y0055914D01*
X0102800Y0054915D02*
X0101200Y0054915D01*
X0101200Y0053917D02*
X0102800Y0053917D01*
X0102800Y0052918D02*
X0101200Y0052918D01*
X0101200Y0051920D02*
X0102800Y0051920D01*
X0102800Y0050921D02*
X0101200Y0050921D01*
X0101200Y0049923D02*
X0102800Y0049923D01*
X0102858Y0048924D02*
X0101142Y0048924D01*
X0100728Y0047926D02*
X0103272Y0047926D01*
X0104033Y0046927D02*
X0099967Y0046927D01*
X0109967Y0046927D02*
X0114033Y0046927D01*
X0113272Y0047926D02*
X0110728Y0047926D01*
X0111142Y0048924D02*
X0112858Y0048924D01*
X0112800Y0049923D02*
X0111200Y0049923D01*
X0111200Y0050921D02*
X0112800Y0050921D01*
X0112800Y0051920D02*
X0111200Y0051920D01*
X0111200Y0052918D02*
X0112800Y0052918D01*
X0112800Y0053917D02*
X0111200Y0053917D01*
X0111200Y0054915D02*
X0112800Y0054915D01*
X0112800Y0055914D02*
X0111200Y0055914D01*
X0111200Y0056912D02*
X0112800Y0056912D01*
X0113204Y0057911D02*
X0110796Y0057911D01*
X0110130Y0058909D02*
X0113870Y0058909D01*
X0115217Y0059908D02*
X0108783Y0059908D01*
X0118783Y0059908D02*
X0125217Y0059908D01*
X0123870Y0058909D02*
X0120130Y0058909D01*
X0120796Y0057911D02*
X0123204Y0057911D01*
X0122800Y0056912D02*
X0121200Y0056912D01*
X0121200Y0055914D02*
X0122800Y0055914D01*
X0122800Y0054915D02*
X0121200Y0054915D01*
X0121200Y0053917D02*
X0122800Y0053917D01*
X0122800Y0052918D02*
X0121200Y0052918D01*
X0121200Y0051920D02*
X0122800Y0051920D01*
X0122800Y0050921D02*
X0121200Y0050921D01*
X0121200Y0049923D02*
X0122800Y0049923D01*
X0122858Y0048924D02*
X0121142Y0048924D01*
X0120728Y0047926D02*
X0123272Y0047926D01*
X0124033Y0046927D02*
X0119967Y0046927D01*
X0119846Y0036942D02*
X0124154Y0036942D01*
X0123155Y0035943D02*
X0120845Y0035943D01*
X0121390Y0034945D02*
X0122610Y0034945D01*
X0122200Y0033946D02*
X0121800Y0033946D01*
X0121800Y0032948D02*
X0122200Y0032948D01*
X0122240Y0031949D02*
X0121760Y0031949D01*
X0121347Y0030951D02*
X0122653Y0030951D01*
X0123259Y0029952D02*
X0120741Y0029952D01*
X0119742Y0028954D02*
X0124258Y0028954D01*
X0124169Y0026957D02*
X0119831Y0026957D01*
X0120830Y0025958D02*
X0123170Y0025958D01*
X0122616Y0024960D02*
X0121384Y0024960D01*
X0121797Y0023961D02*
X0122203Y0023961D01*
X0122200Y0022963D02*
X0121800Y0022963D01*
X0121766Y0021964D02*
X0122234Y0021964D01*
X0122647Y0020966D02*
X0121353Y0020966D01*
X0120755Y0019967D02*
X0123245Y0019967D01*
X0124243Y0018969D02*
X0119757Y0018969D01*
X0131800Y0033946D02*
X0210288Y0033946D01*
X0208833Y0034945D02*
X0131390Y0034945D01*
X0130845Y0035943D02*
X0208089Y0035943D01*
X0207676Y0036942D02*
X0129846Y0036942D01*
X0137000Y0053000D02*
X0137000Y0063000D01*
X0147000Y0073000D01*
X0177000Y0073000D01*
X0197000Y0093000D01*
X0197000Y0118000D01*
X0192000Y0123000D01*
X0172000Y0123000D01*
X0167000Y0128000D01*
X0167000Y0133000D01*
X0163300Y0132799D02*
X0160700Y0132799D01*
X0160700Y0131801D02*
X0163300Y0131801D01*
X0163300Y0130802D02*
X0160700Y0130802D01*
X0160700Y0129803D02*
X0163300Y0129803D01*
X0163656Y0128805D02*
X0160344Y0128805D01*
X0160137Y0128304D02*
X0160700Y0129664D01*
X0160700Y0136336D01*
X0160137Y0137696D01*
X0159096Y0138737D01*
X0157736Y0139300D01*
X0156264Y0139300D01*
X0154904Y0138737D01*
X0153863Y0137696D01*
X0153300Y0136336D01*
X0153300Y0129664D01*
X0153863Y0128304D01*
X0154904Y0127263D01*
X0156264Y0126700D01*
X0157736Y0126700D01*
X0159096Y0127263D01*
X0160137Y0128304D01*
X0159639Y0127806D02*
X0164361Y0127806D01*
X0165929Y0126808D02*
X0157997Y0126808D01*
X0156003Y0126808D02*
X0147997Y0126808D01*
X0147736Y0126700D02*
X0149096Y0127263D01*
X0150137Y0128304D01*
X0150700Y0129664D01*
X0150700Y0136336D01*
X0150137Y0137696D01*
X0149096Y0138737D01*
X0147736Y0139300D01*
X0146264Y0139300D01*
X0144904Y0138737D01*
X0143863Y0137696D01*
X0143300Y0136336D01*
X0143300Y0129664D01*
X0143863Y0128304D01*
X0144904Y0127263D01*
X0146264Y0126700D01*
X0147736Y0126700D01*
X0146003Y0126808D02*
X0137997Y0126808D01*
X0137736Y0126700D02*
X0139096Y0127263D01*
X0140137Y0128304D01*
X0140700Y0129664D01*
X0140700Y0136336D01*
X0140137Y0137696D01*
X0139096Y0138737D01*
X0137736Y0139300D01*
X0136264Y0139300D01*
X0134904Y0138737D01*
X0133863Y0137696D01*
X0133300Y0136336D01*
X0133300Y0129664D01*
X0133863Y0128304D01*
X0134904Y0127263D01*
X0136264Y0126700D01*
X0137736Y0126700D01*
X0136003Y0126808D02*
X0127997Y0126808D01*
X0127736Y0126700D02*
X0129096Y0127263D01*
X0130137Y0128304D01*
X0130700Y0129664D01*
X0130700Y0136336D01*
X0130137Y0137696D01*
X0129096Y0138737D01*
X0127736Y0139300D01*
X0126264Y0139300D01*
X0124904Y0138737D01*
X0123863Y0137696D01*
X0123300Y0136336D01*
X0123300Y0129664D01*
X0123863Y0128304D01*
X0124904Y0127263D01*
X0126264Y0126700D01*
X0127736Y0126700D01*
X0126003Y0126808D02*
X0117997Y0126808D01*
X0117736Y0126700D02*
X0119096Y0127263D01*
X0120137Y0128304D01*
X0120700Y0129664D01*
X0120700Y0136336D01*
X0120137Y0137696D01*
X0119096Y0138737D01*
X0117736Y0139300D01*
X0116264Y0139300D01*
X0114904Y0138737D01*
X0113863Y0137696D01*
X0113300Y0136336D01*
X0113300Y0129664D01*
X0113863Y0128304D01*
X0114904Y0127263D01*
X0116264Y0126700D01*
X0117736Y0126700D01*
X0116003Y0126808D02*
X0102997Y0126808D01*
X0102736Y0126700D02*
X0104096Y0127263D01*
X0105137Y0128304D01*
X0105700Y0129664D01*
X0105700Y0136336D01*
X0105137Y0137696D01*
X0104096Y0138737D01*
X0102736Y0139300D01*
X0101264Y0139300D01*
X0099904Y0138737D01*
X0098863Y0137696D01*
X0098300Y0136336D01*
X0098300Y0129664D01*
X0098863Y0128304D01*
X0099904Y0127263D01*
X0101264Y0126700D01*
X0102736Y0126700D01*
X0101003Y0126808D02*
X0092997Y0126808D01*
X0092736Y0126700D02*
X0094096Y0127263D01*
X0095137Y0128304D01*
X0095700Y0129664D01*
X0095700Y0136336D01*
X0095137Y0137696D01*
X0094096Y0138737D01*
X0092736Y0139300D01*
X0091264Y0139300D01*
X0089904Y0138737D01*
X0088863Y0137696D01*
X0088300Y0136336D01*
X0088300Y0129664D01*
X0088863Y0128304D01*
X0089904Y0127263D01*
X0091264Y0126700D01*
X0092736Y0126700D01*
X0091003Y0126808D02*
X0082997Y0126808D01*
X0082736Y0126700D02*
X0084096Y0127263D01*
X0085137Y0128304D01*
X0085700Y0129664D01*
X0085700Y0136336D01*
X0085137Y0137696D01*
X0084096Y0138737D01*
X0082736Y0139300D01*
X0081264Y0139300D01*
X0079904Y0138737D01*
X0078863Y0137696D01*
X0078300Y0136336D01*
X0078300Y0129664D01*
X0078863Y0128304D01*
X0079904Y0127263D01*
X0081264Y0126700D01*
X0082736Y0126700D01*
X0081003Y0126808D02*
X0072997Y0126808D01*
X0072736Y0126700D02*
X0074096Y0127263D01*
X0075137Y0128304D01*
X0075700Y0129664D01*
X0075700Y0136336D01*
X0075137Y0137696D01*
X0074096Y0138737D01*
X0072736Y0139300D01*
X0071264Y0139300D01*
X0069904Y0138737D01*
X0068863Y0137696D01*
X0068300Y0136336D01*
X0068300Y0129664D01*
X0068863Y0128304D01*
X0069904Y0127263D01*
X0071264Y0126700D01*
X0072736Y0126700D01*
X0071003Y0126808D02*
X0062997Y0126808D01*
X0062736Y0126700D02*
X0064096Y0127263D01*
X0065137Y0128304D01*
X0065700Y0129664D01*
X0065700Y0136336D01*
X0065137Y0137696D01*
X0064096Y0138737D01*
X0062736Y0139300D01*
X0061264Y0139300D01*
X0059904Y0138737D01*
X0058863Y0137696D01*
X0058300Y0136336D01*
X0058300Y0129664D01*
X0058863Y0128304D01*
X0059904Y0127263D01*
X0061264Y0126700D01*
X0062736Y0126700D01*
X0061003Y0126808D02*
X0052997Y0126808D01*
X0052736Y0126700D02*
X0054096Y0127263D01*
X0055137Y0128304D01*
X0055700Y0129664D01*
X0055700Y0136336D01*
X0055137Y0137696D01*
X0054096Y0138737D01*
X0052736Y0139300D01*
X0051264Y0139300D01*
X0049904Y0138737D01*
X0048863Y0137696D01*
X0048300Y0136336D01*
X0048300Y0129664D01*
X0048863Y0128304D01*
X0049904Y0127263D01*
X0051264Y0126700D01*
X0052736Y0126700D01*
X0051003Y0126808D02*
X0042997Y0126808D01*
X0042736Y0126700D02*
X0044096Y0127263D01*
X0045137Y0128304D01*
X0045700Y0129664D01*
X0045700Y0136336D01*
X0045137Y0137696D01*
X0044096Y0138737D01*
X0042736Y0139300D01*
X0041264Y0139300D01*
X0039904Y0138737D01*
X0038863Y0137696D01*
X0038300Y0136336D01*
X0038300Y0129664D01*
X0038863Y0128304D01*
X0039904Y0127263D01*
X0041264Y0126700D01*
X0042736Y0126700D01*
X0041003Y0126808D02*
X0032997Y0126808D01*
X0032736Y0126700D02*
X0034096Y0127263D01*
X0035137Y0128304D01*
X0035700Y0129664D01*
X0035700Y0136336D01*
X0035137Y0137696D01*
X0034096Y0138737D01*
X0032736Y0139300D01*
X0031264Y0139300D01*
X0029904Y0138737D01*
X0028863Y0137696D01*
X0028300Y0136336D01*
X0028300Y0129664D01*
X0028863Y0128304D01*
X0029904Y0127263D01*
X0031264Y0126700D01*
X0032736Y0126700D01*
X0031003Y0126808D02*
X0020973Y0126808D01*
X0021761Y0127806D02*
X0029361Y0127806D01*
X0028656Y0128805D02*
X0021761Y0128805D01*
X0021761Y0129803D02*
X0028300Y0129803D01*
X0028300Y0130802D02*
X0020907Y0130802D01*
X0019908Y0131801D02*
X0028300Y0131801D01*
X0028300Y0132799D02*
X0019534Y0132799D01*
X0019793Y0133798D02*
X0028300Y0133798D01*
X0028300Y0134796D02*
X0019793Y0134796D01*
X0019793Y0135795D02*
X0028300Y0135795D01*
X0028489Y0136793D02*
X0019793Y0136793D01*
X0019379Y0137792D02*
X0028959Y0137792D01*
X0030033Y0138790D02*
X0019793Y0138790D01*
X0016493Y0140853D02*
X0015856Y0140853D01*
X0015856Y0141472D01*
X0015874Y0141489D01*
X0016475Y0141489D01*
X0016493Y0141472D01*
X0016493Y0140853D01*
X0012556Y0141786D02*
X0006500Y0141786D01*
X0006500Y0142784D02*
X0012556Y0142784D01*
X0013500Y0143783D02*
X0006500Y0143783D01*
X0006500Y0144781D02*
X0013724Y0144781D01*
X0012725Y0145780D02*
X0006500Y0145780D01*
X0006500Y0146778D02*
X0012556Y0146778D01*
X0012556Y0147777D02*
X0006500Y0147777D01*
X0006500Y0148775D02*
X0012556Y0148775D01*
X0013046Y0149774D02*
X0006500Y0149774D01*
X0006500Y0150772D02*
X0014044Y0150772D01*
X0013180Y0151771D02*
X0006500Y0151771D01*
X0006500Y0152769D02*
X0012556Y0152769D01*
X0012556Y0153768D02*
X0006500Y0153768D01*
X0006500Y0154766D02*
X0012556Y0154766D01*
X0012591Y0155765D02*
X0006500Y0155765D01*
X0006500Y0156763D02*
X0013590Y0156763D01*
X0012650Y0157762D02*
X0006500Y0157762D01*
X0006500Y0158760D02*
X0012556Y0158760D01*
X0012621Y0159759D02*
X0006500Y0159759D01*
X0006500Y0160757D02*
X0012556Y0160757D01*
X0012556Y0161756D02*
X0006500Y0161756D01*
X0006500Y0162754D02*
X0013135Y0162754D01*
X0013014Y0163753D02*
X0006500Y0163753D01*
X0006500Y0164751D02*
X0012556Y0164751D01*
X0012556Y0165750D02*
X0006500Y0165750D01*
X0006500Y0166748D02*
X0011003Y0166748D01*
X0010588Y0167747D02*
X0006500Y0167747D01*
X0006500Y0168745D02*
X0010803Y0168745D01*
X0015856Y0166197D02*
X0016493Y0166197D01*
X0016493Y0165578D01*
X0016475Y0165560D01*
X0015874Y0165560D01*
X0015856Y0165578D01*
X0015856Y0166197D01*
X0015856Y0165750D02*
X0016493Y0165750D01*
X0012895Y0175735D02*
X0006500Y0175735D01*
X0006500Y0176734D02*
X0012444Y0176734D01*
X0012777Y0177732D02*
X0006500Y0177732D01*
X0006500Y0178731D02*
X0014375Y0178731D01*
X0012803Y0179729D02*
X0006500Y0179729D01*
X0006500Y0180728D02*
X0012470Y0180728D01*
X0012409Y0181726D02*
X0006500Y0181726D01*
X0006500Y0182725D02*
X0011411Y0182725D01*
X0010588Y0183723D02*
X0006500Y0183723D01*
X0006500Y0184722D02*
X0010588Y0184722D01*
X0010588Y0185720D02*
X0006500Y0185720D01*
X0006500Y0186719D02*
X0010588Y0186719D01*
X0011422Y0187717D02*
X0006500Y0187717D01*
X0006500Y0188716D02*
X0012421Y0188716D01*
X0011572Y0187867D02*
X0011572Y0187867D01*
X0011554Y0187849D02*
X0011554Y0187849D01*
X0015509Y0189714D02*
X0006500Y0189714D01*
X0006500Y0190713D02*
X0015509Y0190713D01*
X0015860Y0191711D02*
X0014352Y0191711D01*
X0012093Y0191711D02*
X0006500Y0191711D01*
X0006500Y0192710D02*
X0011094Y0192710D01*
X0011554Y0192249D02*
X0011554Y0192249D01*
X0008756Y0193708D02*
X0006500Y0193708D01*
X0006500Y0194707D02*
X0007501Y0194707D01*
X0008750Y0193711D02*
X0008750Y0193711D01*
X0023028Y0192641D02*
X0023028Y0192641D01*
X0064075Y0168745D02*
X0069925Y0168745D01*
X0068914Y0167747D02*
X0065086Y0167747D01*
X0065529Y0166748D02*
X0068471Y0166748D01*
X0068300Y0165750D02*
X0065700Y0165750D01*
X0065700Y0164751D02*
X0068300Y0164751D01*
X0068300Y0163753D02*
X0065700Y0163753D01*
X0065700Y0162754D02*
X0068300Y0162754D01*
X0068300Y0161756D02*
X0065700Y0161756D01*
X0065700Y0160757D02*
X0068300Y0160757D01*
X0068300Y0159759D02*
X0065700Y0159759D01*
X0065326Y0158760D02*
X0068674Y0158760D01*
X0069406Y0157762D02*
X0064594Y0157762D01*
X0074594Y0157762D02*
X0079406Y0157762D01*
X0078674Y0158760D02*
X0075326Y0158760D01*
X0075700Y0159759D02*
X0078300Y0159759D01*
X0078300Y0160757D02*
X0075700Y0160757D01*
X0075700Y0161756D02*
X0078300Y0161756D01*
X0078300Y0162754D02*
X0075700Y0162754D01*
X0075700Y0163753D02*
X0078300Y0163753D01*
X0078300Y0164751D02*
X0075700Y0164751D01*
X0075700Y0165750D02*
X0078300Y0165750D01*
X0078471Y0166748D02*
X0075529Y0166748D01*
X0075086Y0167747D02*
X0078914Y0167747D01*
X0079925Y0168745D02*
X0074075Y0168745D01*
X0084075Y0168745D02*
X0089925Y0168745D01*
X0088914Y0167747D02*
X0085086Y0167747D01*
X0085529Y0166748D02*
X0088471Y0166748D01*
X0088300Y0165750D02*
X0085700Y0165750D01*
X0085700Y0164751D02*
X0088300Y0164751D01*
X0088300Y0163753D02*
X0085700Y0163753D01*
X0085700Y0162754D02*
X0088300Y0162754D01*
X0088300Y0161756D02*
X0085700Y0161756D01*
X0085700Y0160757D02*
X0088300Y0160757D01*
X0088300Y0159759D02*
X0085700Y0159759D01*
X0085326Y0158760D02*
X0088674Y0158760D01*
X0089406Y0157762D02*
X0084594Y0157762D01*
X0083967Y0138790D02*
X0090033Y0138790D01*
X0088959Y0137792D02*
X0085041Y0137792D01*
X0085511Y0136793D02*
X0088489Y0136793D01*
X0088300Y0135795D02*
X0085700Y0135795D01*
X0085700Y0134796D02*
X0088300Y0134796D01*
X0088300Y0133798D02*
X0085700Y0133798D01*
X0085700Y0132799D02*
X0088300Y0132799D01*
X0088300Y0131801D02*
X0085700Y0131801D01*
X0085700Y0130802D02*
X0088300Y0130802D01*
X0088300Y0129803D02*
X0085700Y0129803D01*
X0085344Y0128805D02*
X0088656Y0128805D01*
X0089361Y0127806D02*
X0084639Y0127806D01*
X0079361Y0127806D02*
X0074639Y0127806D01*
X0075344Y0128805D02*
X0078656Y0128805D01*
X0078300Y0129803D02*
X0075700Y0129803D01*
X0075700Y0130802D02*
X0078300Y0130802D01*
X0078300Y0131801D02*
X0075700Y0131801D01*
X0075700Y0132799D02*
X0078300Y0132799D01*
X0078300Y0133798D02*
X0075700Y0133798D01*
X0075700Y0134796D02*
X0078300Y0134796D01*
X0078300Y0135795D02*
X0075700Y0135795D01*
X0075511Y0136793D02*
X0078489Y0136793D01*
X0078959Y0137792D02*
X0075041Y0137792D01*
X0073967Y0138790D02*
X0080033Y0138790D01*
X0070033Y0138790D02*
X0063967Y0138790D01*
X0065041Y0137792D02*
X0068959Y0137792D01*
X0068489Y0136793D02*
X0065511Y0136793D01*
X0065700Y0135795D02*
X0068300Y0135795D01*
X0068300Y0134796D02*
X0065700Y0134796D01*
X0065700Y0133798D02*
X0068300Y0133798D01*
X0068300Y0132799D02*
X0065700Y0132799D01*
X0065700Y0131801D02*
X0068300Y0131801D01*
X0068300Y0130802D02*
X0065700Y0130802D01*
X0065700Y0129803D02*
X0068300Y0129803D01*
X0068656Y0128805D02*
X0065344Y0128805D01*
X0064639Y0127806D02*
X0069361Y0127806D01*
X0067835Y0120300D02*
X0066165Y0120300D01*
X0064621Y0119661D01*
X0063439Y0118479D01*
X0062800Y0116935D01*
X0062800Y0109065D01*
X0063439Y0107521D01*
X0064621Y0106339D01*
X0066165Y0105700D01*
X0067835Y0105700D01*
X0069379Y0106339D01*
X0070561Y0107521D01*
X0071200Y0109065D01*
X0071200Y0116935D01*
X0070561Y0118479D01*
X0069379Y0119661D01*
X0067835Y0120300D01*
X0068998Y0119818D02*
X0075002Y0119818D01*
X0074621Y0119661D02*
X0073439Y0118479D01*
X0072800Y0116935D01*
X0072800Y0109065D01*
X0073439Y0107521D01*
X0074621Y0106339D01*
X0076165Y0105700D01*
X0077835Y0105700D01*
X0079379Y0106339D01*
X0080561Y0107521D01*
X0081200Y0109065D01*
X0081200Y0116935D01*
X0080561Y0118479D01*
X0079379Y0119661D01*
X0077835Y0120300D01*
X0076165Y0120300D01*
X0074621Y0119661D01*
X0073780Y0118820D02*
X0070220Y0118820D01*
X0070833Y0117821D02*
X0073167Y0117821D01*
X0072800Y0116823D02*
X0071200Y0116823D01*
X0071200Y0115824D02*
X0072800Y0115824D01*
X0072800Y0114826D02*
X0071200Y0114826D01*
X0071200Y0113827D02*
X0072800Y0113827D01*
X0072800Y0112829D02*
X0071200Y0112829D01*
X0071200Y0111830D02*
X0072800Y0111830D01*
X0072800Y0110832D02*
X0071200Y0110832D01*
X0071200Y0109833D02*
X0072800Y0109833D01*
X0072895Y0108835D02*
X0071105Y0108835D01*
X0070691Y0107836D02*
X0073309Y0107836D01*
X0074123Y0106838D02*
X0069877Y0106838D01*
X0068172Y0105839D02*
X0075828Y0105839D01*
X0078172Y0105839D02*
X0085828Y0105839D01*
X0086165Y0105700D02*
X0084621Y0106339D01*
X0083439Y0107521D01*
X0082800Y0109065D01*
X0082800Y0116935D01*
X0083439Y0118479D01*
X0084621Y0119661D01*
X0086165Y0120300D01*
X0087835Y0120300D01*
X0089379Y0119661D01*
X0090561Y0118479D01*
X0091200Y0116935D01*
X0091200Y0109065D01*
X0090561Y0107521D01*
X0089379Y0106339D01*
X0087835Y0105700D01*
X0086165Y0105700D01*
X0088172Y0105839D02*
X0095828Y0105839D01*
X0096165Y0105700D02*
X0097835Y0105700D01*
X0099379Y0106339D01*
X0100561Y0107521D01*
X0101200Y0109065D01*
X0101200Y0116935D01*
X0100561Y0118479D01*
X0099379Y0119661D01*
X0097835Y0120300D01*
X0096165Y0120300D01*
X0094621Y0119661D01*
X0093439Y0118479D01*
X0092800Y0116935D01*
X0092800Y0109065D01*
X0093439Y0107521D01*
X0094621Y0106339D01*
X0096165Y0105700D01*
X0098172Y0105839D02*
X0105828Y0105839D01*
X0106165Y0105700D02*
X0104621Y0106339D01*
X0103439Y0107521D01*
X0102800Y0109065D01*
X0102800Y0116935D01*
X0103439Y0118479D01*
X0104621Y0119661D01*
X0106165Y0120300D01*
X0107835Y0120300D01*
X0109379Y0119661D01*
X0110561Y0118479D01*
X0111200Y0116935D01*
X0111200Y0109065D01*
X0110561Y0107521D01*
X0109379Y0106339D01*
X0107835Y0105700D01*
X0106165Y0105700D01*
X0108172Y0105839D02*
X0115828Y0105839D01*
X0116165Y0105700D02*
X0117835Y0105700D01*
X0119379Y0106339D01*
X0120561Y0107521D01*
X0121200Y0109065D01*
X0121200Y0116935D01*
X0120561Y0118479D01*
X0119379Y0119661D01*
X0117835Y0120300D01*
X0116165Y0120300D01*
X0114621Y0119661D01*
X0113439Y0118479D01*
X0112800Y0116935D01*
X0112800Y0109065D01*
X0113439Y0107521D01*
X0114621Y0106339D01*
X0116165Y0105700D01*
X0118172Y0105839D02*
X0125828Y0105839D01*
X0126165Y0105700D02*
X0127835Y0105700D01*
X0129379Y0106339D01*
X0130561Y0107521D01*
X0131200Y0109065D01*
X0131200Y0116935D01*
X0130561Y0118479D01*
X0129379Y0119661D01*
X0127835Y0120300D01*
X0126165Y0120300D01*
X0124621Y0119661D01*
X0123439Y0118479D01*
X0122800Y0116935D01*
X0122800Y0109065D01*
X0123439Y0107521D01*
X0124621Y0106339D01*
X0126165Y0105700D01*
X0128172Y0105839D02*
X0135828Y0105839D01*
X0136165Y0105700D02*
X0134621Y0106339D01*
X0133439Y0107521D01*
X0132800Y0109065D01*
X0132800Y0116935D01*
X0133439Y0118479D01*
X0134621Y0119661D01*
X0136165Y0120300D01*
X0137835Y0120300D01*
X0139379Y0119661D01*
X0140561Y0118479D01*
X0141200Y0116935D01*
X0141200Y0109065D01*
X0140561Y0107521D01*
X0139379Y0106339D01*
X0137835Y0105700D01*
X0136165Y0105700D01*
X0138172Y0105839D02*
X0145828Y0105839D01*
X0146165Y0105700D02*
X0147835Y0105700D01*
X0149379Y0106339D01*
X0150561Y0107521D01*
X0151200Y0109065D01*
X0151200Y0116935D01*
X0150561Y0118479D01*
X0149379Y0119661D01*
X0147835Y0120300D01*
X0146165Y0120300D01*
X0144621Y0119661D01*
X0143439Y0118479D01*
X0142800Y0116935D01*
X0142800Y0109065D01*
X0143439Y0107521D01*
X0144621Y0106339D01*
X0146165Y0105700D01*
X0148172Y0105839D02*
X0155828Y0105839D01*
X0156165Y0105700D02*
X0154621Y0106339D01*
X0153439Y0107521D01*
X0152800Y0109065D01*
X0152800Y0116935D01*
X0153439Y0118479D01*
X0154621Y0119661D01*
X0156165Y0120300D01*
X0157835Y0120300D01*
X0159379Y0119661D01*
X0160561Y0118479D01*
X0161200Y0116935D01*
X0161200Y0109065D01*
X0160561Y0107521D01*
X0159379Y0106339D01*
X0157835Y0105700D01*
X0156165Y0105700D01*
X0158172Y0105839D02*
X0165828Y0105839D01*
X0166165Y0105700D02*
X0164621Y0106339D01*
X0163439Y0107521D01*
X0162800Y0109065D01*
X0162800Y0116935D01*
X0163439Y0118479D01*
X0164621Y0119661D01*
X0166165Y0120300D01*
X0167835Y0120300D01*
X0169379Y0119661D01*
X0170561Y0118479D01*
X0171200Y0116935D01*
X0171200Y0109065D01*
X0170561Y0107521D01*
X0169379Y0106339D01*
X0167835Y0105700D01*
X0166165Y0105700D01*
X0168172Y0105839D02*
X0175100Y0105839D01*
X0175100Y0104841D02*
X0006500Y0104841D01*
X0006500Y0105839D02*
X0013993Y0105839D01*
X0012994Y0106838D02*
X0006500Y0106838D01*
X0006500Y0107836D02*
X0012556Y0107836D01*
X0012556Y0108835D02*
X0006500Y0108835D01*
X0006500Y0109833D02*
X0012556Y0109833D01*
X0012556Y0110832D02*
X0006500Y0110832D01*
X0006500Y0111830D02*
X0012791Y0111830D01*
X0013449Y0112829D02*
X0006500Y0112829D01*
X0006500Y0113827D02*
X0012556Y0113827D01*
X0012556Y0114826D02*
X0006500Y0114826D01*
X0006500Y0115824D02*
X0012556Y0115824D01*
X0012556Y0116823D02*
X0006500Y0116823D01*
X0006500Y0117821D02*
X0013321Y0117821D01*
X0012919Y0118820D02*
X0006500Y0118820D01*
X0006500Y0119818D02*
X0012556Y0119818D01*
X0012556Y0120817D02*
X0006500Y0120817D01*
X0006500Y0121815D02*
X0012556Y0121815D01*
X0012556Y0122814D02*
X0006500Y0122814D01*
X0006500Y0123812D02*
X0012866Y0123812D01*
X0013865Y0124811D02*
X0006500Y0124811D01*
X0006500Y0125809D02*
X0013359Y0125809D01*
X0012556Y0126808D02*
X0006500Y0126808D01*
X0006500Y0127806D02*
X0012556Y0127806D01*
X0012556Y0128805D02*
X0006500Y0128805D01*
X0006500Y0129803D02*
X0012556Y0129803D01*
X0012556Y0130802D02*
X0006500Y0130802D01*
X0006500Y0131801D02*
X0013425Y0131801D01*
X0012815Y0132799D02*
X0006500Y0132799D01*
X0006500Y0133798D02*
X0012556Y0133798D01*
X0012556Y0134796D02*
X0006500Y0134796D01*
X0006500Y0135795D02*
X0012556Y0135795D01*
X0012956Y0136793D02*
X0006500Y0136793D01*
X0006500Y0137792D02*
X0011316Y0137792D01*
X0010588Y0138790D02*
X0006500Y0138790D01*
X0006500Y0139789D02*
X0010588Y0139789D01*
X0011489Y0140787D02*
X0006500Y0140787D01*
X0015856Y0147316D02*
X0015856Y0147917D01*
X0015874Y0147935D01*
X0016475Y0147935D01*
X0016493Y0147917D01*
X0016493Y0147316D01*
X0016475Y0147298D01*
X0015874Y0147298D01*
X0015856Y0147316D01*
X0015856Y0147777D02*
X0016493Y0147777D01*
X0033967Y0138790D02*
X0040033Y0138790D01*
X0038959Y0137792D02*
X0035041Y0137792D01*
X0035511Y0136793D02*
X0038489Y0136793D01*
X0038300Y0135795D02*
X0035700Y0135795D01*
X0035700Y0134796D02*
X0038300Y0134796D01*
X0038300Y0133798D02*
X0035700Y0133798D01*
X0035700Y0132799D02*
X0038300Y0132799D01*
X0038300Y0131801D02*
X0035700Y0131801D01*
X0035700Y0130802D02*
X0038300Y0130802D01*
X0038300Y0129803D02*
X0035700Y0129803D01*
X0035344Y0128805D02*
X0038656Y0128805D01*
X0039361Y0127806D02*
X0034639Y0127806D01*
X0044639Y0127806D02*
X0049361Y0127806D01*
X0048656Y0128805D02*
X0045344Y0128805D01*
X0045700Y0129803D02*
X0048300Y0129803D01*
X0048300Y0130802D02*
X0045700Y0130802D01*
X0045700Y0131801D02*
X0048300Y0131801D01*
X0048300Y0132799D02*
X0045700Y0132799D01*
X0045700Y0133798D02*
X0048300Y0133798D01*
X0048300Y0134796D02*
X0045700Y0134796D01*
X0045700Y0135795D02*
X0048300Y0135795D01*
X0048489Y0136793D02*
X0045511Y0136793D01*
X0045041Y0137792D02*
X0048959Y0137792D01*
X0050033Y0138790D02*
X0043967Y0138790D01*
X0053967Y0138790D02*
X0060033Y0138790D01*
X0058959Y0137792D02*
X0055041Y0137792D01*
X0055511Y0136793D02*
X0058489Y0136793D01*
X0058300Y0135795D02*
X0055700Y0135795D01*
X0055700Y0134796D02*
X0058300Y0134796D01*
X0058300Y0133798D02*
X0055700Y0133798D01*
X0055700Y0132799D02*
X0058300Y0132799D01*
X0058300Y0131801D02*
X0055700Y0131801D01*
X0055700Y0130802D02*
X0058300Y0130802D01*
X0058300Y0129803D02*
X0055700Y0129803D01*
X0055344Y0128805D02*
X0058656Y0128805D01*
X0059361Y0127806D02*
X0054639Y0127806D01*
X0056165Y0120300D02*
X0054621Y0119661D01*
X0053439Y0118479D01*
X0052800Y0116935D01*
X0052800Y0109065D01*
X0053439Y0107521D01*
X0054621Y0106339D01*
X0056165Y0105700D01*
X0057835Y0105700D01*
X0059379Y0106339D01*
X0060561Y0107521D01*
X0061200Y0109065D01*
X0061200Y0116935D01*
X0060561Y0118479D01*
X0059379Y0119661D01*
X0057835Y0120300D01*
X0056165Y0120300D01*
X0055002Y0119818D02*
X0048998Y0119818D01*
X0049379Y0119661D02*
X0047835Y0120300D01*
X0046165Y0120300D01*
X0044621Y0119661D01*
X0043439Y0118479D01*
X0042800Y0116935D01*
X0042800Y0109065D01*
X0043439Y0107521D01*
X0044621Y0106339D01*
X0046165Y0105700D01*
X0047835Y0105700D01*
X0049379Y0106339D01*
X0050561Y0107521D01*
X0051200Y0109065D01*
X0051200Y0116935D01*
X0050561Y0118479D01*
X0049379Y0119661D01*
X0050220Y0118820D02*
X0053780Y0118820D01*
X0053167Y0117821D02*
X0050833Y0117821D01*
X0051200Y0116823D02*
X0052800Y0116823D01*
X0052800Y0115824D02*
X0051200Y0115824D01*
X0051200Y0114826D02*
X0052800Y0114826D01*
X0052800Y0113827D02*
X0051200Y0113827D01*
X0051200Y0112829D02*
X0052800Y0112829D01*
X0052800Y0111830D02*
X0051200Y0111830D01*
X0051200Y0110832D02*
X0052800Y0110832D01*
X0052800Y0109833D02*
X0051200Y0109833D01*
X0051105Y0108835D02*
X0052895Y0108835D01*
X0053309Y0107836D02*
X0050691Y0107836D01*
X0049877Y0106838D02*
X0054123Y0106838D01*
X0055828Y0105839D02*
X0048172Y0105839D01*
X0045828Y0105839D02*
X0019340Y0105839D01*
X0019793Y0106838D02*
X0044123Y0106838D01*
X0043309Y0107836D02*
X0019793Y0107836D01*
X0019793Y0108835D02*
X0042895Y0108835D01*
X0042800Y0109833D02*
X0019793Y0109833D01*
X0019572Y0110832D02*
X0042800Y0110832D01*
X0042800Y0111830D02*
X0018574Y0111830D01*
X0018900Y0112829D02*
X0042800Y0112829D01*
X0042800Y0113827D02*
X0019793Y0113827D01*
X0019793Y0114826D02*
X0042800Y0114826D01*
X0042800Y0115824D02*
X0019793Y0115824D01*
X0019793Y0116823D02*
X0042800Y0116823D01*
X0043167Y0117821D02*
X0019793Y0117821D01*
X0019430Y0118820D02*
X0043780Y0118820D01*
X0045002Y0119818D02*
X0019793Y0119818D01*
X0015856Y0121815D02*
X0170922Y0121815D01*
X0168998Y0119818D02*
X0175002Y0119818D01*
X0173780Y0118820D02*
X0170220Y0118820D01*
X0170833Y0117821D02*
X0173167Y0117821D01*
X0172800Y0116823D02*
X0171200Y0116823D01*
X0171200Y0115824D02*
X0172800Y0115824D01*
X0172800Y0114826D02*
X0171200Y0114826D01*
X0171200Y0113827D02*
X0172800Y0113827D01*
X0172800Y0112829D02*
X0171200Y0112829D01*
X0171200Y0111830D02*
X0172800Y0111830D01*
X0172800Y0110832D02*
X0171200Y0110832D01*
X0171200Y0109833D02*
X0172800Y0109833D01*
X0172895Y0108835D02*
X0171105Y0108835D01*
X0170691Y0107836D02*
X0173309Y0107836D01*
X0174123Y0106838D02*
X0169877Y0106838D01*
X0164123Y0106838D02*
X0159877Y0106838D01*
X0160691Y0107836D02*
X0163309Y0107836D01*
X0162895Y0108835D02*
X0161105Y0108835D01*
X0161200Y0109833D02*
X0162800Y0109833D01*
X0162800Y0110832D02*
X0161200Y0110832D01*
X0161200Y0111830D02*
X0162800Y0111830D01*
X0162800Y0112829D02*
X0161200Y0112829D01*
X0161200Y0113827D02*
X0162800Y0113827D01*
X0162800Y0114826D02*
X0161200Y0114826D01*
X0161200Y0115824D02*
X0162800Y0115824D01*
X0162800Y0116823D02*
X0161200Y0116823D01*
X0160833Y0117821D02*
X0163167Y0117821D01*
X0163780Y0118820D02*
X0160220Y0118820D01*
X0158998Y0119818D02*
X0165002Y0119818D01*
X0166928Y0125809D02*
X0018990Y0125809D01*
X0016493Y0127979D02*
X0016475Y0127962D01*
X0015874Y0127962D01*
X0015856Y0127979D01*
X0015856Y0128598D01*
X0016493Y0128598D01*
X0016493Y0127979D01*
X0015491Y0132091D02*
X0015491Y0132091D01*
X0015417Y0112829D02*
X0014964Y0112829D01*
X0015491Y0112755D02*
X0015491Y0112755D01*
X0015621Y0111830D02*
X0015744Y0111830D01*
X0016388Y0105839D02*
X0016945Y0105839D01*
X0006500Y0103842D02*
X0175100Y0103842D01*
X0174157Y0102844D02*
X0006500Y0102844D01*
X0006500Y0101845D02*
X0173158Y0101845D01*
X0172160Y0100847D02*
X0006500Y0100847D01*
X0006500Y0099848D02*
X0036161Y0099848D01*
X0035163Y0098850D02*
X0006500Y0098850D01*
X0006500Y0097851D02*
X0034164Y0097851D01*
X0033166Y0096853D02*
X0006500Y0096853D01*
X0006500Y0095854D02*
X0032167Y0095854D01*
X0031169Y0094856D02*
X0006500Y0094856D01*
X0006500Y0093857D02*
X0030170Y0093857D01*
X0029172Y0092859D02*
X0006500Y0092859D01*
X0006500Y0091860D02*
X0028173Y0091860D01*
X0027175Y0090862D02*
X0006500Y0090862D01*
X0006500Y0089863D02*
X0026176Y0089863D01*
X0026213Y0089900D02*
X0026213Y0089900D01*
X0025178Y0088865D02*
X0006500Y0088865D01*
X0006500Y0087866D02*
X0025100Y0087866D01*
X0025100Y0086868D02*
X0006500Y0086868D01*
X0006500Y0085869D02*
X0025100Y0085869D01*
X0025100Y0084870D02*
X0006500Y0084870D01*
X0006500Y0083872D02*
X0025100Y0083872D01*
X0025100Y0082873D02*
X0006500Y0082873D01*
X0006500Y0081875D02*
X0025100Y0081875D01*
X0025100Y0080876D02*
X0006500Y0080876D01*
X0006500Y0079878D02*
X0025100Y0079878D01*
X0025100Y0078879D02*
X0006500Y0078879D01*
X0006500Y0077881D02*
X0025100Y0077881D01*
X0025100Y0076882D02*
X0006500Y0076882D01*
X0006500Y0075884D02*
X0025100Y0075884D01*
X0025100Y0074885D02*
X0006500Y0074885D01*
X0006500Y0073887D02*
X0025100Y0073887D01*
X0025100Y0072888D02*
X0006500Y0072888D01*
X0006500Y0071890D02*
X0025100Y0071890D01*
X0025100Y0070891D02*
X0006500Y0070891D01*
X0006500Y0069893D02*
X0025100Y0069893D01*
X0025100Y0068894D02*
X0006500Y0068894D01*
X0006500Y0067896D02*
X0025100Y0067896D01*
X0025100Y0066897D02*
X0006500Y0066897D01*
X0006500Y0065899D02*
X0025100Y0065899D01*
X0025100Y0064900D02*
X0006500Y0064900D01*
X0006500Y0063902D02*
X0025100Y0063902D01*
X0025100Y0062903D02*
X0006500Y0062903D01*
X0006500Y0061905D02*
X0025100Y0061905D01*
X0025100Y0060906D02*
X0006500Y0060906D01*
X0006500Y0059908D02*
X0025100Y0059908D01*
X0025100Y0058909D02*
X0006500Y0058909D01*
X0006500Y0057911D02*
X0025100Y0057911D01*
X0025100Y0056912D02*
X0006500Y0056912D01*
X0006500Y0055914D02*
X0025100Y0055914D01*
X0025100Y0054915D02*
X0006500Y0054915D01*
X0006500Y0053917D02*
X0025100Y0053917D01*
X0025100Y0052918D02*
X0006500Y0052918D01*
X0006500Y0051920D02*
X0025100Y0051920D01*
X0025100Y0050921D02*
X0006500Y0050921D01*
X0006500Y0049923D02*
X0025100Y0049923D01*
X0025100Y0048924D02*
X0006500Y0048924D01*
X0006500Y0047926D02*
X0025100Y0047926D01*
X0033900Y0061905D02*
X0135400Y0061905D01*
X0135400Y0062903D02*
X0033900Y0062903D01*
X0033900Y0063902D02*
X0135639Y0063902D01*
X0136638Y0064900D02*
X0033900Y0064900D01*
X0033900Y0065899D02*
X0137636Y0065899D01*
X0138635Y0066897D02*
X0033900Y0066897D01*
X0033900Y0067896D02*
X0139633Y0067896D01*
X0140632Y0068894D02*
X0033900Y0068894D01*
X0033900Y0069893D02*
X0141630Y0069893D01*
X0142629Y0070891D02*
X0033900Y0070891D01*
X0033900Y0071890D02*
X0143627Y0071890D01*
X0144626Y0072888D02*
X0033900Y0072888D01*
X0033900Y0073887D02*
X0145624Y0073887D01*
X0147154Y0070891D02*
X0182629Y0070891D01*
X0183627Y0071890D02*
X0178153Y0071890D01*
X0179151Y0072888D02*
X0184626Y0072888D01*
X0185624Y0073887D02*
X0180150Y0073887D01*
X0181148Y0074885D02*
X0186623Y0074885D01*
X0187621Y0075884D02*
X0182147Y0075884D01*
X0183145Y0076882D02*
X0188620Y0076882D01*
X0189618Y0077881D02*
X0184144Y0077881D01*
X0185142Y0078879D02*
X0190617Y0078879D01*
X0191615Y0079878D02*
X0186141Y0079878D01*
X0187139Y0080876D02*
X0192614Y0080876D01*
X0193612Y0081875D02*
X0188138Y0081875D01*
X0189136Y0082873D02*
X0194611Y0082873D01*
X0195609Y0083872D02*
X0190135Y0083872D01*
X0191133Y0084870D02*
X0196608Y0084870D01*
X0197606Y0085869D02*
X0192132Y0085869D01*
X0193130Y0086868D02*
X0198605Y0086868D01*
X0199603Y0087866D02*
X0194129Y0087866D01*
X0195127Y0088865D02*
X0200400Y0088865D01*
X0200400Y0089863D02*
X0196126Y0089863D01*
X0197124Y0090862D02*
X0200400Y0090862D01*
X0200400Y0091860D02*
X0198123Y0091860D01*
X0198600Y0092859D02*
X0200400Y0092859D01*
X0200400Y0093857D02*
X0198600Y0093857D01*
X0198600Y0094856D02*
X0200400Y0094856D01*
X0200400Y0095854D02*
X0198600Y0095854D01*
X0198600Y0096853D02*
X0200400Y0096853D01*
X0200400Y0097851D02*
X0198600Y0097851D01*
X0198600Y0098850D02*
X0200400Y0098850D01*
X0200400Y0099848D02*
X0198600Y0099848D01*
X0198600Y0100847D02*
X0200400Y0100847D01*
X0200400Y0101845D02*
X0198600Y0101845D01*
X0198600Y0102844D02*
X0200400Y0102844D01*
X0200400Y0103842D02*
X0198600Y0103842D01*
X0198600Y0104841D02*
X0200400Y0104841D01*
X0200400Y0105839D02*
X0198600Y0105839D01*
X0198600Y0106838D02*
X0200400Y0106838D01*
X0200400Y0107836D02*
X0198600Y0107836D01*
X0198600Y0108835D02*
X0200400Y0108835D01*
X0200400Y0109833D02*
X0198600Y0109833D01*
X0198600Y0110832D02*
X0200400Y0110832D01*
X0200400Y0111830D02*
X0198600Y0111830D01*
X0198600Y0112829D02*
X0200400Y0112829D01*
X0200400Y0113827D02*
X0198600Y0113827D01*
X0185002Y0119818D02*
X0178998Y0119818D01*
X0180220Y0118820D02*
X0183780Y0118820D01*
X0183167Y0117821D02*
X0180833Y0117821D01*
X0181200Y0116823D02*
X0182800Y0116823D01*
X0182800Y0115824D02*
X0181200Y0115824D01*
X0181200Y0114826D02*
X0182800Y0114826D01*
X0182800Y0113827D02*
X0181200Y0113827D01*
X0181200Y0112829D02*
X0182800Y0112829D01*
X0182800Y0111830D02*
X0181200Y0111830D01*
X0181200Y0110832D02*
X0182800Y0110832D01*
X0182800Y0109833D02*
X0181200Y0109833D01*
X0181105Y0108835D02*
X0182895Y0108835D01*
X0183309Y0107836D02*
X0180691Y0107836D01*
X0179877Y0106838D02*
X0184123Y0106838D01*
X0185100Y0105839D02*
X0178900Y0105839D01*
X0178900Y0104841D02*
X0185100Y0104841D01*
X0185100Y0103842D02*
X0178900Y0103842D01*
X0178900Y0102844D02*
X0185100Y0102844D01*
X0185100Y0101845D02*
X0178532Y0101845D01*
X0177534Y0100847D02*
X0185100Y0100847D01*
X0185100Y0099848D02*
X0176535Y0099848D01*
X0175537Y0098850D02*
X0185100Y0098850D01*
X0184164Y0097851D02*
X0174538Y0097851D01*
X0173540Y0096853D02*
X0183166Y0096853D01*
X0192599Y0090862D02*
X0042549Y0090862D01*
X0041550Y0089863D02*
X0191600Y0089863D01*
X0190602Y0088865D02*
X0040552Y0088865D01*
X0039553Y0087866D02*
X0189603Y0087866D01*
X0188605Y0086868D02*
X0038555Y0086868D01*
X0037556Y0085869D02*
X0187606Y0085869D01*
X0186608Y0084870D02*
X0036557Y0084870D01*
X0035559Y0083872D02*
X0185609Y0083872D01*
X0184611Y0082873D02*
X0034560Y0082873D01*
X0033900Y0081875D02*
X0183612Y0081875D01*
X0182614Y0080876D02*
X0033900Y0080876D01*
X0033900Y0079878D02*
X0181615Y0079878D01*
X0180617Y0078879D02*
X0033900Y0078879D01*
X0033900Y0077881D02*
X0179618Y0077881D01*
X0178620Y0076882D02*
X0033900Y0076882D01*
X0033900Y0075884D02*
X0177621Y0075884D01*
X0176623Y0074885D02*
X0033900Y0074885D01*
X0058172Y0105839D02*
X0065828Y0105839D01*
X0064123Y0106838D02*
X0059877Y0106838D01*
X0060691Y0107836D02*
X0063309Y0107836D01*
X0062895Y0108835D02*
X0061105Y0108835D01*
X0061200Y0109833D02*
X0062800Y0109833D01*
X0062800Y0110832D02*
X0061200Y0110832D01*
X0061200Y0111830D02*
X0062800Y0111830D01*
X0062800Y0112829D02*
X0061200Y0112829D01*
X0061200Y0113827D02*
X0062800Y0113827D01*
X0062800Y0114826D02*
X0061200Y0114826D01*
X0061200Y0115824D02*
X0062800Y0115824D01*
X0062800Y0116823D02*
X0061200Y0116823D01*
X0060833Y0117821D02*
X0063167Y0117821D01*
X0063780Y0118820D02*
X0060220Y0118820D01*
X0058998Y0119818D02*
X0065002Y0119818D01*
X0078998Y0119818D02*
X0085002Y0119818D01*
X0083780Y0118820D02*
X0080220Y0118820D01*
X0080833Y0117821D02*
X0083167Y0117821D01*
X0082800Y0116823D02*
X0081200Y0116823D01*
X0081200Y0115824D02*
X0082800Y0115824D01*
X0082800Y0114826D02*
X0081200Y0114826D01*
X0081200Y0113827D02*
X0082800Y0113827D01*
X0082800Y0112829D02*
X0081200Y0112829D01*
X0081200Y0111830D02*
X0082800Y0111830D01*
X0082800Y0110832D02*
X0081200Y0110832D01*
X0081200Y0109833D02*
X0082800Y0109833D01*
X0082895Y0108835D02*
X0081105Y0108835D01*
X0080691Y0107836D02*
X0083309Y0107836D01*
X0084123Y0106838D02*
X0079877Y0106838D01*
X0089877Y0106838D02*
X0094123Y0106838D01*
X0093309Y0107836D02*
X0090691Y0107836D01*
X0091105Y0108835D02*
X0092895Y0108835D01*
X0092800Y0109833D02*
X0091200Y0109833D01*
X0091200Y0110832D02*
X0092800Y0110832D01*
X0092800Y0111830D02*
X0091200Y0111830D01*
X0091200Y0112829D02*
X0092800Y0112829D01*
X0092800Y0113827D02*
X0091200Y0113827D01*
X0091200Y0114826D02*
X0092800Y0114826D01*
X0092800Y0115824D02*
X0091200Y0115824D01*
X0091200Y0116823D02*
X0092800Y0116823D01*
X0093167Y0117821D02*
X0090833Y0117821D01*
X0090220Y0118820D02*
X0093780Y0118820D01*
X0095002Y0119818D02*
X0088998Y0119818D01*
X0094639Y0127806D02*
X0099361Y0127806D01*
X0098656Y0128805D02*
X0095344Y0128805D01*
X0095700Y0129803D02*
X0098300Y0129803D01*
X0098300Y0130802D02*
X0095700Y0130802D01*
X0095700Y0131801D02*
X0098300Y0131801D01*
X0098300Y0132799D02*
X0095700Y0132799D01*
X0095700Y0133798D02*
X0098300Y0133798D01*
X0098300Y0134796D02*
X0095700Y0134796D01*
X0095700Y0135795D02*
X0098300Y0135795D01*
X0098489Y0136793D02*
X0095511Y0136793D01*
X0095041Y0137792D02*
X0098959Y0137792D01*
X0100033Y0138790D02*
X0093967Y0138790D01*
X0103967Y0138790D02*
X0115033Y0138790D01*
X0113959Y0137792D02*
X0105041Y0137792D01*
X0105511Y0136793D02*
X0113489Y0136793D01*
X0113300Y0135795D02*
X0105700Y0135795D01*
X0105700Y0134796D02*
X0113300Y0134796D01*
X0113300Y0133798D02*
X0105700Y0133798D01*
X0105700Y0132799D02*
X0113300Y0132799D01*
X0113300Y0131801D02*
X0105700Y0131801D01*
X0105700Y0130802D02*
X0113300Y0130802D01*
X0113300Y0129803D02*
X0105700Y0129803D01*
X0105344Y0128805D02*
X0113656Y0128805D01*
X0114361Y0127806D02*
X0104639Y0127806D01*
X0105002Y0119818D02*
X0098998Y0119818D01*
X0100220Y0118820D02*
X0103780Y0118820D01*
X0103167Y0117821D02*
X0100833Y0117821D01*
X0101200Y0116823D02*
X0102800Y0116823D01*
X0102800Y0115824D02*
X0101200Y0115824D01*
X0101200Y0114826D02*
X0102800Y0114826D01*
X0102800Y0113827D02*
X0101200Y0113827D01*
X0101200Y0112829D02*
X0102800Y0112829D01*
X0102800Y0111830D02*
X0101200Y0111830D01*
X0101200Y0110832D02*
X0102800Y0110832D01*
X0102800Y0109833D02*
X0101200Y0109833D01*
X0101105Y0108835D02*
X0102895Y0108835D01*
X0103309Y0107836D02*
X0100691Y0107836D01*
X0099877Y0106838D02*
X0104123Y0106838D01*
X0109877Y0106838D02*
X0114123Y0106838D01*
X0113309Y0107836D02*
X0110691Y0107836D01*
X0111105Y0108835D02*
X0112895Y0108835D01*
X0112800Y0109833D02*
X0111200Y0109833D01*
X0111200Y0110832D02*
X0112800Y0110832D01*
X0112800Y0111830D02*
X0111200Y0111830D01*
X0111200Y0112829D02*
X0112800Y0112829D01*
X0112800Y0113827D02*
X0111200Y0113827D01*
X0111200Y0114826D02*
X0112800Y0114826D01*
X0112800Y0115824D02*
X0111200Y0115824D01*
X0111200Y0116823D02*
X0112800Y0116823D01*
X0113167Y0117821D02*
X0110833Y0117821D01*
X0110220Y0118820D02*
X0113780Y0118820D01*
X0115002Y0119818D02*
X0108998Y0119818D01*
X0118998Y0119818D02*
X0125002Y0119818D01*
X0123780Y0118820D02*
X0120220Y0118820D01*
X0120833Y0117821D02*
X0123167Y0117821D01*
X0122800Y0116823D02*
X0121200Y0116823D01*
X0121200Y0115824D02*
X0122800Y0115824D01*
X0122800Y0114826D02*
X0121200Y0114826D01*
X0121200Y0113827D02*
X0122800Y0113827D01*
X0122800Y0112829D02*
X0121200Y0112829D01*
X0121200Y0111830D02*
X0122800Y0111830D01*
X0122800Y0110832D02*
X0121200Y0110832D01*
X0121200Y0109833D02*
X0122800Y0109833D01*
X0122895Y0108835D02*
X0121105Y0108835D01*
X0120691Y0107836D02*
X0123309Y0107836D01*
X0124123Y0106838D02*
X0119877Y0106838D01*
X0129877Y0106838D02*
X0134123Y0106838D01*
X0133309Y0107836D02*
X0130691Y0107836D01*
X0131105Y0108835D02*
X0132895Y0108835D01*
X0132800Y0109833D02*
X0131200Y0109833D01*
X0131200Y0110832D02*
X0132800Y0110832D01*
X0132800Y0111830D02*
X0131200Y0111830D01*
X0131200Y0112829D02*
X0132800Y0112829D01*
X0132800Y0113827D02*
X0131200Y0113827D01*
X0131200Y0114826D02*
X0132800Y0114826D01*
X0132800Y0115824D02*
X0131200Y0115824D01*
X0131200Y0116823D02*
X0132800Y0116823D01*
X0133167Y0117821D02*
X0130833Y0117821D01*
X0130220Y0118820D02*
X0133780Y0118820D01*
X0135002Y0119818D02*
X0128998Y0119818D01*
X0129639Y0127806D02*
X0134361Y0127806D01*
X0133656Y0128805D02*
X0130344Y0128805D01*
X0130700Y0129803D02*
X0133300Y0129803D01*
X0133300Y0130802D02*
X0130700Y0130802D01*
X0130700Y0131801D02*
X0133300Y0131801D01*
X0133300Y0132799D02*
X0130700Y0132799D01*
X0130700Y0133798D02*
X0133300Y0133798D01*
X0133300Y0134796D02*
X0130700Y0134796D01*
X0130700Y0135795D02*
X0133300Y0135795D01*
X0133489Y0136793D02*
X0130511Y0136793D01*
X0130041Y0137792D02*
X0133959Y0137792D01*
X0135033Y0138790D02*
X0128967Y0138790D01*
X0125033Y0138790D02*
X0118967Y0138790D01*
X0120041Y0137792D02*
X0123959Y0137792D01*
X0123489Y0136793D02*
X0120511Y0136793D01*
X0120700Y0135795D02*
X0123300Y0135795D01*
X0123300Y0134796D02*
X0120700Y0134796D01*
X0120700Y0133798D02*
X0123300Y0133798D01*
X0123300Y0132799D02*
X0120700Y0132799D01*
X0120700Y0131801D02*
X0123300Y0131801D01*
X0123300Y0130802D02*
X0120700Y0130802D01*
X0120700Y0129803D02*
X0123300Y0129803D01*
X0123656Y0128805D02*
X0120344Y0128805D01*
X0119639Y0127806D02*
X0124361Y0127806D01*
X0138998Y0119818D02*
X0145002Y0119818D01*
X0143780Y0118820D02*
X0140220Y0118820D01*
X0140833Y0117821D02*
X0143167Y0117821D01*
X0142800Y0116823D02*
X0141200Y0116823D01*
X0141200Y0115824D02*
X0142800Y0115824D01*
X0142800Y0114826D02*
X0141200Y0114826D01*
X0141200Y0113827D02*
X0142800Y0113827D01*
X0142800Y0112829D02*
X0141200Y0112829D01*
X0141200Y0111830D02*
X0142800Y0111830D01*
X0142800Y0110832D02*
X0141200Y0110832D01*
X0141200Y0109833D02*
X0142800Y0109833D01*
X0142895Y0108835D02*
X0141105Y0108835D01*
X0140691Y0107836D02*
X0143309Y0107836D01*
X0144123Y0106838D02*
X0139877Y0106838D01*
X0149877Y0106838D02*
X0154123Y0106838D01*
X0153309Y0107836D02*
X0150691Y0107836D01*
X0151105Y0108835D02*
X0152895Y0108835D01*
X0152800Y0109833D02*
X0151200Y0109833D01*
X0151200Y0110832D02*
X0152800Y0110832D01*
X0152800Y0111830D02*
X0151200Y0111830D01*
X0151200Y0112829D02*
X0152800Y0112829D01*
X0152800Y0113827D02*
X0151200Y0113827D01*
X0151200Y0114826D02*
X0152800Y0114826D01*
X0152800Y0115824D02*
X0151200Y0115824D01*
X0151200Y0116823D02*
X0152800Y0116823D01*
X0153167Y0117821D02*
X0150833Y0117821D01*
X0150220Y0118820D02*
X0153780Y0118820D01*
X0155002Y0119818D02*
X0148998Y0119818D01*
X0149639Y0127806D02*
X0154361Y0127806D01*
X0153656Y0128805D02*
X0150344Y0128805D01*
X0150700Y0129803D02*
X0153300Y0129803D01*
X0153300Y0130802D02*
X0150700Y0130802D01*
X0150700Y0131801D02*
X0153300Y0131801D01*
X0153300Y0132799D02*
X0150700Y0132799D01*
X0150700Y0133798D02*
X0153300Y0133798D01*
X0153300Y0134796D02*
X0150700Y0134796D01*
X0150700Y0135795D02*
X0153300Y0135795D01*
X0153489Y0136793D02*
X0150511Y0136793D01*
X0150041Y0137792D02*
X0153959Y0137792D01*
X0155033Y0138790D02*
X0148967Y0138790D01*
X0145033Y0138790D02*
X0138967Y0138790D01*
X0140041Y0137792D02*
X0143959Y0137792D01*
X0143489Y0136793D02*
X0140511Y0136793D01*
X0140700Y0135795D02*
X0143300Y0135795D01*
X0143300Y0134796D02*
X0140700Y0134796D01*
X0140700Y0133798D02*
X0143300Y0133798D01*
X0143300Y0132799D02*
X0140700Y0132799D01*
X0140700Y0131801D02*
X0143300Y0131801D01*
X0143300Y0130802D02*
X0140700Y0130802D01*
X0140700Y0129803D02*
X0143300Y0129803D01*
X0143656Y0128805D02*
X0140344Y0128805D01*
X0139639Y0127806D02*
X0144361Y0127806D01*
X0158967Y0138790D02*
X0165033Y0138790D01*
X0163959Y0137792D02*
X0160041Y0137792D01*
X0160511Y0136793D02*
X0163489Y0136793D01*
X0163300Y0135795D02*
X0160700Y0135795D01*
X0160700Y0134796D02*
X0163300Y0134796D01*
X0163300Y0133798D02*
X0160700Y0133798D01*
X0180041Y0137792D02*
X0183959Y0137792D01*
X0183489Y0136793D02*
X0180511Y0136793D01*
X0180700Y0135795D02*
X0183300Y0135795D01*
X0183300Y0134796D02*
X0180700Y0134796D01*
X0180700Y0133798D02*
X0183300Y0133798D01*
X0185033Y0138790D02*
X0180053Y0138790D01*
X0198480Y0143783D02*
X0207900Y0143783D01*
X0183300Y0163753D02*
X0180700Y0163753D01*
X0180700Y0164751D02*
X0183300Y0164751D01*
X0183300Y0165750D02*
X0180700Y0165750D01*
X0180529Y0166748D02*
X0183471Y0166748D01*
X0183914Y0167747D02*
X0180086Y0167747D01*
X0179075Y0168745D02*
X0184925Y0168745D01*
X0189075Y0168745D02*
X0189776Y0168745D01*
X0190774Y0169744D02*
X0141007Y0169744D01*
X0142005Y0170742D02*
X0191773Y0170742D01*
X0192000Y0183000D02*
X0192000Y0188000D01*
X0222870Y0175900D02*
X0222870Y0175900D01*
X0154925Y0168745D02*
X0149075Y0168745D01*
X0150086Y0167747D02*
X0153914Y0167747D01*
X0153471Y0166748D02*
X0150529Y0166748D01*
X0150700Y0165750D02*
X0153300Y0165750D01*
X0153300Y0164751D02*
X0150700Y0164751D01*
X0150700Y0163753D02*
X0153300Y0163753D01*
X0153300Y0162754D02*
X0150700Y0162754D01*
X0150700Y0161756D02*
X0153300Y0161756D01*
X0153300Y0160757D02*
X0150700Y0160757D01*
X0150700Y0159759D02*
X0153300Y0159759D01*
X0153674Y0158760D02*
X0150326Y0158760D01*
X0149594Y0157762D02*
X0154406Y0157762D01*
X0143300Y0163753D02*
X0140700Y0163753D01*
X0140700Y0164751D02*
X0143300Y0164751D01*
X0143300Y0165750D02*
X0140700Y0165750D01*
X0140529Y0166748D02*
X0143471Y0166748D01*
X0143914Y0167747D02*
X0140086Y0167747D01*
X0140008Y0168745D02*
X0144925Y0168745D01*
X0137000Y0178000D02*
X0127000Y0168000D01*
X0127000Y0163000D01*
X0123300Y0162754D02*
X0120700Y0162754D01*
X0120700Y0161756D02*
X0123300Y0161756D01*
X0123300Y0160757D02*
X0120700Y0160757D01*
X0120700Y0159759D02*
X0123300Y0159759D01*
X0123674Y0158760D02*
X0120326Y0158760D01*
X0119594Y0157762D02*
X0124406Y0157762D01*
X0123300Y0163753D02*
X0120700Y0163753D01*
X0120700Y0164751D02*
X0123300Y0164751D01*
X0123300Y0165750D02*
X0120700Y0165750D01*
X0120529Y0166748D02*
X0123471Y0166748D01*
X0123914Y0167747D02*
X0120086Y0167747D01*
X0119075Y0168745D02*
X0124925Y0168745D01*
X0126184Y0180900D02*
X0127816Y0180900D01*
X0129322Y0181524D01*
X0130476Y0182678D01*
X0131100Y0184184D01*
X0131100Y0191816D01*
X0130476Y0193322D01*
X0129322Y0194476D01*
X0127816Y0195100D01*
X0126184Y0195100D01*
X0124678Y0194476D01*
X0123524Y0193322D01*
X0122900Y0191816D01*
X0122900Y0184184D01*
X0123524Y0182678D01*
X0124678Y0181524D01*
X0126184Y0180900D01*
X0124476Y0181726D02*
X0119524Y0181726D01*
X0119322Y0181524D02*
X0120476Y0182678D01*
X0121100Y0184184D01*
X0121100Y0191816D01*
X0120476Y0193322D01*
X0119322Y0194476D01*
X0117816Y0195100D01*
X0116184Y0195100D01*
X0114678Y0194476D01*
X0113524Y0193322D01*
X0112900Y0191816D01*
X0112900Y0184184D01*
X0113524Y0182678D01*
X0114678Y0181524D01*
X0116184Y0180900D01*
X0117816Y0180900D01*
X0119322Y0181524D01*
X0120495Y0182725D02*
X0123505Y0182725D01*
X0123091Y0183723D02*
X0120909Y0183723D01*
X0121100Y0184722D02*
X0122900Y0184722D01*
X0122900Y0185720D02*
X0121100Y0185720D01*
X0121100Y0186719D02*
X0122900Y0186719D01*
X0122900Y0187717D02*
X0121100Y0187717D01*
X0121100Y0188716D02*
X0122900Y0188716D01*
X0122900Y0189714D02*
X0121100Y0189714D01*
X0121100Y0190713D02*
X0122900Y0190713D01*
X0122900Y0191711D02*
X0121100Y0191711D01*
X0120730Y0192710D02*
X0123270Y0192710D01*
X0123910Y0193708D02*
X0120090Y0193708D01*
X0118765Y0194707D02*
X0125235Y0194707D01*
X0128765Y0194707D02*
X0135235Y0194707D01*
X0133910Y0193708D02*
X0130090Y0193708D01*
X0130730Y0192710D02*
X0133270Y0192710D01*
X0132900Y0191711D02*
X0131100Y0191711D01*
X0131100Y0190713D02*
X0132900Y0190713D01*
X0132900Y0189714D02*
X0131100Y0189714D01*
X0131100Y0188716D02*
X0132900Y0188716D01*
X0132900Y0187717D02*
X0131100Y0187717D01*
X0131100Y0186719D02*
X0132900Y0186719D01*
X0132900Y0185720D02*
X0131100Y0185720D01*
X0131100Y0184722D02*
X0132900Y0184722D01*
X0133091Y0183723D02*
X0130909Y0183723D01*
X0130495Y0182725D02*
X0133505Y0182725D01*
X0134476Y0181726D02*
X0129524Y0181726D01*
X0114476Y0181726D02*
X0109524Y0181726D01*
X0110495Y0182725D02*
X0113505Y0182725D01*
X0113091Y0183723D02*
X0110909Y0183723D01*
X0111100Y0184722D02*
X0112900Y0184722D01*
X0112900Y0185720D02*
X0111100Y0185720D01*
X0111100Y0186719D02*
X0112900Y0186719D01*
X0112900Y0187717D02*
X0111100Y0187717D01*
X0111100Y0188716D02*
X0112900Y0188716D01*
X0112900Y0189714D02*
X0111100Y0189714D01*
X0111100Y0190713D02*
X0112900Y0190713D01*
X0112900Y0191711D02*
X0111100Y0191711D01*
X0110730Y0192710D02*
X0113270Y0192710D01*
X0113910Y0193708D02*
X0110090Y0193708D01*
X0108765Y0194707D02*
X0115235Y0194707D01*
X0143278Y0204692D02*
X0150722Y0204692D01*
X0199136Y0082873D02*
X0203904Y0082873D01*
X0202905Y0081875D02*
X0198138Y0081875D01*
X0197139Y0080876D02*
X0201907Y0080876D01*
X0200908Y0079878D02*
X0196141Y0079878D01*
X0195142Y0078879D02*
X0199910Y0078879D01*
X0199900Y0077881D02*
X0194144Y0077881D01*
X0193145Y0076882D02*
X0199900Y0076882D01*
X0199900Y0075884D02*
X0192147Y0075884D01*
X0191148Y0074885D02*
X0199900Y0074885D01*
X0199900Y0073887D02*
X0190150Y0073887D01*
X0189151Y0072888D02*
X0199900Y0072888D01*
X0199900Y0071890D02*
X0188153Y0071890D01*
X0187154Y0070891D02*
X0199900Y0070891D01*
X0199900Y0069893D02*
X0186156Y0069893D01*
X0185157Y0068894D02*
X0199900Y0068894D01*
X0199900Y0067896D02*
X0184159Y0067896D01*
X0183160Y0066897D02*
X0200133Y0066897D01*
X0185217Y0059908D02*
X0178783Y0059908D01*
X0180130Y0058909D02*
X0183870Y0058909D01*
X0183204Y0057911D02*
X0180796Y0057911D01*
X0181200Y0056912D02*
X0182800Y0056912D01*
X0182800Y0055914D02*
X0181200Y0055914D01*
X0181200Y0054915D02*
X0182800Y0054915D01*
X0182800Y0053917D02*
X0181200Y0053917D01*
X0181200Y0052918D02*
X0182800Y0052918D01*
X0182800Y0051920D02*
X0181200Y0051920D01*
X0181200Y0050921D02*
X0182800Y0050921D01*
X0182800Y0049923D02*
X0181200Y0049923D01*
X0181142Y0048924D02*
X0182858Y0048924D01*
X0183272Y0047926D02*
X0180728Y0047926D01*
X0179967Y0046927D02*
X0184033Y0046927D01*
X0174033Y0046927D02*
X0169967Y0046927D01*
X0170728Y0047926D02*
X0173272Y0047926D01*
X0172858Y0048924D02*
X0171142Y0048924D01*
X0171200Y0049923D02*
X0172800Y0049923D01*
X0172800Y0050921D02*
X0171200Y0050921D01*
X0171200Y0051920D02*
X0172800Y0051920D01*
X0172800Y0052918D02*
X0171200Y0052918D01*
X0171200Y0053917D02*
X0172800Y0053917D01*
X0172800Y0054915D02*
X0171200Y0054915D01*
X0171200Y0055914D02*
X0172800Y0055914D01*
X0172800Y0056912D02*
X0171200Y0056912D01*
X0170796Y0057911D02*
X0173204Y0057911D01*
X0173870Y0058909D02*
X0170130Y0058909D01*
X0168783Y0059908D02*
X0175217Y0059908D01*
X0165217Y0059908D02*
X0158783Y0059908D01*
X0160130Y0058909D02*
X0163870Y0058909D01*
X0163204Y0057911D02*
X0160796Y0057911D01*
X0161200Y0056912D02*
X0162800Y0056912D01*
X0162800Y0055914D02*
X0161200Y0055914D01*
X0161200Y0054915D02*
X0162800Y0054915D01*
X0162800Y0053917D02*
X0161200Y0053917D01*
X0161200Y0052918D02*
X0162800Y0052918D01*
X0162800Y0051920D02*
X0161200Y0051920D01*
X0161200Y0050921D02*
X0162800Y0050921D01*
X0162800Y0049923D02*
X0161200Y0049923D01*
X0161142Y0048924D02*
X0162858Y0048924D01*
X0163272Y0047926D02*
X0160728Y0047926D01*
X0159967Y0046927D02*
X0164033Y0046927D01*
X0181630Y0069893D02*
X0146156Y0069893D01*
X0165728Y0010981D02*
X0165795Y0010981D01*
X0166793Y0009982D02*
X0164729Y0009982D01*
X0171175Y0009982D02*
X0172255Y0009982D01*
D26*
X0182000Y0093000D02*
X0042000Y0093000D01*
X0032000Y0083000D01*
X0032000Y0043000D01*
X0042000Y0033000D01*
X0052000Y0033000D01*
X0052000Y0023000D02*
X0042000Y0023000D01*
X0027000Y0038000D01*
X0027000Y0088000D01*
X0037000Y0098000D01*
X0172000Y0098000D01*
X0177000Y0103000D01*
X0177000Y0113000D01*
X0187000Y0113000D02*
X0187000Y0098000D01*
X0182000Y0093000D01*
D27*
X0202000Y0078000D02*
X0202000Y0068000D01*
X0207000Y0063000D01*
X0207000Y0043000D01*
X0212000Y0038000D01*
X0237354Y0067882D02*
X0245858Y0067882D01*
X0207000Y0083000D02*
X0202000Y0078000D01*
X0207000Y0083000D02*
X0207000Y0113000D01*
X0217000Y0123000D01*
X0227000Y0123000D01*
X0232000Y0128000D01*
X0232000Y0138000D01*
X0227000Y0143000D01*
X0232000Y0148000D01*
X0232000Y0168000D01*
X0227000Y0173000D01*
X0217000Y0173000D01*
X0222000Y0178000D01*
X0222000Y0188000D01*
X0222000Y0198000D01*
X0217000Y0203000D01*
X0152000Y0203000D01*
X0147000Y0198000D01*
X0147000Y0188000D01*
X0147000Y0198000D02*
X0142000Y0203000D01*
X0077000Y0203000D01*
X0072000Y0198000D01*
X0072000Y0188000D01*
X0072000Y0183000D01*
X0077000Y0178000D01*
X0097000Y0178000D01*
X0102000Y0173000D01*
X0102000Y0163000D01*
X0187000Y0163000D02*
X0197000Y0173000D01*
X0217000Y0173000D01*
X0222000Y0153000D02*
X0222000Y0143000D01*
X0227000Y0143000D01*
D28*
X0237354Y0067882D03*
M02*
