G75*
%MOIN*%
%OFA0B0*%
%FSLAX25Y25*%
%IPPOS*%
%LPD*%
%AMOC8*
5,1,8,0,0,1.08239X$1,22.5*
%
%ADD10C,0.08200*%
%ADD11C,0.07000*%
%ADD12C,0.07300*%
%ADD13R,0.07300X0.07300*%
%ADD14C,0.07400*%
%ADD15C,0.06000*%
%ADD16R,0.06115X0.02375*%
%ADD17R,0.07887X0.07887*%
%ADD18R,0.05918X0.09855*%
%ADD19R,0.07099X0.07099*%
%ADD20C,0.06800*%
%ADD21R,0.06800X0.06800*%
%ADD22OC8,0.06000*%
%ADD23OC8,0.06800*%
%ADD24C,0.12611*%
%ADD25C,0.04400*%
D10*
X0052000Y0013000D03*
X0052000Y0023000D03*
X0052000Y0033000D03*
X0077000Y0033000D03*
X0077000Y0023000D03*
X0087000Y0023000D03*
X0097000Y0023000D03*
X0097000Y0033000D03*
X0087000Y0033000D03*
X0107000Y0033000D03*
X0117000Y0033000D03*
X0127000Y0033000D03*
X0127000Y0023000D03*
X0117000Y0023000D03*
X0107000Y0023000D03*
X0107000Y0013000D03*
X0117000Y0013000D03*
X0127000Y0013000D03*
X0097000Y0013000D03*
X0087000Y0013000D03*
X0077000Y0013000D03*
X0227000Y0048000D03*
X0237000Y0048000D03*
D11*
X0187000Y0049900D02*
X0187000Y0056100D01*
X0177000Y0056100D02*
X0177000Y0049900D01*
X0167000Y0049900D02*
X0167000Y0056100D01*
X0157000Y0056100D02*
X0157000Y0049900D01*
X0147000Y0049900D02*
X0147000Y0056100D01*
X0137000Y0056100D02*
X0137000Y0049900D01*
X0127000Y0049900D02*
X0127000Y0056100D01*
X0117000Y0056100D02*
X0117000Y0049900D01*
X0107000Y0049900D02*
X0107000Y0056100D01*
X0097000Y0056100D02*
X0097000Y0049900D01*
X0087000Y0049900D02*
X0087000Y0056100D01*
X0077000Y0056100D02*
X0077000Y0049900D01*
X0067000Y0049900D02*
X0067000Y0056100D01*
X0057000Y0056100D02*
X0057000Y0049900D01*
X0047000Y0049900D02*
X0047000Y0056100D01*
X0047000Y0109900D02*
X0047000Y0116100D01*
X0057000Y0116100D02*
X0057000Y0109900D01*
X0067000Y0109900D02*
X0067000Y0116100D01*
X0077000Y0116100D02*
X0077000Y0109900D01*
X0087000Y0109900D02*
X0087000Y0116100D01*
X0097000Y0116100D02*
X0097000Y0109900D01*
X0107000Y0109900D02*
X0107000Y0116100D01*
X0117000Y0116100D02*
X0117000Y0109900D01*
X0127000Y0109900D02*
X0127000Y0116100D01*
X0137000Y0116100D02*
X0137000Y0109900D01*
X0147000Y0109900D02*
X0147000Y0116100D01*
X0157000Y0116100D02*
X0157000Y0109900D01*
X0167000Y0109900D02*
X0167000Y0116100D01*
X0177000Y0116100D02*
X0177000Y0109900D01*
X0187000Y0109900D02*
X0187000Y0116100D01*
D12*
X0217079Y0103000D03*
X0227000Y0078000D03*
X0237000Y0078000D03*
D13*
X0226921Y0103000D03*
D14*
X0212000Y0078000D03*
X0212000Y0038000D03*
D15*
X0187000Y0130400D02*
X0187000Y0135600D01*
X0177000Y0135600D02*
X0177000Y0130400D01*
X0167000Y0130400D02*
X0167000Y0135600D01*
X0157000Y0135600D02*
X0157000Y0130400D01*
X0147000Y0130400D02*
X0147000Y0135600D01*
X0137000Y0135600D02*
X0137000Y0130400D01*
X0127000Y0130400D02*
X0127000Y0135600D01*
X0117000Y0135600D02*
X0117000Y0130400D01*
X0102000Y0130400D02*
X0102000Y0135600D01*
X0092000Y0135600D02*
X0092000Y0130400D01*
X0082000Y0130400D02*
X0082000Y0135600D01*
X0072000Y0135600D02*
X0072000Y0130400D01*
X0062000Y0130400D02*
X0062000Y0135600D01*
X0052000Y0135600D02*
X0052000Y0130400D01*
X0042000Y0130400D02*
X0042000Y0135600D01*
X0032000Y0135600D02*
X0032000Y0130400D01*
X0032000Y0160400D02*
X0032000Y0165600D01*
X0042000Y0165600D02*
X0042000Y0160400D01*
X0052000Y0160400D02*
X0052000Y0165600D01*
X0062000Y0165600D02*
X0062000Y0160400D01*
X0072000Y0160400D02*
X0072000Y0165600D01*
X0082000Y0165600D02*
X0082000Y0160400D01*
X0092000Y0160400D02*
X0092000Y0165600D01*
X0102000Y0165600D02*
X0102000Y0160400D01*
X0117000Y0160400D02*
X0117000Y0165600D01*
X0127000Y0165600D02*
X0127000Y0160400D01*
X0137000Y0160400D02*
X0137000Y0165600D01*
X0147000Y0165600D02*
X0147000Y0160400D01*
X0157000Y0160400D02*
X0157000Y0165600D01*
X0167000Y0165600D02*
X0167000Y0160400D01*
X0177000Y0160400D02*
X0177000Y0165600D01*
X0187000Y0165600D02*
X0187000Y0160400D01*
D16*
X0245858Y0078118D03*
X0245858Y0075559D03*
X0245858Y0073000D03*
X0245858Y0070441D03*
X0245858Y0067882D03*
D17*
X0256291Y0068472D03*
X0256291Y0077528D03*
D18*
X0256291Y0087764D03*
X0256291Y0058236D03*
D19*
X0246705Y0060402D03*
X0246705Y0085598D03*
D20*
X0222000Y0185000D02*
X0222000Y0191000D01*
X0212000Y0191000D02*
X0212000Y0185000D01*
X0202000Y0185000D02*
X0202000Y0191000D01*
X0192000Y0191000D02*
X0192000Y0185000D01*
X0182000Y0185000D02*
X0182000Y0191000D01*
X0147000Y0191000D02*
X0147000Y0185000D01*
X0137000Y0185000D02*
X0137000Y0191000D01*
X0127000Y0191000D02*
X0127000Y0185000D01*
X0117000Y0185000D02*
X0117000Y0191000D01*
X0107000Y0191000D02*
X0107000Y0185000D01*
X0072000Y0185000D02*
X0072000Y0191000D01*
X0062000Y0191000D02*
X0062000Y0185000D01*
X0052000Y0185000D02*
X0052000Y0191000D01*
X0042000Y0191000D02*
X0042000Y0185000D01*
X0032000Y0185000D02*
X0032000Y0191000D01*
D21*
X0252000Y0128000D03*
X0252000Y0118000D03*
D22*
X0227000Y0023000D03*
X0187000Y0023000D03*
D23*
X0212000Y0133000D03*
X0222000Y0133000D03*
X0222000Y0143000D03*
X0212000Y0143000D03*
X0212000Y0153000D03*
X0222000Y0153000D03*
X0222000Y0163000D03*
X0212000Y0163000D03*
D24*
X0017000Y0018000D03*
X0247000Y0018000D03*
X0247000Y0208000D03*
X0017000Y0208000D03*
D25*
X0237354Y0067882D03*
M02*
