%
M48
M72
T01C0.0200
T02C0.0276
T03C0.0320
T04C0.0394
T05C0.0400
T06C0.0440
T07C0.1181
%
T01
X23735Y6788
T02
X23700Y7800
X22700Y7800
X22692Y10300
X21708Y10300
T03
X18700Y13300
X17700Y13300
X16700Y13300
X15700Y13300
X14700Y13300
X13700Y13300
X12700Y13300
X11700Y13300
X10200Y13300
X9200Y13300
X8200Y13300
X7200Y13300
X6200Y13300
X5200Y13300
X4200Y13300
X3200Y13300
X3200Y16300
X4200Y16300
X5200Y16300
X6200Y16300
X7200Y16300
X8200Y16300
X9200Y16300
X10200Y16300
X11700Y16300
X12700Y16300
X13700Y16300
X14700Y16300
X15700Y16300
X16700Y16300
X17700Y16300
X18700Y16300
X22700Y4800
X23700Y4800
X22700Y2300
X18700Y2300
T04
X18700Y5300
X17700Y5300
X16700Y5300
X15700Y5300
X14700Y5300
X13700Y5300
X12700Y5300
X11700Y5300
X10700Y5300
X9700Y5300
X8700Y5300
X7700Y5300
X6700Y5300
X5700Y5300
X4700Y5300
X4700Y11300
X5700Y11300
X6700Y11300
X7700Y11300
X8700Y11300
X9700Y11300
X10700Y11300
X11700Y11300
X12700Y11300
X13700Y11300
X14700Y11300
X15700Y11300
X16700Y11300
X17700Y11300
X18700Y11300
T05
X21200Y13300
X22200Y13300
X22200Y14300
X21200Y14300
X21200Y15300
X22200Y15300
X22200Y16300
X21200Y16300
X21200Y18800
X20200Y18800
X19200Y18800
X18200Y18800
X14700Y18800
X13700Y18800
X12700Y18800
X11700Y18800
X10700Y18800
X7200Y18800
X6200Y18800
X5200Y18800
X4200Y18800
X3200Y18800
X22200Y18800
X25200Y12800
X25200Y11800
X12700Y3300
X11700Y3300
X10700Y3300
X10700Y2300
X11700Y2300
X12700Y2300
X12700Y1300
X11700Y1300
X10700Y1300
X9700Y1300
X8700Y1300
X7700Y1300
X7700Y2300
X7700Y3300
X8700Y3300
X9700Y3300
X9700Y2300
X8700Y2300
X5200Y2300
X5200Y3300
X5200Y1300
T06
X21200Y3800
X21200Y7800
T07
X1700Y1800
X24700Y1800
X24700Y20800
X1700Y20800
M30
