M48
INCH
T01C0.0400
T02C0.0600
T03C0.1181
T04C0.0500
%
T01
X-034452Y+019625
X-034452Y+018625
X-034452Y+017625
X-034452Y+016625
X-034452Y+015625
X-034452Y+014625
X-034452Y+013625
X-034452Y+012625
X-034452Y+011625
X-034452Y+010625
X-034452Y+009625
X-034452Y+008625
X-034452Y+007625
X-034452Y+006625
X-034452Y+005625
X-028452Y+019625
X-028452Y+018625
X-028452Y+017625
X-028452Y+016625
X-028452Y+015625
X-028452Y+014625
X-028452Y+013625
X-028452Y+012625
X-028452Y+011625
X-028452Y+010625
X-028452Y+009625
X-028452Y+008625
X-028452Y+007625
X-028452Y+006625
X-028452Y+005625
X-024721Y+020630
X-024721Y+019630
X-024721Y+018630
X-024721Y+017630
X-024721Y+016630
X-024721Y+015630
X-024721Y+014630
X-024721Y+013630
X-021721Y+013630
X-021721Y+014630
X-021721Y+015630
X-021721Y+016630
X-021721Y+017630
X-021721Y+018630
X-021721Y+019630
X-021721Y+020630
X-024721Y+012550
X-024721Y+011550
X-024721Y+010550
X-024721Y+009550
X-024721Y+008550
X-024721Y+007550
X-024721Y+006550
X-024721Y+005550
X-021721Y+005550
X-021721Y+006550
X-021721Y+007550
X-021721Y+008550
X-021721Y+009550
X-021721Y+010550
X-021721Y+011550
X-021721Y+012550
X-017810Y+018640
X-017810Y+017640
X-017810Y+019640
X-017810Y+020640
X-017810Y+015090
X-017810Y+016640
X-017810Y+017640
X-017810Y+012100
X-017810Y+011100
X-017810Y+013100
X-017810Y+014100
X-017810Y+011100
X-017810Y+012100
X-017810Y+009550
X-017810Y+006560
X-017810Y+005560
X-017810Y+007560
X-017810Y+008560
X-017810Y+005560
X-023680Y+003620
X-022680Y+003620
X-021120Y+022630
X-020120Y+022630
X-020440Y+004870
X-019440Y+004870
T02
X-018448Y+001980
X-020448Y+001980
T03
X-017360Y+023120
X-034800Y+023120
X-027070Y+001570
T04
X-027200Y+022870
X-023200Y+022870
M30
