M48
;GenerationSoftware,Autodesk,EAGLE,8.6.0*%
;CreationDate,2018-01-29T12:42:44Z*%
FMAT,2
ICI,OFF
METRIC,TZ,000.000
T7C0.508
T6C0.700
T5C0.813
T4C1.000
T3C1.016
T2C1.118
T1C3.000
%
G90
M71
T1
X3810Y5080
X62230Y5080
X3810Y53340
X62230Y53340
T2
X53340Y20320
X53340Y10160
T3
X26670Y3810
X19050Y6350
X21590Y6350
X24130Y6350
X26670Y6350
X29210Y6350
X31750Y6350
X29210Y3810
X31750Y3810
X19050Y8890
X21590Y8890
X45720Y48260
X24130Y8890
X26670Y8890
X29210Y8890
X31750Y8890
X36830Y48260
X7620Y48260
X10160Y48260
X12700Y48260
X15240Y48260
X17780Y48260
X19050Y3810
X21590Y3810
X34290Y48260
X24130Y3810
X31750Y48260
X29210Y48260
X26670Y48260
X55880Y48260
X53340Y48260
X50800Y48260
X48260Y48260
X63500Y30480
X63500Y33020
X53340Y41910
X55880Y41910
X53340Y39370
X55880Y39370
X53340Y36830
X55880Y36830
X53340Y34290
X55880Y34290
X12700Y3810
X12700Y6350
X12700Y8890
T4
X26670Y13970
X29210Y13970
X31750Y13970
X34290Y13970
X36830Y13970
X39370Y13970
X41910Y13970
X44450Y13970
X46990Y13970
X21590Y13970
X36830Y29210
X46990Y29210
X44450Y29210
X41910Y29210
X39370Y29210
X34290Y29210
X31750Y29210
X29210Y29210
X26670Y29210
X24130Y29210
X21590Y29210
X19050Y29210
X16510Y29210
X13970Y29210
X11430Y29210
X11430Y13970
X13970Y13970
X16510Y13970
X19050Y13970
X24130Y13970
T5
X39370Y41910
X36830Y41910
X34290Y41910
X31750Y41910
X29210Y41910
X15240Y34290
X12700Y34290
X25400Y34290
X22860Y34290
X10160Y34290
X7620Y34290
X59690Y12700
X57150Y12700
X41910Y34290
X39370Y34290
X46990Y41910
X44450Y41910
X41910Y41910
X17780Y34290
X25400Y41910
X22860Y41910
X20320Y41910
X17780Y41910
X15240Y41910
X12700Y41910
X20320Y34290
X10160Y41910
X7620Y41910
X46990Y6350
X57150Y6350
X29210Y34290
X31750Y34290
X44450Y34290
X46990Y34290
X34290Y34290
X36830Y34290
T6
X59690Y20320
X57150Y20320
X57130Y26670
X54630Y26670
T7
X59780Y17750
M30